<?xml version="1.0" standalone="no"?>
<!DOCTYPE svg PUBLIC "-//W3C//DTD SVG 20010904//EN"
 "http://www.w3.org/TR/2001/REC-SVG-20010904/DTD/svg10.dtd">
<svg version="1.0" xmlns="http://www.w3.org/2000/svg"
 width="225.000000pt" height="225.000000pt" viewBox="0 0 225.000000 225.000000"
 preserveAspectRatio="xMidYMid meet">

<g transform="translate(0.000000,225.000000) scale(0.100000,-0.100000)"
fill="#000000" stroke="none">
<path d="M210 1461 l0 -61 201 0 201 0 -7 28 c-3 15 -20 41 -36 57 l-29 30
-165 3 -165 3 0 -60z"/>
<path d="M856 1233 c-61 -158 -116 -303 -123 -320 l-13 -33 64 0 64 0 28 80
29 81 113 -3 114 -3 30 -77 29 -78 61 0 c58 0 60 1 54 23 -3 12 -57 155 -119
317 l-112 295 -55 3 -55 3 -109 -288z m210 17 l41 -120 -89 0 c-68 0 -89 3
-86 13 47 132 84 227 88 227 3 0 24 -54 46 -120z"/>
<path d="M1390 1200 l0 -320 60 0 60 0 0 320 0 320 -60 0 -60 0 0 -320z"/>
<path d="M1650 1200 l0 -320 60 0 60 0 0 135 0 135 125 0 125 0 0 50 0 50
-125 0 -125 0 0 80 0 80 150 0 150 0 0 55 0 55 -210 0 -210 0 0 -320z"/>
<path d="M210 1211 l0 -61 225 0 c124 0 225 3 225 6 0 20 -36 76 -58 91 -23
15 -53 18 -209 21 l-183 4 0 -61z"/>
<path d="M210 940 l0 -60 180 0 c198 0 230 7 268 55 12 15 22 36 22 46 0 18
-12 19 -235 19 l-235 0 0 -60z"/>
<path d="M210 760 c0 -32 4 -40 19 -40 22 0 45 25 36 40 -3 5 -15 10 -26 10
-26 0 -24 18 4 23 19 4 18 4 -5 6 -26 1 -28 -2 -28 -39z m48 -12 c-7 -19 -38
-22 -38 -4 0 10 9 16 21 16 12 0 19 -5 17 -12z"/>
<path d="M585 765 c-9 -20 -14 -39 -12 -42 3 -2 10 11 16 29 l12 33 14 -32 c8
-18 17 -33 20 -33 5 0 -21 70 -30 79 -3 2 -12 -13 -20 -34z"/>
<path d="M1113 765 c0 -22 2 -30 4 -17 2 12 2 30 0 40 -3 9 -5 -1 -4 -23z"/>
<path d="M1442 788 c-32 -32 7 -80 44 -53 10 7 16 17 11 21 -4 4 -7 2 -7 -4 0
-7 -5 -12 -11 -12 -7 0 -10 12 -7 30 5 32 -9 39 -30 18z m18 -25 c0 -20 -3
-24 -11 -16 -7 7 -9 19 -6 27 10 24 17 19 17 -11z"/>
<path d="M282 750 c0 -19 2 -27 5 -17 2 9 2 25 0 35 -3 9 -5 1 -5 -18z"/>
<path d="M320 771 c13 -10 13 -11 0 -11 -13 0 -13 -1 0 -10 13 -9 13 -11 0
-21 -13 -9 -13 -10 0 -6 19 5 19 49 0 54 -13 4 -13 3 0 -6z"/>
<path d="M352 750 c0 -19 2 -27 5 -17 2 9 11 17 18 17 7 0 16 -8 18 -17 3 -10
5 -2 5 17 0 19 -2 29 -5 23 -2 -7 -11 -13 -18 -13 -7 0 -16 6 -18 13 -3 6 -5
-4 -5 -23z"/>
<path d="M416 764 c-7 -18 10 -44 28 -44 6 0 3 5 -7 11 -13 8 -15 14 -7 30 6
11 7 19 1 19 -5 0 -12 -7 -15 -16z"/>
<path d="M456 767 c3 -10 9 -15 12 -12 3 3 0 11 -7 18 -10 9 -11 8 -5 -6z"/>
<path d="M487 773 c-4 -3 -7 -14 -7 -24 0 -20 29 -34 43 -20 6 6 2 9 -9 8 -28
-3 -30 31 -2 36 21 4 21 4 2 6 -11 0 -24 -2 -27 -6z"/>
<path d="M656 771 c-4 -5 3 -7 14 -4 23 6 26 13 6 13 -8 0 -17 -4 -20 -9z"/>
<path d="M714 765 c-4 -8 -3 -22 0 -31 7 -18 38 -15 42 4 1 7 0 8 -3 2 -9 -18
-33 -10 -33 11 0 16 5 20 20 16 11 -3 18 -1 14 4 -8 14 -34 11 -40 -6z"/>
<path d="M781 754 c-1 -26 3 -32 23 -36 23 -5 24 -3 19 26 -8 41 -13 46 -13
13 0 -35 -17 -35 -23 1 -4 26 -4 26 -6 -4z"/>
<path d="M842 750 c0 -19 2 -27 5 -17 2 9 2 25 0 35 -3 9 -5 1 -5 -18z"/>
<path d="M896 765 c4 -8 8 -15 10 -15 2 0 4 7 4 15 0 8 -4 15 -10 15 -5 0 -7
-7 -4 -15z"/>
<path d="M931 753 c-1 -29 2 -33 25 -33 14 0 23 4 19 10 -3 5 -12 7 -20 4 -9
-4 -15 4 -18 23 -4 27 -4 27 -6 -4z"/>
<path d="M1022 749 c1 -20 4 -26 10 -17 6 10 10 10 18 -2 7 -11 10 -7 10 18 0
25 -4 32 -19 32 -15 0 -19 -7 -19 -31z m28 11 c0 -5 -4 -10 -10 -10 -5 0 -10
5 -10 10 0 6 5 10 10 10 6 0 10 -4 10 -10z"/>
<path d="M1150 772 c8 -4 16 -15 18 -26 3 -15 -1 -18 -19 -13 -16 4 -19 3 -11
-5 6 -6 18 -8 26 -5 22 9 14 51 -10 54 -14 2 -15 1 -4 -5z"/>
<path d="M1229 748 c4 -28 6 -29 9 -9 2 13 0 27 -5 32 -6 6 -7 -3 -4 -23z"/>
<path d="M1290 770 c0 -5 -8 -10 -17 -11 -14 0 -15 -2 -3 -6 8 -3 18 -11 22
-17 4 -6 8 1 8 17 0 15 -2 27 -5 27 -3 0 -5 -4 -5 -10z"/>
<path d="M1324 765 c-4 -8 -3 -22 0 -31 7 -18 38 -15 42 4 1 7 0 8 -3 2 -9
-18 -33 -10 -33 11 0 16 5 20 20 16 11 -3 18 -1 14 4 -8 14 -34 11 -40 -6z"/>
<path d="M1522 738 l1 -43 4 38 c4 33 7 38 24 34 10 -3 17 -1 13 4 -3 5 -14 9
-25 9 -16 0 -19 -7 -17 -42z"/>
<path d="M1618 755 c2 -14 6 -25 8 -25 2 0 4 11 4 25 0 14 -4 25 -9 25 -4 0
-6 -11 -3 -25z"/>
<path d="M1652 750 c0 -19 2 -27 5 -17 2 9 11 17 18 17 7 0 16 -8 18 -17 3
-10 5 -2 5 17 0 19 -2 29 -5 23 -2 -7 -11 -13 -18 -13 -7 0 -16 6 -18 13 -3 6
-5 -4 -5 -23z"/>
<path d="M1711 755 c0 -16 3 -24 6 -17 4 10 10 9 26 -5 18 -15 20 -15 8 -1 -7
9 -9 23 -5 29 5 8 3 9 -6 4 -7 -4 -16 -2 -21 6 -6 10 -8 5 -8 -16z"/>
<path d="M1772 750 c0 -19 2 -27 5 -17 2 9 2 25 0 35 -3 9 -5 1 -5 -18z"/>
<path d="M1800 749 c0 -24 4 -30 18 -27 10 2 18 14 20 31 3 22 -1 27 -17 27
-17 0 -21 -6 -21 -31z m27 1 c1 -11 -2 -20 -8 -20 -5 0 -9 9 -9 20 0 11 4 20
8 20 4 0 8 -9 9 -20z"/>
<path d="M1868 773 c6 -2 18 -2 25 0 6 3 1 5 -13 5 -14 0 -19 -2 -12 -5z"/>
<path d="M1920 750 c0 -19 5 -30 14 -30 26 0 29 21 7 41 l-21 20 0 -31z m30
-10 c0 -5 -4 -10 -10 -10 -5 0 -10 5 -10 10 0 6 5 10 10 10 6 0 10 -4 10 -10z"/>
<path d="M1972 750 c0 -19 2 -27 5 -17 4 15 7 16 21 6 14 -11 15 -11 5 1 -10
11 -10 17 0 29 10 14 10 14 -5 3 -13 -10 -17 -10 -21 0 -3 7 -5 -3 -5 -22z"/>
<path d="M2058 753 c5 -21 7 -23 10 -9 2 10 0 22 -6 28 -6 6 -7 0 -4 -19z"/>
<path d="M1195 750 c-8 -13 3 -30 18 -30 7 0 6 4 -3 10 -13 9 -13 11 0 20 9 6
10 10 3 10 -6 0 -15 -4 -18 -10z"/>
<path d="M1398 753 c7 -3 16 -2 19 1 4 3 -2 6 -13 5 -11 0 -14 -3 -6 -6z"/>
<path d="M1850 753 c0 -6 7 -16 15 -23 13 -11 18 -11 28 0 10 10 9 11 -2 5 -9
-5 -19 -1 -28 10 -7 11 -13 14 -13 8z"/>
<path d="M2025 750 c-8 -13 3 -30 18 -30 7 0 6 4 -3 10 -13 9 -13 11 0 20 9 6
10 10 3 10 -6 0 -15 -4 -18 -10z"/>
<path d="M650 742 c0 -18 29 -27 43 -13 9 9 8 11 -7 5 -11 -4 -21 -2 -27 7 -6
10 -9 11 -9 1z"/>
<path d="M1552 734 c-7 -8 -8 -14 -3 -14 10 0 25 19 20 25 -2 1 -10 -3 -17
-11z"/>
<path d="M1580 741 c0 -10 19 -25 25 -20 1 2 -3 10 -11 17 -8 7 -14 8 -14 3z"/>
<path d="M867 728 c2 -5 10 -8 18 -8 8 0 16 3 18 8 3 4 -5 7 -18 7 -13 0 -21
-3 -18 -7z"/>
</g>
</svg>
