<?xml version="1.0" standalone="no"?>
<!DOCTYPE svg PUBLIC "-//W3C//DTD SVG 20010904//EN"
 "http://www.w3.org/TR/2001/REC-SVG-20010904/DTD/svg10.dtd">
<svg version="1.0" xmlns="http://www.w3.org/2000/svg"
 width="224.000000pt" height="224.000000pt" viewBox="0 0 224.000000 224.000000"
 preserveAspectRatio="xMidYMid meet">

<g transform="translate(0.000000,224.000000) scale(0.100000,-0.100000)"
fill="#000000" stroke="none">
<path d="M128 1280 c-179 -95 -74 -372 122 -321 80 21 130 86 130 168 -1 129
-138 213 -252 153z m140 -24 c47 -25 74 -62 79 -110 17 -146 -149 -221 -246
-111 -41 47 -48 91 -23 148 11 25 29 50 40 56 19 10 21 7 27 -54 4 -36 10 -65
13 -65 3 0 13 7 23 16 16 15 18 13 24 -29 6 -37 10 -44 25 -40 12 3 20 -2 23
-14 3 -10 5 0 6 22 1 30 -2 36 -11 27 -21 -21 -28 -13 -28 33 0 46 -7 54 -28
33 -6 -6 -14 -9 -17 -6 -10 9 -18 76 -12 93 8 19 68 20 105 1z"/>
<path d="M1017 1285 c-38 -22 -47 -51 -47 -161 0 -119 14 -157 64 -174 51 -16
111 -4 136 27 17 22 20 41 20 144 0 109 -2 120 -23 145 -29 33 -106 43 -150
19z m91 -161 c2 -96 0 -112 -14 -118 -34 -13 -44 12 -44 113 0 99 9 125 40
119 12 -3 16 -24 18 -114z"/>
<path d="M1767 1285 c-38 -22 -47 -51 -47 -161 0 -119 14 -157 64 -174 51 -16
111 -4 136 27 17 22 20 41 20 144 0 109 -2 120 -23 145 -29 33 -106 43 -150
19z m91 -161 c2 -96 0 -112 -14 -118 -34 -13 -44 12 -44 113 0 99 9 125 40
119 12 -3 16 -24 18 -114z"/>
<path d="M480 1120 l0 -170 79 0 c70 0 83 3 108 24 24 21 28 32 28 76 0 41 -4
54 -23 68 -21 16 -21 18 -3 29 36 23 32 100 -7 129 -11 9 -48 13 -99 14 l-83
0 0 -170z m135 99 c4 -5 4 -21 1 -35 -5 -17 -13 -24 -31 -24 -22 0 -25 4 -25
35 0 30 3 35 24 35 14 0 28 -5 31 -11z m-2 -140 c5 -9 7 -28 3 -42 -5 -20 -13
-27 -31 -27 -23 0 -25 4 -25 46 0 41 2 45 21 42 12 -2 26 -10 32 -19z"/>
<path d="M750 1120 l0 -170 95 0 95 0 0 30 c0 30 -1 30 -55 30 l-55 0 0 45 0
45 45 0 c43 0 45 1 45 30 0 29 -2 30 -45 30 -45 0 -45 0 -45 35 l0 35 55 0
c54 0 55 0 55 30 l0 30 -95 0 -95 0 0 -170z"/>
<path d="M1240 1120 l0 -170 40 0 40 0 -1 48 c0 26 -4 68 -8 95 -11 65 -2 51
35 -51 31 -86 31 -87 68 -90 l36 -3 0 170 0 171 -36 0 -37 0 6 -101 c3 -55 4
-99 2 -97 -2 2 -18 47 -35 101 l-31 97 -39 0 -40 0 0 -170z"/>
<path d="M1490 1260 c0 -28 3 -30 35 -30 l35 0 0 -140 0 -140 35 0 35 0 0 140
0 140 30 0 c27 0 30 3 30 30 l0 30 -100 0 -100 0 0 -30z"/>
<path d="M1990 1120 l0 -170 40 0 39 0 3 68 3 67 45 5 c58 7 66 13 80 56 16
48 5 99 -27 124 -21 16 -40 20 -104 20 l-79 0 0 -170z m128 98 c17 -17 15 -44
-4 -62 -29 -30 -44 -20 -44 29 0 37 3 45 18 45 10 0 23 -5 30 -12z"/>
</g>
</svg>
