<?xml version="1.0" standalone="no"?>
<!DOCTYPE svg PUBLIC "-//W3C//DTD SVG 20010904//EN"
 "http://www.w3.org/TR/2001/REC-SVG-20010904/DTD/svg10.dtd">
<svg version="1.0" xmlns="http://www.w3.org/2000/svg"
 width="458.000000pt" height="110.000000pt" viewBox="0 0 458.000000 110.000000"
 preserveAspectRatio="xMidYMid meet">

<g transform="translate(0.000000,110.000000) scale(0.100000,-0.100000)"
fill="#000000" stroke="none">
<path d="M910 1085 c-75 -21 -126 -54 -186 -117 -73 -77 -97 -146 -92 -264 3
-74 9 -101 32 -148 37 -76 95 -131 176 -170 61 -29 72 -31 180 -31 110 0 118
1 182 33 76 37 149 111 181 182 32 69 35 208 8 281 -42 110 -110 178 -220 220
-74 28 -189 34 -261 14z m197 -174 c125 -57 144 -261 33 -354 -29 -25 -86 -47
-120 -47 -66 0 -138 48 -171 113 -31 59 -24 168 13 224 50 76 156 104 245 64z"/>
<path d="M0 720 l0 -360 180 0 c204 0 262 9 319 51 92 66 100 224 15 299 -19
16 -42 30 -50 30 -10 0 -3 12 19 33 69 65 71 181 3 246 -50 49 -112 61 -313
61 l-173 0 0 -360z m340 210 c28 -28 27 -93 -2 -120 -18 -16 -35 -20 -95 -20
l-73 0 0 80 0 80 75 0 c62 0 79 -4 95 -20z m27 -292 c17 -16 23 -33 23 -63 0
-65 -23 -79 -131 -83 l-89 -4 0 86 0 86 87 0 c75 0 90 -3 110 -22z"/>
<path d="M1500 720 l0 -360 90 0 90 0 0 130 0 130 114 0 114 0 4 75 3 74 -115
3 -115 3 -3 78 -3 77 156 0 155 0 0 -285 0 -285 95 0 95 0 0 130 0 130 115 0
115 0 0 75 0 75 -115 0 -115 0 0 80 0 80 155 0 155 0 0 75 0 75 -495 0 -495 0
0 -360z"/>
<path d="M2570 720 l0 -360 255 0 255 0 0 70 0 70 -165 0 -165 0 0 80 0 80
125 0 125 0 0 70 0 70 -125 0 -125 0 0 70 0 70 165 0 165 0 0 70 0 70 -255 0
-255 0 0 -360z"/>
<path d="M3160 1005 l0 -75 110 0 110 0 0 -285 0 -285 95 0 95 0 0 285 0 285
160 0 160 0 0 -285 0 -285 95 0 95 0 0 285 0 285 110 0 110 0 0 75 0 75 -570
0 -570 0 0 -75z"/>
<path d="M4390 720 l0 -360 95 0 95 0 0 360 0 360 -95 0 -95 0 0 -360z"/>
<path d="M71 163 c-5 -11 -18 -41 -29 -68 -11 -28 -23 -58 -27 -67 -5 -13 -2
-18 10 -18 9 0 19 9 22 20 8 29 79 29 88 0 3 -11 15 -20 25 -20 17 0 15 7 -15
83 -34 83 -55 104 -74 70z m27 -81 c-27 -5 -30 1 -17 34 l11 29 13 -30 c12
-27 12 -30 -7 -33z"/>
<path d="M217 173 c-4 -3 -7 -42 -7 -85 l0 -78 60 0 c33 0 60 4 60 10 0 6 -18
10 -40 10 l-40 0 0 75 c0 56 -3 75 -13 75 -8 0 -17 -3 -20 -7z"/>
<path d="M340 168 c0 -7 10 -46 21 -85 29 -96 49 -99 74 -10 l18 62 20 -63
c27 -88 47 -85 76 11 24 82 26 100 9 95 -13 -5 -36 -62 -37 -95 -2 -42 -18
-24 -35 37 -10 37 -22 60 -31 60 -9 0 -21 -23 -31 -60 -9 -33 -20 -60 -23 -60
-4 0 -13 27 -20 60 -9 38 -19 60 -27 60 -8 0 -14 -6 -14 -12z"/>
<path d="M629 133 c-44 -100 -50 -123 -33 -123 9 0 18 9 21 20 8 29 82 29 90
0 3 -11 13 -20 23 -20 17 0 15 9 -15 83 -40 100 -57 107 -86 40z m39 -51 c-27
-5 -30 1 -17 34 l11 29 13 -30 c12 -27 12 -30 -7 -33z"/>
<path d="M750 174 c0 -4 14 -29 30 -56 17 -26 30 -62 30 -78 0 -20 5 -30 15
-30 11 0 15 11 15 36 0 23 10 51 30 79 34 50 36 55 15 55 -9 0 -25 -16 -36
-35 -12 -19 -24 -35 -28 -35 -4 0 -15 16 -24 35 -9 19 -23 35 -32 35 -8 0 -15
-3 -15 -6z"/>
<path d="M948 169 c-11 -6 -18 -22 -18 -40 0 -26 6 -33 40 -46 56 -22 51 -48
-8 -47 -47 1 -54 -11 -17 -28 17 -7 35 -8 57 -2 29 9 33 14 33 44 0 30 -5 37
-37 53 -51 25 -51 55 1 48 7 -2 20 0 29 4 14 5 14 7 2 15 -20 13 -61 12 -82
-1z"/>
<path d="M1150 95 c0 -69 3 -85 15 -85 10 0 15 10 15 30 0 26 4 30 28 30 35 0
52 16 52 51 0 34 -32 59 -77 59 l-33 0 0 -85z m75 25 c0 -18 -6 -26 -22 -28
-20 -3 -23 1 -23 28 0 27 3 31 23 28 16 -2 22 -10 22 -28z"/>
<path d="M1326 155 c-39 -36 -37 -94 5 -129 35 -30 58 -32 99 -11 58 30 67 90
21 136 -38 38 -87 39 -125 4z m95 -15 c13 -7 19 -21 19 -45 0 -60 -50 -85 -90
-45 -50 50 7 124 71 90z"/>
<path d="M1500 173 c0 -5 10 -42 23 -83 18 -60 27 -75 42 -75 15 0 23 12 35
52 8 29 17 53 20 53 3 0 12 -24 20 -52 12 -41 20 -53 35 -53 15 0 24 15 42 75
27 89 27 90 8 90 -8 0 -19 -17 -25 -42 -26 -99 -25 -99 -46 -28 -12 41 -25 65
-34 65 -9 0 -22 -24 -34 -65 -21 -71 -20 -71 -46 28 -6 25 -17 42 -25 42 -8 0
-15 -3 -15 -7z"/>
<path d="M1780 95 c0 -74 2 -85 18 -85 9 0 34 -3 55 -6 30 -5 37 -4 37 10 0
12 -10 16 -40 16 -36 0 -40 3 -40 25 0 22 4 25 35 25 19 0 35 5 35 10 0 6 -16
10 -35 10 -31 0 -35 3 -35 25 0 23 4 25 40 25 29 0 40 4 40 15 0 12 -13 15
-55 15 l-55 0 0 -85z"/>
<path d="M1940 95 c0 -69 3 -85 15 -85 10 0 15 10 15 30 0 20 5 30 15 30 8 0
21 -13 30 -30 10 -18 23 -30 36 -30 20 0 20 0 -1 30 -20 28 -20 31 -5 54 30
45 -6 86 -75 86 l-30 0 0 -85z m78 28 c-2 -20 -9 -29 -25 -31 -20 -3 -23 1
-23 27 0 27 4 31 26 31 22 0 25 -4 22 -27z"/>
<path d="M2211 158 c-5 -13 -20 -51 -34 -85 -24 -58 -24 -63 -7 -63 10 0 20 9
23 20 7 28 72 28 87 0 10 -19 41 -29 39 -12 0 4 -15 41 -32 82 -35 80 -60 99
-76 58z m44 -55 c5 -20 3 -23 -19 -23 -24 0 -24 2 -14 31 11 32 21 29 33 -8z"/>
<path d="M2360 95 c0 -69 3 -85 15 -85 10 0 15 11 15 35 0 35 0 35 45 35 45 0
45 0 45 -35 0 -24 5 -35 15 -35 12 0 15 16 15 85 0 69 -3 85 -15 85 -10 0 -15
-11 -15 -35 0 -35 0 -35 -45 -35 -45 0 -45 0 -45 35 0 24 -5 35 -15 35 -12 0
-15 -16 -15 -85z"/>
<path d="M2560 95 c0 -65 3 -85 14 -85 7 0 34 -3 60 -6 38 -6 46 -4 46 10 0
12 -10 16 -45 16 -41 0 -45 2 -45 25 0 23 4 25 40 25 51 0 53 18 3 22 -31 2
-39 7 -41 26 -3 20 1 22 37 22 30 0 41 4 41 15 0 12 -13 15 -55 15 l-55 0 0
-85z"/>
<path d="M2764 145 c-49 -119 -54 -135 -39 -135 8 0 19 9 25 20 15 28 80 28
87 0 3 -11 13 -20 23 -20 17 0 15 9 -15 83 -38 94 -58 107 -81 52z m34 -63
c-27 -5 -30 1 -17 34 l11 29 13 -30 c12 -27 12 -30 -7 -33z"/>
<path d="M2920 96 l0 -86 53 0 c28 0 60 6 69 14 39 29 43 99 8 131 -10 9 -43
19 -74 22 l-56 6 0 -87z m104 38 c37 -36 7 -104 -46 -104 -28 0 -28 1 -28 60
0 60 0 60 29 60 16 0 37 -7 45 -16z"/>
</g>
</svg>
