<?xml version="1.0" standalone="no"?>
<!DOCTYPE svg PUBLIC "-//W3C//DTD SVG 20010904//EN"
 "http://www.w3.org/TR/2001/REC-SVG-20010904/DTD/svg10.dtd">
<svg version="1.0" xmlns="http://www.w3.org/2000/svg"
 width="225.000000pt" height="225.000000pt" viewBox="0 0 225.000000 225.000000"
 preserveAspectRatio="xMidYMid meet">

<g transform="translate(0.000000,225.000000) scale(0.100000,-0.100000)"
fill="#000000" stroke="none">
<path d="M424 1375 c-16 -24 -16 -27 0 -38 15 -11 17 -33 14 -205 l-3 -193 55
3 c46 3 56 7 67 27 10 20 9 27 -3 36 -17 12 -16 106 1 112 14 4 59 -130 52
-156 -5 -19 -1 -21 43 -21 71 0 101 34 60 68 -18 16 -80 161 -80 189 0 7 15
19 34 27 33 14 62 64 29 52 -8 -3 -28 -6 -45 -6 -29 0 -35 -5 -88 -70 l-21
-25 3 113 3 112 -52 0 c-45 0 -55 -4 -69 -25z"/>
<path d="M1282 1388 c-16 -16 -15 -45 1 -51 9 -3 12 -52 12 -200 l0 -197 37 0
c25 0 40 6 47 17 9 17 11 16 30 -1 33 -30 95 -25 132 10 68 65 67 231 -2 288
-33 28 -93 35 -131 15 -20 -11 -21 -10 -16 60 l5 71 -51 0 c-29 0 -57 -5 -64
-12z m189 -175 c9 -11 14 -43 14 -98 0 -67 -4 -87 -19 -104 -24 -26 -31 -26
-56 -1 -17 17 -20 33 -20 98 0 54 5 84 16 100 18 26 46 29 65 5z"/>
<path d="M778 1268 c-24 -20 -29 -46 -12 -56 14 -8 16 -29 13 -140 l-4 -132
47 0 c40 0 50 4 64 25 15 22 15 26 0 40 -12 12 -16 36 -16 95 0 91 11 130 39
130 37 0 43 -23 39 -160 l-3 -130 47 0 c29 0 52 6 62 16 20 19 20 29 0 60 -13
19 -16 42 -12 104 5 85 18 113 52 108 20 -3 21 -9 21 -146 l0 -142 52 0 c48 0
54 3 67 29 13 24 13 30 2 34 -10 4 -15 35 -18 117 -3 108 -4 113 -31 136 -35
30 -94 32 -128 5 -24 -19 -25 -19 -48 0 -32 26 -100 25 -129 -1 l-22 -21 0 21
c0 16 -6 20 -33 20 -18 0 -40 -6 -49 -12z"/>
<path d="M1660 1260 c-13 -13 -20 -33 -20 -61 0 -36 7 -48 61 -104 64 -67 73
-97 31 -103 -28 -4 -52 14 -52 39 0 26 -12 24 -44 -6 -23 -22 -26 -28 -15 -41
43 -52 160 -63 204 -19 20 19 25 34 25 72 0 45 -3 50 -65 108 -84 77 -87 101
-9 73 38 -14 64 1 64 36 0 19 -6 21 -80 24 -69 2 -82 0 -100 -18z"/>
</g>
</svg>
