<svg width="165" height="23" viewBox="0 0 165 23" fill="none" xmlns="http://www.w3.org/2000/svg">
<path d="M18.4755 9.43149H12.2832C12.2022 9.43011 12.1248 9.39451 12.0674 9.33218C12.01 9.26984 11.977 9.18566 11.9754 9.09735V0.691194C11.9751 0.508452 11.9085 0.333256 11.7902 0.203786C11.6718 0.0743159 11.5113 0.00106625 11.3437 0H8.57204C8.4036 0.000349599 8.24209 0.073156 8.12264 0.202589C8.00319 0.332022 7.93544 0.507617 7.93414 0.691194V9.09465C7.93447 9.1834 7.90252 9.26867 7.84529 9.3318C7.78806 9.39493 7.71022 9.43078 7.62879 9.43149H0.635423C0.467638 9.43184 0.306763 9.50436 0.187774 9.63329C0.0687847 9.76222 0.00130288 9.93713 0 10.12V12.909C0.000161913 12.9997 0.0167352 13.0895 0.0487712 13.1732C0.0808071 13.2569 0.127677 13.3329 0.186698 13.3969C0.245719 13.4608 0.315732 13.5115 0.39273 13.5459C0.469728 13.5803 0.552199 13.5979 0.635423 13.5975H7.62879C7.71012 13.5993 7.7876 13.6356 7.84466 13.6988C7.90172 13.762 7.93383 13.847 7.93414 13.9357V22.3082C7.9343 22.3992 7.95094 22.4894 7.9831 22.5734C8.01526 22.6574 8.06231 22.7338 8.12156 22.798C8.18081 22.8622 8.2511 22.913 8.3284 22.9476C8.40569 22.9821 8.48849 22.9997 8.57204 22.9994H11.3437C11.5114 22.9986 11.6721 22.9255 11.7905 22.796C11.9089 22.6664 11.9754 22.491 11.9754 22.3082V13.9357C11.9766 13.8469 12.0094 13.7621 12.0668 13.699C12.1242 13.636 12.2017 13.5996 12.2832 13.5975H18.4755C18.6431 13.5975 18.804 13.525 18.9226 13.3959C19.0413 13.2669 19.1081 13.0917 19.1084 12.909V10.12C19.1075 9.93748 19.0404 9.76278 18.9219 9.63385C18.8034 9.50492 18.643 9.4322 18.4755 9.43149Z" fill="#818181"/>
<path d="M67.4786 6.75302e-05H64.7527C64.5844 0.000424418 64.4231 0.0735459 64.3042 0.203384C64.1853 0.333222 64.1185 0.509168 64.1185 0.692609V15.8989C64.1208 15.9319 64.1162 15.9651 64.1049 15.9959C64.0776 15.9823 64.0522 15.9646 64.0295 15.9433L47.8966 0.382717C47.6303 0.150265 47.303 0.0162461 46.9621 6.75302e-05H45.1077C44.9391 6.71837e-05 44.7773 0.0729881 44.658 0.202826C44.5386 0.332664 44.4714 0.508811 44.471 0.692609V22.3082C44.471 22.3992 44.4875 22.4893 44.5196 22.5734C44.5516 22.6574 44.5985 22.7337 44.6577 22.7979C44.7168 22.8622 44.787 22.913 44.8643 22.9476C44.9415 22.9822 45.0242 22.9998 45.1077 22.9994H47.8274C47.9957 22.9994 48.1572 22.9267 48.2763 22.7971C48.3954 22.6675 48.4625 22.4917 48.4628 22.3082V7.09255C48.4618 7.05968 48.466 7.02686 48.4752 6.99554C48.5016 7.00926 48.5262 7.02695 48.5481 7.04809L64.7428 22.6222C65.011 22.8522 65.3389 22.9842 65.6798 22.9994H67.4773C67.5603 22.9991 67.6424 22.9809 67.7189 22.946C67.7954 22.9111 67.8649 22.8601 67.9233 22.7959C67.9817 22.7317 68.028 22.6556 68.0594 22.5719C68.0909 22.4883 68.1069 22.3987 68.1066 22.3082V0.693956C68.1072 0.603428 68.0915 0.513648 68.0603 0.429756C68.029 0.345864 67.9829 0.269507 67.9246 0.205055C67.8663 0.140603 67.7969 0.0893227 67.7203 0.0541482C67.6438 0.0189738 67.5616 0.000596238 67.4786 6.75302e-05ZM34.1584 0.673746C34.2437 0.587607 34.2951 0.468824 34.3018 0.342296C34.2981 0.0943824 34.0756 6.75302e-05 33.8914 6.75302e-05H29.954C29.6126 0.0175378 29.2887 0.169839 29.0429 0.428527L21.4289 9.17826C21.205 9.45875 21.0743 9.81333 21.058 10.1847V12.8175C21.0743 13.1893 21.2049 13.5443 21.4289 13.8253L29.0429 22.5737C29.2896 22.8305 29.6131 22.9817 29.954 22.9994H33.8914C33.9856 23.0041 34.0791 22.9794 34.1609 22.928C34.2039 22.9005 34.2396 22.8611 34.2643 22.8138C34.2891 22.7665 34.302 22.713 34.3018 22.6586C34.2951 22.532 34.2437 22.4132 34.1584 22.3271L24.9991 11.7504C24.9411 11.6828 24.9088 11.5937 24.9089 11.5011C24.9081 11.4072 24.9404 11.3165 24.9991 11.2478L34.1584 0.673746ZM101.716 6.75302e-05H80.5888C80.4205 0.000424418 80.2592 0.0735459 80.1403 0.203384C80.0214 0.333222 79.9546 0.509168 79.9546 0.692609V22.3096C79.9545 22.4001 79.9707 22.4898 80.0024 22.5735C80.034 22.6572 80.0805 22.7332 80.1392 22.7973C80.1979 22.8614 80.2676 22.9122 80.3443 22.9469C80.421 22.9816 80.5033 22.9994 80.5863 22.9994H101.716C101.799 22.9996 101.882 22.9819 101.959 22.9473C102.036 22.9128 102.106 22.862 102.165 22.7979C102.224 22.7339 102.271 22.6578 102.303 22.574C102.335 22.4902 102.351 22.4004 102.351 22.3096V19.5772C102.351 19.3937 102.284 19.2179 102.165 19.0883C102.046 18.9587 101.884 18.886 101.716 18.886H84.2567C84.1754 18.8849 84.0976 18.8492 84.0401 18.7865C83.9826 18.7238 83.9499 18.6391 83.9489 18.5505V13.9843C83.9499 13.8956 83.9826 13.8109 84.0401 13.7482C84.0976 13.6855 84.1754 13.6498 84.2567 13.6488H99.9766C100.133 13.6489 100.284 13.5856 100.4 13.471C100.516 13.3564 100.589 13.1989 100.605 13.029V10.182C100.605 10.0913 100.588 10.0015 100.556 9.91773C100.524 9.83395 100.478 9.75784 100.419 9.69377C100.36 9.62969 100.29 9.5789 100.213 9.54432C100.136 9.50973 100.054 9.49201 99.9705 9.49219H84.2567C84.1755 9.4908 84.0979 9.45501 84.0405 9.39239C83.983 9.32977 83.9502 9.24525 83.9489 9.1567V4.52718C83.9489 4.43867 83.981 4.35374 84.0382 4.2909C84.0954 4.22806 84.173 4.1924 84.2542 4.19169H101.716C101.884 4.19134 102.045 4.11844 102.165 3.98894C102.284 3.85943 102.351 3.68383 102.351 3.5005V0.693956C102.352 0.602897 102.335 0.512697 102.303 0.428518C102.272 0.34434 102.225 0.267835 102.166 0.203384C102.107 0.138933 102.037 0.0878004 101.959 0.0529127C101.882 0.018025 101.8 6.73579e-05 101.716 6.75302e-05ZM158.988 10.0379C155.743 9.20655 151.95 9.12032 149.747 8.25128C148.29 7.66383 148.116 6.85811 148.104 6.21677C148.104 6.17365 148.104 6.13458 148.104 6.09685C148.158 5.48111 148.245 4.21056 150.388 4.1863H163.682C163.851 4.18595 164.012 4.1131 164.131 3.98363C164.25 3.85416 164.318 3.67856 164.319 3.49511V0.693956C164.319 0.602897 164.303 0.512697 164.271 0.428518C164.239 0.34434 164.192 0.267835 164.133 0.203384C164.074 0.138933 164.004 0.0878004 163.927 0.0529127C163.85 0.018025 163.767 6.73579e-05 163.683 6.75302e-05H150.745C145.831 -0.0161007 144.095 2.87398 143.884 5.4865C143.862 5.71886 143.852 5.95225 143.852 6.18578C143.852 10.0123 146.803 11.5442 150.175 12.3513C153.548 13.1583 157.469 13.3146 159.561 14.3103C160.536 14.7846 160.89 15.3882 160.901 16.5187V16.5901C160.87 17.2745 160.587 18.7916 157.993 18.8119H143.958C143.79 18.8119 143.629 18.8844 143.509 19.0137C143.39 19.1429 143.322 19.3184 143.321 19.5017V22.3069C143.322 22.4903 143.39 22.6659 143.509 22.7954C143.628 22.9249 143.79 22.9977 143.958 22.9981H158.071C162.933 22.9981 164.894 20.2939 164.994 16.8003C164.994 16.6992 165 16.5995 165 16.4998C165 12.5035 162.222 10.8584 158.988 10.0379ZM128.157 10.0379C124.911 9.20655 121.117 9.12032 118.916 8.25128C117.459 7.66383 117.285 6.85811 117.273 6.21677C117.271 6.17682 117.271 6.1368 117.273 6.09685C117.323 5.48111 117.412 4.21056 119.555 4.1863H132.848C133.017 4.18595 133.178 4.11315 133.297 3.98371C133.417 3.85428 133.485 3.67869 133.486 3.49511V0.693956C133.486 0.5105 133.419 0.334619 133.3 0.204643C133.181 0.0746674 133.02 0.0011338 132.852 6.75302e-05H119.915C115.001 -0.0161007 113.265 2.87398 113.054 5.4865C113.032 5.71888 113.022 5.95227 113.023 6.18578C113.023 10.0123 115.972 11.5442 119.345 12.3513C122.717 13.1583 126.638 13.3146 128.73 14.3103C129.706 14.7846 130.059 15.3882 130.07 16.5187C130.07 16.5389 130.07 16.5618 130.07 16.5901C130.038 17.2745 129.756 18.7916 127.164 18.8119H113.126C112.958 18.8119 112.797 18.8844 112.678 19.0137C112.558 19.1429 112.491 19.3184 112.49 19.5017V22.3069C112.49 22.4905 112.558 22.6663 112.677 22.7958C112.796 22.9254 112.958 22.9981 113.126 22.9981H127.241C132.103 22.9981 134.063 20.2939 134.163 16.8003C134.163 16.6992 134.163 16.5995 134.163 16.4998C134.167 12.5035 131.393 10.8584 128.157 10.0379Z" fill="#FFC212"/>
</svg>