<svg version="1.1" id="Layer_1" xmlns="http://www.w3.org/2000/svg" xmlns:xlink="http://www.w3.org/1999/xlink" x="0px" y="0px"
	 width="100%" viewBox="0 0 1571 371" enable-background="new 0 0 1571 371" xml:space="preserve">
<path fill="#FEFDFE" opacity="1.000000" stroke="none" 
	d="
M162.000000,372.000000 
	C108.366760,372.000000 54.733528,372.000000 1.050146,372.000000 
	C1.050146,248.443817 1.050146,124.887604 1.050146,1.000000 
	C54.688858,1.000000 108.378395,1.000000 162.319214,1.346364 
	C157.215714,2.499563 151.860931,3.306398 146.738617,4.078205 
	C146.738617,24.552654 146.738617,44.375927 146.738617,64.088234 
	C156.763229,62.471828 166.352692,60.925591 176.000000,59.370026 
	C176.000000,39.874531 176.000000,20.437265 176.000000,1.000000 
	C178.041672,1.000000 180.083328,1.000000 182.686035,1.454919 
	C183.247070,21.170065 183.247070,40.430290 183.247070,59.293678 
	C193.550751,60.750530 203.177917,62.111729 213.001221,63.500660 
	C213.001221,43.727848 213.001221,23.970884 213.001221,4.005313 
	C207.565750,2.984437 202.282883,1.992219 197.000000,1.000000 
	C592.689331,1.000000 988.378662,1.000000 1384.712646,1.438061 
	C1385.357178,7.146399 1385.357178,12.416677 1385.357178,17.906916 
	C1387.838379,17.906916 1389.496094,17.907431 1391.153687,17.906837 
	C1410.691406,17.899826 1429.568237,21.519558 1447.774292,28.518326 
	C1516.853638,55.073902 1561.150635,125.508888 1554.132935,199.852142 
	C1547.728638,267.698456 1512.840698,316.008789 1450.231567,343.369354 
	C1427.828125,353.159790 1404.021973,354.751282 1379.460571,354.628937 
	C1236.501831,353.916901 1093.537598,354.279755 950.575256,354.279175 
	C732.632690,354.278259 514.690063,354.273895 296.747498,354.318146 
	C294.322174,354.318634 291.551117,354.310730 289.531769,355.400574 
	C280.906372,360.055756 272.502960,365.122253 263.686951,370.054474 
	C262.236877,370.713501 261.118439,371.356750 260.000000,372.000000 
	C239.644028,372.000000 219.288040,372.000000 198.667343,371.642914 
	C203.275238,370.598297 208.147873,369.910736 212.979004,369.229065 
	C212.979004,349.090424 212.979004,329.642517 212.979004,310.150787 
	C203.101761,311.520721 193.452057,312.859100 183.279312,314.270020 
	C183.279312,315.964661 183.287369,317.754211 183.278061,319.543671 
	C183.187012,337.029114 183.093109,354.514557 183.000000,372.000000 
	C180.958328,372.000000 178.916672,372.000000 176.514496,371.536621 
	C176.154007,352.024750 176.154007,332.976227 176.154007,314.235931 
	C165.872543,312.570831 156.263809,311.014679 146.533096,309.438782 
	C146.533096,329.155701 146.533096,348.884003 146.533096,368.555115 
	C151.858902,369.741302 156.929443,370.870636 162.000000,372.000000 
M54.980923,216.138702 
	C48.536201,204.865173 42.187916,193.534592 35.577595,182.359009 
	C33.965771,179.634018 34.022984,177.861099 36.086426,175.408051 
	C42.369007,167.939209 48.368111,160.231903 55.137573,151.794846 
	C51.818645,151.794846 49.501102,152.118683 47.306183,151.737137 
	C39.084473,150.307907 33.516766,153.423264 29.390331,160.617447 
	C26.764679,165.195099 23.018780,169.130188 19.775208,173.353409 
	C19.423706,173.173630 19.072203,172.993866 18.720699,172.814102 
	C18.720699,165.881378 18.720699,158.948669 18.720699,152.074768 
	C13.699251,152.074768 9.095783,152.074768 4.411393,152.074768 
	C4.411393,174.371887 4.411393,196.388107 4.411393,218.415710 
	C9.434580,218.415710 14.024994,218.415710 18.333515,218.415710 
	C21.220900,209.721161 14.991082,199.688034 23.522026,191.921417 
	C27.871288,199.943207 31.960686,207.724319 36.333973,215.342484 
	C37.168827,216.796768 39.069450,218.462189 40.572231,218.558029 
	C45.361977,218.863434 50.195965,218.475006 55.913536,218.597336 
	C60.864170,218.597336 65.814804,218.597336 71.492172,218.597336 
	C71.492172,210.206650 71.492172,202.186203 71.492172,193.924194 
	C74.204124,193.924194 76.189423,193.917999 78.174660,193.925323 
	C85.286629,193.951508 86.586006,194.978012 87.546173,201.952194 
	C88.157669,206.393768 88.332947,210.897537 89.010742,215.326447 
	C89.195908,216.536377 90.425056,218.480927 91.286629,218.543106 
	C95.785721,218.867813 100.320740,218.694626 105.440392,218.694626 
	C99.583603,208.108231 105.527809,195.560196 96.831848,186.858414 
	C103.095024,180.066177 104.053009,172.348145 101.809021,164.224762 
	C100.063919,157.907349 96.024612,152.651764 89.238579,152.201294 
	C78.512688,151.489288 67.704849,152.011703 56.410965,152.011703 
	C56.410965,154.078323 56.411053,155.871414 56.410950,157.664505 
	C56.409908,175.805191 56.441998,193.946045 56.349678,212.086273 
	C56.341625,213.669296 55.515522,215.248138 54.980923,216.138702 
M895.155151,76.500061 
	C895.155151,67.095734 895.155151,57.691406 895.155151,48.131413 
	C883.375732,48.131413 872.381104,48.416939 861.413635,47.994499 
	C856.862732,47.819202 855.194214,49.364975 853.905762,53.514824 
	C847.054016,75.582512 839.879700,97.550049 832.583008,120.281349 
	C831.838684,118.384674 831.320862,117.204063 830.906372,115.988220 
	C823.661804,94.735237 816.466980,73.465126 809.119141,52.247993 
	C808.577332,50.683487 806.978882,48.335709 805.825989,48.308781 
	C793.540833,48.021843 781.246399,48.130569 768.726074,48.130569 
	C768.726074,87.732841 768.726074,126.953812 768.726074,166.270477 
	C778.272888,166.270477 787.510376,166.270477 797.220947,166.270477 
	C797.220947,144.689056 797.220947,123.414604 797.220947,102.140160 
	C798.219177,103.172180 798.627930,104.235718 799.002563,105.311150 
	C805.677917,124.469711 812.392395,143.614868 818.971802,162.806305 
	C819.899048,165.510849 821.035034,166.860580 824.184570,166.662125 
	C829.163574,166.348389 834.192078,166.341019 839.170166,166.660934 
	C842.493652,166.874496 843.740601,165.519424 844.738281,162.568924 
	C851.344177,143.033203 858.126648,123.557213 864.876648,104.070404 
	C865.188232,103.170998 865.738342,102.354210 866.177368,101.498947 
	C866.435608,101.592041 866.693909,101.685135 866.952148,101.778229 
	C866.952148,123.230347 866.952148,144.682465 866.952148,166.258636 
	C876.433838,166.258636 885.660461,166.258636 895.155090,166.258636 
	C895.155090,136.460190 895.155090,106.980125 895.155151,76.500061 
M1043.500122,197.752853 
	C1035.249756,197.752853 1026.999390,197.752853 1018.640503,197.752853 
	C1018.640503,237.479645 1018.640503,276.542969 1018.640503,315.824127 
	C1019.627808,315.915222 1020.418335,316.051453 1021.209045,316.051880 
	C1040.187744,316.061768 1059.169189,316.232666 1078.143433,315.938232 
	C1083.225830,315.859375 1088.439941,314.867920 1093.328369,313.407288 
	C1109.835693,308.474976 1118.597412,296.222778 1118.130493,279.186676 
	C1117.796631,267.006073 1112.984985,257.340576 1101.693359,251.687225 
	C1102.020142,251.154816 1102.130859,250.795685 1102.373779,250.604126 
	C1113.488281,241.843307 1114.751953,230.179810 1111.355591,217.675537 
	C1108.050049,205.505936 1098.526733,199.870895 1086.869995,198.917755 
	C1072.809082,197.768066 1058.628784,198.075897 1043.500122,197.752853 
M953.499695,166.575119 
	C963.647827,166.410492 973.857727,166.901581 983.931946,165.952332 
	C1009.252075,163.566544 1023.346191,143.901260 1017.037048,120.653458 
	C1014.740234,112.190155 1009.598022,106.019905 1003.044678,102.806145 
	C1006.239380,97.126274 1010.422974,92.231468 1011.888245,86.626068 
	C1017.160583,66.457535 1006.311096,50.856316 985.320923,49.136120 
	C969.437012,47.834396 953.400635,48.370731 937.431335,48.146038 
	C931.312195,48.059940 925.190735,48.132019 918.878418,48.132019 
	C918.878418,87.755562 918.878418,126.954926 918.878418,166.575089 
	C930.255920,166.575089 941.377747,166.575089 953.499695,166.575119 
M1292.061279,109.380493 
	C1291.945679,100.253471 1293.223267,91.394264 1297.993774,83.438591 
	C1303.969971,73.471748 1313.329468,70.596268 1324.218262,72.074478 
	C1333.725830,73.365189 1339.228760,79.274216 1341.342529,88.516022 
	C1341.517212,89.279686 1342.007202,89.971237 1342.279297,90.545609 
	C1351.665894,90.545609 1360.795654,90.545609 1370.374390,90.545609 
	C1369.725098,75.150597 1363.321289,63.135963 1350.852051,54.612049 
	C1323.581787,35.970394 1283.959839,45.924339 1269.386841,75.506844 
	C1258.908203,96.778038 1258.913696,118.670288 1269.576416,139.984131 
	C1280.286743,161.392807 1306.080566,173.533310 1329.347412,167.895935 
	C1336.497803,166.163437 1343.047485,161.951797 1349.834717,158.892303 
	C1350.253784,160.770248 1350.859131,163.483032 1351.472168,166.230011 
	C1358.392700,166.230011 1365.113403,166.230011 1371.824219,166.230011 
	C1371.824219,144.113663 1371.824219,122.348679 1371.824219,100.503098 
	C1354.233643,100.503098 1336.880737,100.503098 1319.541992,100.503098 
	C1319.541992,108.471863 1319.541992,116.064278 1319.541992,124.021034 
	C1327.743530,124.021034 1335.667603,124.021034 1343.639893,124.021034 
	C1342.045654,134.581528 1336.743774,140.398148 1327.088135,142.489197 
	C1315.333130,145.034912 1303.398438,141.356064 1298.632324,131.999802 
	C1295.256592,125.373146 1294.172852,117.578880 1292.061279,109.380493 
M547.738525,143.500076 
	C547.738525,136.550339 547.738525,129.600586 547.738525,122.433052 
	C556.331177,122.433052 564.324585,122.155762 572.289795,122.511528 
	C580.156067,122.862877 583.636292,125.974403 585.421753,133.754745 
	C586.310974,137.629776 586.499023,141.662659 587.067322,145.615082 
	C587.918274,151.532242 588.651672,157.476715 589.844421,163.326111 
	C590.102722,164.592743 592.072205,166.404541 593.295532,166.438217 
	C602.721497,166.697769 612.157898,166.581070 620.449219,166.581070 
	C618.946411,159.978226 617.224060,153.550430 616.087769,147.020630 
	C615.320679,142.612442 615.477722,138.051086 615.049133,133.574753 
	C614.161926,124.308739 611.220276,116.045998 603.956909,111.111153 
	C607.388855,106.340065 611.729797,102.122116 613.894470,96.986771 
	C624.216492,72.499435 608.321960,48.526016 581.711975,48.184761 
	C561.218079,47.921944 540.718140,48.128971 520.220886,48.151844 
	C519.452576,48.152702 518.684448,48.413807 517.990051,48.540203 
	C517.990051,87.914909 517.990051,127.027267 517.990051,166.252365 
	C527.963745,166.252365 537.695862,166.252365 547.738464,166.252365 
	C547.738464,158.785370 547.738464,151.642670 547.738525,143.500076 
M1239.281494,102.700249 
	C1254.493774,78.234665 1239.934692,49.244057 1211.446045,48.308266 
	C1189.984863,47.603310 1168.481201,48.191212 1146.996460,48.229614 
	C1146.729614,48.230087 1146.463257,48.574722 1146.117065,48.813587 
	C1146.117065,87.861298 1146.117065,126.958611 1146.117065,166.317383 
	C1156.038330,166.317383 1165.783203,166.317383 1175.956055,166.317383 
	C1175.956055,151.709854 1175.956055,137.297745 1175.956055,122.378334 
	C1182.163086,122.378334 1187.951538,122.378326 1193.739990,122.378334 
	C1210.057861,122.378349 1213.519409,125.545525 1214.963135,141.796875 
	C1215.036743,142.626297 1215.064209,143.461899 1215.180176,144.285172 
	C1216.060791,150.531845 1216.799316,156.806335 1217.975098,162.997498 
	C1218.231323,164.346008 1220.042236,166.390106 1221.185913,166.423096 
	C1230.748657,166.699142 1240.322754,166.580002 1249.607178,166.580002 
	C1247.960693,162.010803 1245.980835,157.976746 1245.112793,153.716141 
	C1244.156372,149.022858 1244.173462,144.124664 1243.851196,139.310059 
	C1243.107666,128.201309 1241.468994,117.483612 1232.757324,111.398369 
	C1234.843384,108.626717 1236.850342,105.959900 1239.281494,102.700249 
M1249.608398,316.056244 
	C1258.219360,316.056244 1266.830200,316.056244 1275.866699,316.056244 
	C1275.866699,308.298920 1275.866577,301.011169 1275.866577,293.723450 
	C1275.866577,286.475647 1275.866699,279.227844 1275.866699,271.974518 
	C1284.402954,271.974518 1292.227661,271.794037 1300.040039,272.024933 
	C1307.955444,272.258942 1311.553955,275.216736 1313.430664,282.891418 
	C1314.295288,286.426941 1314.507568,290.121063 1315.033936,293.740570 
	C1315.965332,300.145660 1316.780518,306.572937 1317.966431,312.930878 
	C1318.187866,314.118561 1319.897217,315.898743 1320.955933,315.924438 
	C1330.544312,316.157410 1340.140747,316.060913 1348.743652,316.060913 
	C1347.173340,309.750214 1345.385498,303.670898 1344.216675,297.474701 
	C1343.450806,293.414429 1343.592163,289.184387 1343.307129,285.031738 
	C1342.622925,275.063812 1339.899048,266.050049 1330.930176,259.752502 
	C1336.987549,255.806198 1340.964844,250.721329 1343.050293,244.148911 
	C1350.880737,219.470108 1335.215698,197.873825 1309.276733,197.772964 
	C1289.456787,197.695892 1269.636475,197.752609 1249.816284,197.771194 
	C1248.557617,197.772385 1247.299072,197.958893 1245.847778,198.074539 
	C1245.847778,215.379242 1245.847656,232.348663 1245.847900,249.318069 
	C1245.848267,270.137543 1245.830322,290.957062 1245.880615,311.776459 
	C1245.885132,313.648621 1244.763672,316.537262 1249.608398,316.056244 
M710.743652,166.358734 
	C727.155579,161.096054 738.547668,150.381760 744.955627,134.458191 
	C750.801819,119.930664 751.367920,104.949219 747.891296,89.803749 
	C742.353027,65.676575 723.784546,48.606270 700.489075,46.010014 
	C673.389832,42.989826 651.668335,53.990021 640.606018,76.348671 
	C634.515808,88.657860 632.971497,101.762192 634.035217,115.260399 
	C636.124512,141.772583 652.796448,161.916641 677.376831,167.568359 
	C688.294128,170.078506 699.201904,169.651443 710.743652,166.358734 
M1091.499756,166.581284 
	C1103.418701,166.581284 1115.337646,166.581284 1127.218994,166.581284 
	C1127.218994,157.485916 1127.218994,149.085587 1127.218994,140.290802 
	C1106.946533,140.290802 1087.035156,140.290802 1067.053589,140.290802 
	C1067.053589,132.670547 1067.053589,125.458023 1067.053589,117.862144 
	C1085.266968,117.862144 1103.170532,117.862144 1121.151611,117.862144 
	C1121.151611,109.526062 1121.151611,101.581413 1121.151611,93.062866 
	C1102.890625,93.062866 1084.861694,93.062866 1067.020752,93.062866 
	C1067.020752,86.544319 1067.020752,80.605743 1067.020752,74.174316 
	C1086.854370,74.174316 1106.413696,74.174316 1125.958008,74.174316 
	C1125.958008,65.267006 1125.958008,56.865067 1125.958008,48.430717 
	C1096.102783,48.430717 1066.540894,48.430717 1036.942383,48.430717 
	C1036.942383,87.855042 1036.942383,126.975006 1036.942383,166.581253 
	C1054.921265,166.581253 1072.710571,166.581253 1091.499756,166.581284 
M800.483826,315.033539 
	C800.483826,299.253571 800.483826,283.473633 800.483826,267.568451 
	C814.341370,267.568451 827.565002,267.568451 841.147705,267.568451 
	C841.147705,283.830902 841.147705,299.766968 841.147705,315.807678 
	C851.245605,315.807678 860.979492,315.807678 870.724854,315.807678 
	C870.724854,276.334473 870.724854,237.115494 870.724854,197.936066 
	C860.765015,197.936066 851.140442,197.936066 840.981201,197.936066 
	C840.981201,212.324997 840.981201,226.546326 840.981201,240.715485 
	C827.202454,240.715485 813.962769,240.715485 800.363403,240.715485 
	C800.363403,226.297546 800.363403,212.186310 800.363403,198.097214 
	C790.257690,198.097214 780.520996,198.097214 770.872314,198.097214 
	C770.872314,237.527939 770.872314,276.616882 770.872314,315.820129 
	C780.744629,315.820129 790.366089,315.820129 800.483826,315.033539 
M396.753998,68.500084 
	C396.753998,101.074165 396.753998,133.648239 396.753998,166.263260 
	C407.106598,166.263260 416.850067,166.263260 426.870331,166.263260 
	C426.870331,154.808777 426.820282,143.667496 426.923309,132.527618 
	C426.939117,130.818787 427.140564,128.665817 428.153961,127.495964 
	C431.151062,124.036087 434.597900,120.965767 438.116058,117.499519 
	C448.421997,132.891449 458.573639,147.881439 468.491943,163.024216 
	C470.273438,165.744110 472.103699,166.782379 475.329742,166.657990 
	C482.147614,166.395126 488.982666,166.577911 495.810669,166.577911 
	C499.813019,166.577896 503.815369,166.577911 508.614929,166.577911 
	C491.575409,142.451035 475.183472,119.241096 457.799957,94.627182 
	C473.656158,79.562859 489.512482,64.498451 505.368805,49.434044 
	C505.080872,48.999886 504.792938,48.565723 504.505035,48.131565 
	C493.427155,48.131565 482.344971,47.969444 471.274902,48.263908 
	C468.971100,48.325184 466.129211,49.506462 464.528259,51.142990 
	C454.867065,61.018589 445.496460,71.178429 436.024628,81.239349 
	C433.247314,84.189339 430.456848,87.126953 426.806488,90.985588 
	C426.806488,75.966980 426.806488,62.256977 426.806488,48.373276 
	C416.601440,48.373276 406.868683,48.373276 396.753998,48.373276 
	C396.753998,54.909267 396.753998,61.204777 396.753998,68.500084 
M547.807251,204.259583 
	C528.370483,217.766098 527.048462,251.846268 556.568115,262.349487 
	C561.572083,264.129913 566.697144,265.571777 571.772705,267.149292 
	C579.537415,269.562592 587.401672,271.699280 595.035339,274.471863 
	C598.755432,275.823029 601.342834,278.771362 601.030457,283.334137 
	C600.728516,287.743378 597.954590,290.199982 594.340881,291.915558 
	C577.705383,299.813110 561.455811,291.423828 558.821472,273.492126 
	C549.413391,273.492126 539.985474,273.492126 530.599548,273.492126 
	C528.045654,288.434174 535.957520,304.460602 550.615356,311.655151 
	C570.069702,321.204010 590.327332,321.528809 609.979736,312.518280 
	C623.941833,306.116638 630.507996,294.232758 630.286255,278.658508 
	C630.073792,263.737335 621.706238,254.699402 609.105591,248.759094 
	C605.387634,247.006287 601.267029,246.070114 597.283386,244.925491 
	C587.698853,242.171631 577.957031,239.895828 568.528320,236.692490 
	C561.783630,234.401031 561.011292,226.765320 566.907410,222.673340 
	C573.865173,217.844482 581.585022,219.008377 588.977051,221.442001 
	C595.204590,223.492233 597.112061,228.807648 597.304871,234.920959 
	C597.323486,235.511795 597.756042,236.089569 598.022766,236.737534 
	C602.844604,236.737534 607.503540,236.737518 612.162415,236.737518 
	C616.782898,236.737518 621.403320,236.737534 625.936829,236.737534 
	C628.384155,222.867737 621.729370,208.591034 608.332520,201.903442 
	C588.253967,191.880417 568.009399,191.828766 547.807251,204.259583 
M454.302521,253.905060 
	C457.228607,251.446472 460.407471,249.230530 463.039154,246.489304 
	C478.353119,230.537811 471.609283,204.270264 450.364716,198.429611 
	C444.130035,196.715546 437.066925,196.275299 430.669373,197.209274 
	C408.785858,200.403992 398.841736,222.512985 410.253601,241.454437 
	C411.587036,243.667694 413.008087,245.828171 414.259094,247.808304 
	C410.131866,250.862549 406.161133,253.358322 402.709991,256.436615 
	C391.668152,266.285614 388.353821,278.692871 392.389404,292.697937 
	C396.289917,306.234344 405.865173,314.166687 419.535248,316.999573 
	C435.158264,320.237122 449.265869,316.979797 462.131836,305.615631 
	C465.925293,318.195129 475.907959,316.203613 485.150330,316.061371 
	C487.481720,316.025482 489.814148,316.058746 492.146118,316.059082 
	C495.841187,316.059631 499.536224,316.059235 504.174072,316.059235 
	C495.261169,305.621307 487.170624,296.146423 479.063354,286.651978 
	C485.210632,277.406403 488.660919,267.520966 489.198669,256.368835 
	C480.986145,256.368835 473.061737,256.368835 464.991455,256.368835 
	C464.207275,259.729645 463.434906,263.039886 462.427307,267.358276 
	C459.214294,263.443390 456.559784,260.342621 454.096008,257.097015 
	C453.589386,256.429596 453.795349,255.221283 454.302521,253.905060 
M1136.622314,294.499695 
	C1136.622314,301.592102 1136.622314,308.684509 1136.622314,315.844482 
	C1167.132812,315.844482 1197.055420,315.844482 1227.177490,315.844482 
	C1227.177490,307.220276 1227.177490,298.807312 1227.177490,289.885193 
	C1206.967773,289.885193 1186.898315,289.885193 1166.955811,289.885193 
	C1166.955811,282.141357 1166.955811,274.912231 1166.955811,267.203278 
	C1185.229370,267.203278 1203.118774,267.203278 1220.899170,267.203278 
	C1220.899170,258.810730 1220.899170,250.920151 1220.899170,242.603729 
	C1202.656128,242.603729 1184.752930,242.603729 1166.751587,242.603729 
	C1166.751587,236.220718 1166.751587,230.276764 1166.751587,223.885788 
	C1186.506226,223.885788 1206.084717,223.885788 1225.787109,223.885788 
	C1225.787109,214.905472 1225.787109,206.377380 1225.787109,198.144775 
	C1195.859619,198.144775 1166.296753,198.144775 1136.622314,198.144775 
	C1136.622314,230.186523 1136.622314,261.843140 1136.622314,294.499695 
M965.421387,224.499771 
	C965.421387,235.327606 965.475098,246.155807 965.401917,256.983154 
	C965.355835,263.806030 965.451721,270.655701 964.877014,277.441956 
	C964.287354,284.404968 961.072021,289.728485 953.682495,291.673065 
	C934.949768,296.602661 924.084473,288.392273 924.066467,269.154419 
	C924.045898,247.165680 924.061218,225.176910 924.060913,203.188156 
	C924.060913,201.424164 924.060913,199.660172 924.060913,198.115295 
	C913.671448,198.115295 903.941833,198.115295 894.086304,198.115295 
	C894.086304,224.114639 893.574219,249.763641 894.236328,275.382324 
	C894.848022,299.048645 907.772583,313.366974 931.127747,317.415985 
	C937.617126,318.541016 944.426514,318.682739 951.015381,318.222137 
	C979.392273,316.238342 994.352722,301.454407 995.295166,273.153198 
	C996.115173,248.527969 995.512146,223.855255 995.506348,199.203522 
	C995.506226,198.788971 995.105469,198.374512 994.882141,197.941589 
	C985.171570,197.941589 975.548279,197.941589 965.421387,197.941589 
	C965.421387,206.581833 965.421387,215.040802 965.421387,224.499771 
M667.781311,309.805237 
	C684.587036,319.784210 702.311340,321.246002 720.621338,314.972809 
	C740.954224,308.006470 753.007202,285.256012 751.557739,267.367249 
	C742.120422,267.367249 732.682617,267.367249 723.268066,267.367249 
	C722.756226,270.048462 722.463806,272.548248 721.788818,274.940033 
	C719.493774,283.072418 715.215515,289.573456 706.484375,291.812195 
	C692.970581,295.277222 680.244080,289.009277 675.256531,276.006500 
	C670.081787,262.515656 670.472290,248.880524 676.248413,235.619568 
	C679.330688,228.543274 684.748840,223.791107 692.450073,221.998550 
	C698.808350,220.518616 704.976685,220.724274 710.866943,223.949982 
	C717.586426,227.629822 721.414062,233.290909 722.266541,240.779037 
	C732.182861,240.779037 741.636841,240.779037 751.298706,240.779037 
	C750.648926,230.498810 747.563965,221.380829 741.284485,213.402924 
	C720.039551,186.411850 672.143372,189.347397 652.560974,219.041061 
	C641.274292,236.155487 639.378845,255.051498 643.791626,274.677216 
	C647.053345,289.183929 654.489868,301.115234 667.781311,309.805237 
M1357.775024,223.868927 
	C1368.029175,223.868927 1378.283203,223.868927 1388.922241,223.868927 
	C1388.922241,254.894409 1388.922241,285.286469 1388.922241,315.853699 
	C1399.058350,315.853699 1408.796143,315.853699 1419.066406,315.853699 
	C1419.066406,285.125793 1419.066406,254.599197 1419.066406,223.690033 
	C1430.509155,223.690033 1441.423462,223.690033 1452.450928,223.690033 
	C1452.450928,214.893341 1452.450928,206.488632 1452.450928,197.975525 
	C1419.927734,197.975525 1387.689331,197.975525 1355.034302,197.975525 
	C1355.034302,206.140533 1354.994751,214.093765 1355.111694,222.044693 
	C1355.120850,222.659637 1356.229004,223.258423 1357.775024,223.868927 
M302.935516,325.451599 
	C309.086029,319.132172 315.395111,312.955078 321.281250,306.398346 
	C322.852753,304.647797 323.859650,301.744293 323.886841,299.356018 
	C324.097107,280.871277 324.009186,262.383087 323.991974,243.895981 
	C323.990631,242.453491 323.825134,241.011154 323.711823,239.178879 
	C315.429108,239.178879 307.461578,239.390121 299.513092,239.092499 
	C295.345856,238.936447 294.001617,240.307297 294.021057,244.457870 
	C294.153748,272.770844 294.089600,301.084778 294.094788,329.398376 
	C294.094940,330.160339 294.161652,330.922333 294.249786,332.803802 
	C297.447876,330.106995 299.927429,328.016113 302.935516,325.451599 
M35.677925,282.499451 
	C35.677223,287.325134 35.603046,292.152527 35.714275,296.975616 
	C35.755138,298.747772 35.650005,300.956604 36.605476,302.206268 
	C44.787624,312.907654 54.239216,322.383606 65.251968,331.251068 
	C65.251968,300.190948 65.251968,269.871765 65.251968,239.435822 
	C55.341534,239.435822 45.769344,239.435822 35.677711,239.435822 
	C35.677711,253.629745 35.677711,267.564728 35.677925,282.499451 
M304.510406,48.983269 
	C301.324402,46.237995 298.138397,43.492722 294.340637,40.220314 
	C294.340637,71.386993 294.340637,101.389496 294.340637,131.580048 
	C304.288208,131.580048 313.981659,131.580048 323.584290,131.580048 
	C323.769867,130.945572 323.938843,130.636215 323.939636,130.326416 
	C323.971100,117.852509 324.021362,105.378479 323.993256,92.904640 
	C323.975647,85.094963 326.188293,76.172310 323.152405,69.760269 
	C319.429230,61.896587 311.271271,56.132626 304.510406,48.983269 
M65.578972,61.500942 
	C65.578972,55.118851 65.578972,48.736759 65.578972,42.354668 
	C65.045158,42.089684 64.511345,41.824703 63.977531,41.559723 
	C55.383900,50.558147 46.670853,59.447990 38.302433,68.651199 
	C36.723347,70.387810 35.816986,73.362991 35.787449,75.781166 
	C35.577808,92.941566 35.669701,110.105751 35.691864,127.268707 
	C35.693714,128.702271 35.889187,130.135590 36.000603,131.649185 
	C45.946453,131.649185 55.519234,131.649185 65.579140,131.649185 
	C65.579140,108.423203 65.579140,85.461891 65.578972,61.500942 
M72.900452,36.303410 
	C72.900452,64.554298 72.900452,92.805191 72.900452,122.432259 
	C80.884216,109.211548 89.798210,98.779060 100.237823,89.574699 
	C101.674820,88.307747 102.467735,85.594910 102.484123,83.542885 
	C102.644958,63.406116 102.584427,43.267513 102.561371,23.129465 
	C102.559784,21.743502 102.354729,20.357771 102.131340,17.554426 
	C91.882881,23.982906 82.620857,29.792631 72.900452,36.303410 
M72.686790,286.499939 
	C72.684105,301.978333 72.639999,317.456970 72.738327,332.934723 
	C72.748978,334.610565 73.039452,337.115204 74.122772,337.822723 
	C83.080017,343.672852 92.254883,349.189789 102.014130,355.208618 
	C102.359138,353.211700 102.556221,352.601654 102.556694,351.991486 
	C102.573090,330.854401 102.629372,309.716827 102.458977,288.581116 
	C102.445534,286.914612 101.143692,284.977936 99.917305,283.650208 
	C94.506851,277.792572 88.680786,272.307129 83.447449,266.301544 
	C79.712578,262.015533 76.680595,257.117004 72.686981,251.595993 
	C72.686981,263.630371 72.686981,274.565155 72.686790,286.499939 
M156.733383,165.951050 
	C151.566696,155.393188 143.426437,149.234924 131.361069,150.323593 
	C119.057220,151.433777 112.212364,159.442047 108.735413,170.610291 
	C105.478638,181.071350 105.613281,191.626099 109.374741,201.957153 
	C113.567017,213.471481 122.601112,220.042831 133.691055,220.004791 
	C144.763428,219.966812 153.790009,213.310074 157.850967,201.753128 
	C161.979172,190.004837 161.690430,178.254837 156.733383,165.951050 
M265.898895,212.383331 
	C265.898895,214.331055 265.898895,216.278778 265.898895,218.303741 
	C271.161041,218.303741 275.866028,218.303741 281.065552,218.303741 
	C281.065552,209.147690 281.065552,200.406662 281.065552,191.778137 
	C286.952271,191.778137 292.320374,191.778137 298.187805,191.778137 
	C298.187805,200.968185 298.187805,209.705688 298.187805,218.363846 
	C303.287598,218.363846 307.861328,218.363846 312.544037,218.363846 
	C312.544037,196.089737 312.544037,174.177017 312.544037,152.173828 
	C307.549469,152.173828 302.845612,152.173828 297.655304,152.173828 
	C297.655304,160.294586 297.655304,168.040115 297.655304,175.761658 
	C291.879913,175.761658 286.602905,175.761658 280.820740,175.761658 
	C280.820740,167.799942 280.820740,160.059250 280.820740,152.143280 
	C275.604614,152.143280 270.903198,152.143280 265.899475,152.143280 
	C265.899475,172.132339 265.899475,191.770157 265.898895,212.383331 
M287.004425,64.500000 
	C287.004395,55.833416 287.065735,47.165985 286.946350,38.501041 
	C286.925476,36.984104 286.629730,34.712605 285.639923,34.085655 
	C276.587646,28.351715 267.353760,22.904434 257.178162,16.774225 
	C257.178162,36.912598 257.569977,55.376896 256.999756,73.811440 
	C256.744904,82.051544 258.064636,88.414688 265.394043,93.329865 
	C269.581268,96.137863 272.814972,100.479263 276.159790,104.401604 
	C279.754059,108.616455 282.975708,113.149094 287.004333,118.379692 
	C287.004333,100.045433 287.004333,82.772713 287.004425,64.500000 
M269.774933,276.278503 
	C266.585449,279.207733 263.152618,281.922272 260.303497,285.151794 
	C258.750397,286.912262 257.358429,289.529510 257.313416,291.788696 
	C257.041046,305.447327 257.178741,319.114136 257.179138,332.778229 
	C257.179321,340.045166 257.179169,347.312103 257.179169,356.045380 
	C266.549591,350.561584 274.923737,345.593170 283.372559,340.755096 
	C286.122192,339.180603 287.115021,337.198792 287.093750,333.919586 
	C286.932800,309.091980 287.009430,284.262909 286.991241,259.434265 
	C286.990387,258.253265 286.794525,257.072357 286.706055,256.077667 
	C281.137054,262.753052 275.706085,269.262970 269.774933,276.278503 
M172.152359,187.462952 
	C174.899124,188.638748 177.617126,189.888489 180.400024,190.971405 
	C183.802536,192.295441 187.486969,193.085861 190.600266,194.884583 
	C192.242661,195.833466 193.946625,198.542999 193.764816,200.260971 
	C193.580170,202.005585 191.337906,204.481049 189.587311,204.891922 
	C186.874786,205.528549 182.959076,205.734619 181.102783,204.222000 
	C178.323837,201.957504 176.888763,198.043839 174.599625,194.379410 
	C171.191818,194.379410 166.626633,194.379410 162.106613,194.379410 
	C161.203125,212.041595 173.856750,222.890686 191.098709,219.641174 
	C201.609894,217.660187 208.049316,210.339554 208.706467,199.623917 
	C209.369629,188.810349 204.004120,181.385208 193.263168,178.102737 
	C189.290833,176.888779 185.224518,175.805084 181.505310,174.025970 
	C179.987717,173.300049 178.123291,170.557022 178.476044,169.318069 
	C178.981461,167.543030 181.166794,165.438675 182.999786,165.000122 
	C188.586563,163.663361 190.985077,166.017624 192.979523,173.933899 
	C197.477020,173.933899 202.038116,173.933899 206.570663,173.933899 
	C207.689758,162.815811 202.235001,154.067688 192.629517,151.253754 
	C181.494324,147.991669 170.523575,152.039566 165.883667,161.122192 
	C161.167374,170.354324 163.406433,180.613113 172.152359,187.462952 
M366.489777,197.845062 
	C366.489777,182.594330 366.489777,167.343597 366.489777,152.041779 
	C361.502808,152.041779 356.899750,152.041779 351.795685,152.041779 
	C351.795685,165.398041 351.832397,178.510971 351.763184,191.623337 
	C351.750122,194.101257 351.452820,196.599777 351.044342,199.048355 
	C350.435577,202.697296 347.943512,204.365219 344.431396,204.755066 
	C337.901398,205.479889 334.366669,201.897263 334.252533,193.802246 
	C334.081146,181.642838 334.203491,169.479309 334.201050,157.317520 
	C334.200684,155.563538 334.200989,153.809570 334.200989,152.115784 
	C328.883789,152.115784 324.302948,152.115784 319.947876,152.115784 
	C319.947876,168.548889 319.419678,184.681961 320.152344,200.757553 
	C320.570251,209.927078 326.020050,216.537415 335.342377,219.086823 
	C351.500702,223.505722 363.964630,215.294815 366.489777,197.845062 
M228.810898,200.583221 
	C223.618942,191.725677 223.886978,182.456848 227.054214,173.121872 
	C228.620132,168.506485 231.841202,165.464920 237.111298,165.696991 
	C242.191895,165.920731 244.639603,169.216812 246.154037,173.674362 
	C246.548218,174.834579 247.717941,176.505676 248.639404,176.578644 
	C252.672119,176.897949 256.744507,176.716095 260.791473,176.716095 
	C260.591705,163.073013 253.297607,153.276764 242.099091,150.798477 
	C230.598495,148.253357 219.661011,153.694977 214.283234,165.180054 
	C208.568359,177.385086 208.377258,190.012955 213.053558,202.583572 
	C217.848587,215.473389 230.029816,222.375946 242.273102,219.505508 
	C253.927292,216.773163 261.940796,204.607864 260.872375,190.967072 
	C256.325684,190.967072 251.758148,190.967072 247.255188,190.967072 
	C244.072617,205.225677 237.907425,208.642181 228.810898,200.583221 
M139.319733,28.500097 
	C139.319733,21.054443 139.319733,13.608791 139.319733,5.066918 
	C130.164032,8.102238 121.881874,10.975389 113.510529,13.559608 
	C110.229111,14.572574 109.307251,16.322960 109.336754,19.696581 
	C109.507050,39.168262 109.413101,58.642208 109.435028,78.115356 
	C109.436409,79.340775 109.661018,80.565941 109.739174,81.358940 
	C118.438324,77.040848 126.795906,72.614388 135.410202,68.761978 
	C138.569443,67.349129 139.453033,65.715591 139.395157,62.453396 
	C139.200378,51.471977 139.320740,40.484966 139.319733,28.500097 
M126.567589,363.953796 
	C130.626511,365.076172 134.685425,366.198547 139.312622,367.478027 
	C139.312622,347.273285 139.333679,328.011322 139.248459,308.749847 
	C139.244339,307.817719 138.540802,306.417786 137.766205,306.031677 
	C128.501450,301.413757 119.161522,296.946625 109.425919,292.239258 
	C109.425919,293.783722 109.426201,295.400330 109.425873,297.016937 
	C109.422882,311.651123 109.365959,326.285583 109.444054,340.919342 
	C109.473946,346.519714 107.837837,353.543182 110.562569,357.319336 
	C113.318695,361.139069 120.531273,361.743195 126.567589,363.953796 
M232.928711,8.503355 
	C228.849319,7.476773 224.769943,6.450192 220.180161,5.295169 
	C220.180161,22.376434 220.763550,38.554638 219.944077,54.661465 
	C219.507706,63.238415 221.608765,67.799286 230.209747,70.372757 
	C237.025055,72.411942 243.159256,76.727448 250.100433,80.291214 
	C250.100433,63.340431 250.171829,46.885822 250.059784,30.432455 
	C250.023056,25.036308 251.409683,18.177151 248.690186,14.654356 
	C245.874619,11.007081 238.864868,10.597562 232.928711,8.503355 
M220.180115,333.499969 
	C220.180115,344.755920 220.180115,356.011871 220.180115,368.304688 
	C229.464630,365.336243 237.940109,362.529327 246.483932,359.948639 
	C249.391403,359.070465 250.184891,357.490967 250.165344,354.548157 
	C250.038300,335.419373 250.103119,316.289276 250.105072,297.159637 
	C250.105209,295.929077 250.105103,294.698486 250.105103,293.766998 
	C240.528763,298.192780 231.342224,302.341400 222.284393,306.754181 
	C221.218781,307.273315 220.301483,309.229767 220.267075,310.544830 
	C220.075790,317.858978 220.178268,325.180756 220.180115,333.499969 
M356.538544,242.800980 
	C356.705902,241.704865 356.873260,240.608749 357.050140,239.450424 
	C348.302765,239.450424 339.874329,239.450424 331.421204,239.450424 
	C331.421204,257.325928 331.421204,274.918030 331.421204,293.455811 
	C342.535675,277.467010 350.667389,261.162201 356.538544,242.800980 
M347.126617,106.371719 
	C342.207489,97.569679 337.288361,88.767632 332.369232,79.965591 
	C332.001984,80.213753 331.634766,80.461914 331.267517,80.710075 
	C331.267517,97.634018 331.267517,114.557968 331.267517,131.581161 
	C339.890717,131.581161 348.226990,131.581161 357.457214,131.581161 
	C353.959747,123.005783 350.705719,115.027290 347.126617,106.371719 
M6.931549,239.156219 
	C6.005660,239.243027 5.079772,239.329849 3.742512,239.455231 
	C9.344798,257.946838 17.113331,274.856750 28.468683,291.253113 
	C28.468683,273.206055 28.468683,256.444519 28.468683,239.156097 
	C21.411413,239.156097 14.629820,239.156097 6.931549,239.156219 
M13.426285,107.918488 
	C10.314837,115.699989 7.203391,123.481499 3.963744,131.583618 
	C12.880198,131.583618 20.617434,131.583618 28.383934,131.583618 
	C28.383934,115.090866 28.383934,98.944580 28.383934,82.798286 
	C28.009199,82.659721 27.634462,82.521149 27.259727,82.382584 
	C22.766270,90.672852 18.272814,98.963120 13.426285,107.918488 
z"/>
<path fill="#5F1F97" opacity="1.000000" stroke="none" 
	d="
M264.018555,370.038696 
	C272.502960,365.122253 280.906372,360.055756 289.531769,355.400574 
	C291.551117,354.310730 294.322174,354.318634 296.747498,354.318146 
	C514.690063,354.273895 732.632690,354.278259 950.575256,354.279175 
	C1093.537598,354.279755 1236.501831,353.916901 1379.460571,354.628937 
	C1404.021973,354.751282 1427.828125,353.159790 1450.231567,343.369354 
	C1512.840698,316.008789 1547.728638,267.698456 1554.132935,199.852142 
	C1561.150635,125.508888 1516.853638,55.073902 1447.774292,28.518326 
	C1429.568237,21.519558 1410.691406,17.899826 1391.153687,17.906837 
	C1389.496094,17.907431 1387.838379,17.906916 1385.357178,17.906916 
	C1385.357178,12.416677 1385.357178,7.146399 1385.178589,1.438061 
	C1392.020996,1.000000 1399.041870,1.000000 1406.751221,1.348650 
	C1490.970215,11.581366 1554.252808,71.188942 1569.296021,154.136322 
	C1570.136230,158.768631 1571.095825,163.379288 1572.000000,168.000000 
	C1572.000000,180.020889 1572.000000,192.041794 1571.652588,204.745087 
	C1570.882202,208.392548 1570.435791,211.354446 1570.040161,214.323151 
	C1560.251831,287.765900 1503.832642,350.141022 1431.704224,367.111023 
	C1423.538086,369.032349 1415.238037,370.384155 1407.000000,372.000031 
	C1403.969360,372.000000 1400.938843,372.000000 1397.195312,371.681183 
	C1394.670288,371.242188 1392.857910,371.017883 1391.045654,371.017059 
	C1347.217163,370.997528 1303.388672,371.001801 1259.560181,371.001801 
	C929.763306,371.001801 599.966431,371.003601 270.169586,370.962067 
	C268.119202,370.961823 266.068909,370.359741 264.018555,370.038696 
z"/>
<path fill="#FEFEFE" opacity="1.000000" stroke="none" 
	d="
M1407.468628,372.000031 
	C1415.238037,370.384155 1423.538086,369.032349 1431.704224,367.111023 
	C1503.832642,350.141022 1560.251831,287.765900 1570.040161,214.323151 
	C1570.435791,211.354446 1570.882202,208.392548 1571.652588,205.213745 
	C1572.000000,260.593231 1572.000000,316.186493 1572.000000,372.000000 
	C1517.312622,372.000000 1462.624878,372.000000 1407.468628,372.000031 
z"/>
<path fill="#FEFEFE" opacity="1.000000" stroke="none" 
	d="
M1572.000000,167.531342 
	C1571.095825,163.379288 1570.136230,158.768631 1569.296021,154.136322 
	C1554.252808,71.188942 1490.970215,11.581366 1407.219727,1.348650 
	C1461.927490,1.000000 1516.854858,1.000000 1572.000000,1.000000 
	C1572.000000,56.354038 1572.000000,111.708359 1572.000000,167.531342 
z"/>
<path fill="#5F1E97" opacity="1.000000" stroke="none" 
	d="
M175.536819,1.000000 
	C176.000000,20.437265 176.000000,39.874531 176.000000,59.370026 
	C166.352692,60.925591 156.763229,62.471828 146.738617,64.088234 
	C146.738617,44.375927 146.738617,24.552654 146.738617,4.078205 
	C151.860931,3.306398 157.215714,2.499563 162.785248,1.346364 
	C167.024551,1.000000 171.049088,1.000000 175.536819,1.000000 
z"/>
<path fill="#5F1E96" opacity="1.000000" stroke="none" 
	d="
M196.535355,1.000000 
	C202.282883,1.992219 207.565750,2.984437 213.001221,4.005313 
	C213.001221,23.970884 213.001221,43.727848 213.001221,63.500660 
	C203.177917,62.111729 193.550751,60.750530 183.247070,59.293678 
	C183.247070,40.430290 183.247070,21.170065 183.123535,1.454919 
	C187.356903,1.000000 191.713806,1.000000 196.535355,1.000000 
z"/>
<path fill="#5F1E97" opacity="1.000000" stroke="none" 
	d="
M162.464645,372.000000 
	C156.929443,370.870636 151.858902,369.741302 146.533096,368.555115 
	C146.533096,348.884003 146.533096,329.155701 146.533096,309.438782 
	C156.263809,311.014679 165.872543,312.570831 176.154007,314.235931 
	C176.154007,332.976227 176.154007,352.024750 176.076996,371.536621 
	C171.643097,372.000000 167.286194,372.000000 162.464645,372.000000 
z"/>
<path fill="#5F1E96" opacity="1.000000" stroke="none" 
	d="
M183.466125,372.000000 
	C183.093109,354.514557 183.187012,337.029114 183.278061,319.543671 
	C183.287369,317.754211 183.279312,315.964661 183.279312,314.270020 
	C193.452057,312.859100 203.101761,311.520721 212.979004,310.150787 
	C212.979004,329.642517 212.979004,349.090424 212.979004,369.229065 
	C208.147873,369.910736 203.275238,370.598297 198.201309,371.642914 
	C193.310745,372.000000 188.621490,372.000000 183.466125,372.000000 
z"/>
<path fill="#65299A" opacity="1.000000" stroke="none" 
	d="
M263.686951,370.054474 
	C266.068909,370.359741 268.119202,370.961823 270.169586,370.962067 
	C599.966431,371.003601 929.763306,371.001801 1259.560181,371.001801 
	C1303.388672,371.001801 1347.217163,370.997528 1391.045654,371.017059 
	C1392.857910,371.017883 1394.670288,371.242188 1396.741211,371.681183 
	C1018.309265,372.000000 639.618530,372.000000 260.463867,372.000000 
	C261.118439,371.356750 262.236877,370.713501 263.686951,370.054474 
z"/>
<path fill="#030303" opacity="1.000000" stroke="none" 
	d="
M895.155151,77.000061 
	C895.155090,106.980125 895.155090,136.460190 895.155090,166.258636 
	C885.660461,166.258636 876.433838,166.258636 866.952148,166.258636 
	C866.952148,144.682465 866.952148,123.230347 866.952148,101.778229 
	C866.693909,101.685135 866.435608,101.592041 866.177368,101.498947 
	C865.738342,102.354210 865.188232,103.170998 864.876648,104.070404 
	C858.126648,123.557213 851.344177,143.033203 844.738281,162.568924 
	C843.740601,165.519424 842.493652,166.874496 839.170166,166.660934 
	C834.192078,166.341019 829.163574,166.348389 824.184570,166.662125 
	C821.035034,166.860580 819.899048,165.510849 818.971802,162.806305 
	C812.392395,143.614868 805.677917,124.469711 799.002563,105.311150 
	C798.627930,104.235718 798.219177,103.172180 797.220947,102.140160 
	C797.220947,123.414604 797.220947,144.689056 797.220947,166.270477 
	C787.510376,166.270477 778.272888,166.270477 768.726074,166.270477 
	C768.726074,126.953812 768.726074,87.732841 768.726074,48.130569 
	C781.246399,48.130569 793.540833,48.021843 805.825989,48.308781 
	C806.978882,48.335709 808.577332,50.683487 809.119141,52.247993 
	C816.466980,73.465126 823.661804,94.735237 830.906372,115.988220 
	C831.320862,117.204063 831.838684,118.384674 832.583008,120.281349 
	C839.879700,97.550049 847.054016,75.582512 853.905762,53.514824 
	C855.194214,49.364975 856.862732,47.819202 861.413635,47.994499 
	C872.381104,48.416939 883.375732,48.131413 895.155151,48.131413 
	C895.155151,57.691406 895.155151,67.095734 895.155151,77.000061 
z"/>
<path fill="#040404" opacity="1.000000" stroke="none" 
	d="
M1044.000244,197.752838 
	C1058.628784,198.075897 1072.809082,197.768066 1086.869995,198.917755 
	C1098.526733,199.870895 1108.050049,205.505936 1111.355591,217.675537 
	C1114.751953,230.179810 1113.488281,241.843307 1102.373779,250.604126 
	C1102.130859,250.795685 1102.020142,251.154816 1101.693359,251.687225 
	C1112.984985,257.340576 1117.796631,267.006073 1118.130493,279.186676 
	C1118.597412,296.222778 1109.835693,308.474976 1093.328369,313.407288 
	C1088.439941,314.867920 1083.225830,315.859375 1078.143433,315.938232 
	C1059.169189,316.232666 1040.187744,316.061768 1021.209045,316.051880 
	C1020.418335,316.051453 1019.627808,315.915222 1018.640503,315.824127 
	C1018.640503,276.542969 1018.640503,237.479645 1018.640503,197.752853 
	C1026.999390,197.752853 1035.249756,197.752853 1044.000244,197.752838 
M1083.269165,289.012482 
	C1088.904541,285.590332 1088.532104,280.186493 1087.706909,274.827087 
	C1086.914673,269.680176 1083.125244,266.650177 1078.447510,266.394714 
	C1068.575684,265.855591 1058.654053,266.230682 1048.696655,266.230682 
	C1048.696655,274.602661 1048.696655,282.825256 1048.696655,291.431305 
	C1055.481567,291.431305 1061.959106,291.687836 1068.405029,291.346130 
	C1073.145996,291.094818 1077.845703,290.060699 1083.269165,289.012482 
M1054.699951,222.228058 
	C1052.761353,222.228058 1050.822754,222.228058 1048.625244,222.228058 
	C1048.625244,229.452530 1048.625244,236.172440 1048.625244,243.050903 
	C1057.553833,243.050903 1066.326294,243.511368 1075.022461,242.894989 
	C1081.200684,242.457077 1084.149170,237.813721 1083.591675,231.632797 
	C1083.083496,225.999557 1079.637817,222.860123 1072.582153,222.395935 
	C1066.960205,222.026062 1061.298462,222.261765 1054.699951,222.228058 
z"/>
<path fill="#030303" opacity="1.000000" stroke="none" 
	d="
M952.999634,166.575104 
	C941.377747,166.575089 930.255920,166.575089 918.878418,166.575089 
	C918.878418,126.954926 918.878418,87.755562 918.878418,48.132019 
	C925.190735,48.132019 931.312195,48.059940 937.431335,48.146038 
	C953.400635,48.370731 969.437012,47.834396 985.320923,49.136120 
	C1006.311096,50.856316 1017.160583,66.457535 1011.888245,86.626068 
	C1010.422974,92.231468 1006.239380,97.126274 1003.044678,102.806145 
	C1009.598022,106.019905 1014.740234,112.190155 1017.037048,120.653458 
	C1023.346191,143.901260 1009.252075,163.566544 983.931946,165.952332 
	C973.857727,166.901581 963.647827,166.410492 952.999634,166.575104 
M948.733459,131.491104 
	C948.733459,134.912872 948.733459,138.334625 948.733459,141.751968 
	C958.433533,141.751968 967.572266,142.212341 976.641113,141.613907 
	C984.647034,141.085602 988.136169,137.015244 988.274231,130.044418 
	C988.437622,121.794899 985.197998,117.252342 976.890503,116.606354 
	C967.693542,115.891212 958.398071,116.442879 948.732849,116.442879 
	C948.732849,121.255630 948.732849,125.874870 948.733459,131.491104 
M948.747986,92.331169 
	C949.079773,92.850441 949.414001,93.824387 949.742981,93.822609 
	C958.377930,93.776024 967.062622,94.148613 975.629395,93.319275 
	C981.557861,92.745338 984.019226,88.605423 983.757446,82.653976 
	C983.528259,77.444115 980.710144,73.673599 975.189697,73.337265 
	C966.476074,72.806389 957.706421,73.195999 948.730225,73.195999 
	C948.730225,79.423271 948.730225,85.390717 948.747986,92.331169 
z"/>
<path fill="#030303" opacity="1.000000" stroke="none" 
	d="
M1292.063721,109.843147 
	C1294.172852,117.578880 1295.256592,125.373146 1298.632324,131.999802 
	C1303.398438,141.356064 1315.333130,145.034912 1327.088135,142.489197 
	C1336.743774,140.398148 1342.045654,134.581528 1343.639893,124.021034 
	C1335.667603,124.021034 1327.743530,124.021034 1319.541992,124.021034 
	C1319.541992,116.064278 1319.541992,108.471863 1319.541992,100.503098 
	C1336.880737,100.503098 1354.233643,100.503098 1371.824219,100.503098 
	C1371.824219,122.348679 1371.824219,144.113663 1371.824219,166.230011 
	C1365.113403,166.230011 1358.392700,166.230011 1351.472168,166.230011 
	C1350.859131,163.483032 1350.253784,160.770248 1349.834717,158.892303 
	C1343.047485,161.951797 1336.497803,166.163437 1329.347412,167.895935 
	C1306.080566,173.533310 1280.286743,161.392807 1269.576416,139.984131 
	C1258.913696,118.670288 1258.908203,96.778038 1269.386841,75.506844 
	C1283.959839,45.924339 1323.581787,35.970394 1350.852051,54.612049 
	C1363.321289,63.135963 1369.725098,75.150597 1370.374390,90.545609 
	C1360.795654,90.545609 1351.665894,90.545609 1342.279297,90.545609 
	C1342.007202,89.971237 1341.517212,89.279686 1341.342529,88.516022 
	C1339.228760,79.274216 1333.725830,73.365189 1324.218262,72.074478 
	C1313.329468,70.596268 1303.969971,73.471748 1297.993774,83.438591 
	C1293.223267,91.394264 1291.945679,100.253471 1292.063721,109.843147 
z"/>
<path fill="#040404" opacity="1.000000" stroke="none" 
	d="
M547.738525,144.000031 
	C547.738464,151.642670 547.738464,158.785370 547.738464,166.252365 
	C537.695862,166.252365 527.963745,166.252365 517.990051,166.252365 
	C517.990051,127.027267 517.990051,87.914909 517.990051,48.540203 
	C518.684448,48.413807 519.452576,48.152702 520.220886,48.151844 
	C540.718140,48.128971 561.218079,47.921944 581.711975,48.184761 
	C608.321960,48.526016 624.216492,72.499435 613.894470,96.986771 
	C611.729797,102.122116 607.388855,106.340065 603.956909,111.111153 
	C611.220276,116.045998 614.161926,124.308739 615.049133,133.574753 
	C615.477722,138.051086 615.320679,142.612442 616.087769,147.020630 
	C617.224060,153.550430 618.946411,159.978226 620.449219,166.581070 
	C612.157898,166.581070 602.721497,166.697769 593.295532,166.438217 
	C592.072205,166.404541 590.102722,164.592743 589.844421,163.326111 
	C588.651672,157.476715 587.918274,151.532242 587.067322,145.615082 
	C586.499023,141.662659 586.310974,137.629776 585.421753,133.754745 
	C583.636292,125.974403 580.156067,122.862877 572.289795,122.511528 
	C564.324585,122.155762 556.331177,122.433052 547.738525,122.433052 
	C547.738525,129.600586 547.738525,136.550339 547.738525,144.000031 
M584.554626,77.130791 
	C582.125244,75.812515 579.742493,73.469765 577.258301,73.356819 
	C567.528198,72.914406 557.766052,73.175964 548.028748,73.175964 
	C548.028748,81.997765 548.028748,90.560394 548.028748,99.182945 
	C557.271729,99.182945 566.236145,99.487778 575.169434,99.091515 
	C583.055237,98.741707 586.580688,94.891518 586.676025,86.969452 
	C586.712646,83.919899 585.568359,80.856148 584.554626,77.130791 
z"/>
<path fill="#030303" opacity="1.000000" stroke="none" 
	d="
M1239.069458,102.996658 
	C1236.850342,105.959900 1234.843384,108.626717 1232.757324,111.398369 
	C1241.468994,117.483612 1243.107666,128.201309 1243.851196,139.310059 
	C1244.173462,144.124664 1244.156372,149.022858 1245.112793,153.716141 
	C1245.980835,157.976746 1247.960693,162.010803 1249.607178,166.580002 
	C1240.322754,166.580002 1230.748657,166.699142 1221.185913,166.423096 
	C1220.042236,166.390106 1218.231323,164.346008 1217.975098,162.997498 
	C1216.799316,156.806335 1216.060791,150.531845 1215.180176,144.285172 
	C1215.064209,143.461899 1215.036743,142.626297 1214.963135,141.796875 
	C1213.519409,125.545525 1210.057861,122.378349 1193.739990,122.378334 
	C1187.951538,122.378326 1182.163086,122.378334 1175.956055,122.378334 
	C1175.956055,137.297745 1175.956055,151.709854 1175.956055,166.317383 
	C1165.783203,166.317383 1156.038330,166.317383 1146.117065,166.317383 
	C1146.117065,126.958611 1146.117065,87.861298 1146.117065,48.813587 
	C1146.463257,48.574722 1146.729614,48.230087 1146.996460,48.229614 
	C1168.481201,48.191212 1189.984863,47.603310 1211.446045,48.308266 
	C1239.934692,49.244057 1254.493774,78.234665 1239.069458,102.996658 
M1175.982300,97.423149 
	C1176.508911,98.083122 1177.038940,99.320580 1177.561523,99.317360 
	C1187.024536,99.259216 1196.520508,99.476448 1205.936768,98.724991 
	C1212.111572,98.232216 1214.864868,93.732300 1215.001099,86.445389 
	C1215.145874,78.701538 1212.627930,73.978378 1206.271118,73.515160 
	C1196.283936,72.787407 1186.204834,73.321899 1175.978516,73.321899 
	C1175.978516,81.177055 1175.978516,88.805252 1175.982300,97.423149 
z"/>
<path fill="#020202" opacity="1.000000" stroke="none" 
	d="
M1249.118164,316.056152 
	C1244.763672,316.537262 1245.885132,313.648621 1245.880615,311.776459 
	C1245.830322,290.957062 1245.848267,270.137543 1245.847900,249.318069 
	C1245.847656,232.348663 1245.847778,215.379242 1245.847778,198.074539 
	C1247.299072,197.958893 1248.557617,197.772385 1249.816284,197.771194 
	C1269.636475,197.752609 1289.456787,197.695892 1309.276733,197.772964 
	C1335.215698,197.873825 1350.880737,219.470108 1343.050293,244.148911 
	C1340.964844,250.721329 1336.987549,255.806198 1330.930176,259.752502 
	C1339.899048,266.050049 1342.622925,275.063812 1343.307129,285.031738 
	C1343.592163,289.184387 1343.450806,293.414429 1344.216675,297.474701 
	C1345.385498,303.670898 1347.173340,309.750214 1348.743652,316.060913 
	C1340.140747,316.060913 1330.544312,316.157410 1320.955933,315.924438 
	C1319.897217,315.898743 1318.187866,314.118561 1317.966431,312.930878 
	C1316.780518,306.572937 1315.965332,300.145660 1315.033936,293.740570 
	C1314.507568,290.121063 1314.295288,286.426941 1313.430664,282.891418 
	C1311.553955,275.216736 1307.955444,272.258942 1300.040039,272.024933 
	C1292.227661,271.794037 1284.402954,271.974518 1275.866699,271.974518 
	C1275.866699,279.227844 1275.866577,286.475647 1275.866577,293.723450 
	C1275.866577,301.011169 1275.866699,308.298920 1275.866699,316.056244 
	C1266.830200,316.056244 1258.219360,316.056244 1249.118164,316.056152 
M1291.495117,248.860489 
	C1295.313110,248.846283 1299.145386,249.038223 1302.946167,248.775391 
	C1311.105469,248.211182 1314.729492,244.164291 1314.861328,235.854935 
	C1314.997437,227.271362 1311.845337,222.986603 1303.618042,222.488556 
	C1294.563354,221.940430 1285.449951,222.363541 1276.231689,222.363541 
	C1276.231689,231.326645 1276.231689,239.980179 1276.231689,248.860489 
	C1281.240112,248.860489 1285.869995,248.860489 1291.495117,248.860489 
z"/>
<path fill="#020202" opacity="1.000000" stroke="none" 
	d="
M710.374390,166.518494 
	C699.201904,169.651443 688.294128,170.078506 677.376831,167.568359 
	C652.796448,161.916641 636.124512,141.772583 634.035217,115.260399 
	C632.971497,101.762192 634.515808,88.657860 640.606018,76.348671 
	C651.668335,53.990021 673.389832,42.989826 700.489075,46.010014 
	C723.784546,48.606270 742.353027,65.676575 747.891296,89.803749 
	C751.367920,104.949219 750.801819,119.930664 744.955627,134.458191 
	C738.547668,150.381760 727.155579,161.096054 710.374390,166.518494 
M716.410828,88.247826 
	C711.738770,77.007553 703.379211,71.497185 691.146790,71.711273 
	C679.507690,71.914970 671.443542,77.420387 667.393677,88.158058 
	C662.394348,101.413094 662.203918,114.853149 667.954895,128.002197 
	C672.238342,137.795883 679.978455,142.686508 690.658813,143.038025 
	C701.653076,143.399826 710.175598,139.231918 715.131042,129.202118 
	C721.608765,116.091278 721.150696,102.564041 716.410828,88.247826 
z"/>
<path fill="#040404" opacity="1.000000" stroke="none" 
	d="
M1090.999756,166.581268 
	C1072.710571,166.581253 1054.921265,166.581253 1036.942383,166.581253 
	C1036.942383,126.975006 1036.942383,87.855042 1036.942383,48.430717 
	C1066.540894,48.430717 1096.102783,48.430717 1125.958008,48.430717 
	C1125.958008,56.865067 1125.958008,65.267006 1125.958008,74.174316 
	C1106.413696,74.174316 1086.854370,74.174316 1067.020752,74.174316 
	C1067.020752,80.605743 1067.020752,86.544319 1067.020752,93.062866 
	C1084.861694,93.062866 1102.890625,93.062866 1121.151611,93.062866 
	C1121.151611,101.581413 1121.151611,109.526062 1121.151611,117.862144 
	C1103.170532,117.862144 1085.266968,117.862144 1067.053589,117.862144 
	C1067.053589,125.458023 1067.053589,132.670547 1067.053589,140.290802 
	C1087.035156,140.290802 1106.946533,140.290802 1127.218994,140.290802 
	C1127.218994,149.085587 1127.218994,157.485916 1127.218994,166.581284 
	C1115.337646,166.581284 1103.418701,166.581284 1090.999756,166.581268 
z"/>
<path fill="#020202" opacity="1.000000" stroke="none" 
	d="
M800.235718,315.426819 
	C790.366089,315.820129 780.744629,315.820129 770.872314,315.820129 
	C770.872314,276.616882 770.872314,237.527939 770.872314,198.097214 
	C780.520996,198.097214 790.257690,198.097214 800.363403,198.097214 
	C800.363403,212.186310 800.363403,226.297546 800.363403,240.715485 
	C813.962769,240.715485 827.202454,240.715485 840.981201,240.715485 
	C840.981201,226.546326 840.981201,212.324997 840.981201,197.936066 
	C851.140442,197.936066 860.765015,197.936066 870.724854,197.936066 
	C870.724854,237.115494 870.724854,276.334473 870.724854,315.807678 
	C860.979492,315.807678 851.245605,315.807678 841.147705,315.807678 
	C841.147705,299.766968 841.147705,283.830902 841.147705,267.568451 
	C827.565002,267.568451 814.341370,267.568451 800.483826,267.568451 
	C800.483826,283.473633 800.483826,299.253571 800.235718,315.426819 
z"/>
<path fill="#030303" opacity="1.000000" stroke="none" 
	d="
M396.753998,68.000183 
	C396.753998,61.204777 396.753998,54.909267 396.753998,48.373276 
	C406.868683,48.373276 416.601440,48.373276 426.806488,48.373276 
	C426.806488,62.256977 426.806488,75.966980 426.806488,90.985588 
	C430.456848,87.126953 433.247314,84.189339 436.024628,81.239349 
	C445.496460,71.178429 454.867065,61.018589 464.528259,51.142990 
	C466.129211,49.506462 468.971100,48.325184 471.274902,48.263908 
	C482.344971,47.969444 493.427155,48.131565 504.505035,48.131565 
	C504.792938,48.565723 505.080872,48.999886 505.368805,49.434044 
	C489.512482,64.498451 473.656158,79.562859 457.799957,94.627182 
	C475.183472,119.241096 491.575409,142.451035 508.614929,166.577911 
	C503.815369,166.577911 499.813019,166.577896 495.810669,166.577911 
	C488.982666,166.577911 482.147614,166.395126 475.329742,166.657990 
	C472.103699,166.782379 470.273438,165.744110 468.491943,163.024216 
	C458.573639,147.881439 448.421997,132.891449 438.116058,117.499519 
	C434.597900,120.965767 431.151062,124.036087 428.153961,127.495964 
	C427.140564,128.665817 426.939117,130.818787 426.923309,132.527618 
	C426.820282,143.667496 426.870331,154.808777 426.870331,166.263260 
	C416.850067,166.263260 407.106598,166.263260 396.753998,166.263260 
	C396.753998,133.648239 396.753998,101.074165 396.753998,68.000183 
z"/>
<path fill="#030303" opacity="1.000000" stroke="none" 
	d="
M548.106934,204.059357 
	C568.009399,191.828766 588.253967,191.880417 608.332520,201.903442 
	C621.729370,208.591034 628.384155,222.867737 625.936829,236.737534 
	C621.403320,236.737534 616.782898,236.737518 612.162415,236.737518 
	C607.503540,236.737518 602.844604,236.737534 598.022766,236.737534 
	C597.756042,236.089569 597.323486,235.511795 597.304871,234.920959 
	C597.112061,228.807648 595.204590,223.492233 588.977051,221.442001 
	C581.585022,219.008377 573.865173,217.844482 566.907410,222.673340 
	C561.011292,226.765320 561.783630,234.401031 568.528320,236.692490 
	C577.957031,239.895828 587.698853,242.171631 597.283386,244.925491 
	C601.267029,246.070114 605.387634,247.006287 609.105591,248.759094 
	C621.706238,254.699402 630.073792,263.737335 630.286255,278.658508 
	C630.507996,294.232758 623.941833,306.116638 609.979736,312.518280 
	C590.327332,321.528809 570.069702,321.204010 550.615356,311.655151 
	C535.957520,304.460602 528.045654,288.434174 530.599548,273.492126 
	C539.985474,273.492126 549.413391,273.492126 558.821472,273.492126 
	C561.455811,291.423828 577.705383,299.813110 594.340881,291.915558 
	C597.954590,290.199982 600.728516,287.743378 601.030457,283.334137 
	C601.342834,278.771362 598.755432,275.823029 595.035339,274.471863 
	C587.401672,271.699280 579.537415,269.562592 571.772705,267.149292 
	C566.697144,265.571777 561.572083,264.129913 556.568115,262.349487 
	C527.048462,251.846268 528.370483,217.766098 548.106934,204.059357 
z"/>
<path fill="#030303" opacity="1.000000" stroke="none" 
	d="
M453.987671,254.083679 
	C453.795349,255.221283 453.589386,256.429596 454.096008,257.097015 
	C456.559784,260.342621 459.214294,263.443390 462.427307,267.358276 
	C463.434906,263.039886 464.207275,259.729645 464.991455,256.368835 
	C473.061737,256.368835 480.986145,256.368835 489.198669,256.368835 
	C488.660919,267.520966 485.210632,277.406403 479.063354,286.651978 
	C487.170624,296.146423 495.261169,305.621307 504.174072,316.059235 
	C499.536224,316.059235 495.841187,316.059631 492.146118,316.059082 
	C489.814148,316.058746 487.481720,316.025482 485.150330,316.061371 
	C475.907959,316.203613 465.925293,318.195129 462.131836,305.615631 
	C449.265869,316.979797 435.158264,320.237122 419.535248,316.999573 
	C405.865173,314.166687 396.289917,306.234344 392.389404,292.697937 
	C388.353821,278.692871 391.668152,266.285614 402.709991,256.436615 
	C406.161133,253.358322 410.131866,250.862549 414.259094,247.808304 
	C413.008087,245.828171 411.587036,243.667694 410.253601,241.454437 
	C398.841736,222.512985 408.785858,200.403992 430.669373,197.209274 
	C437.066925,196.275299 444.130035,196.715546 450.364716,198.429611 
	C471.609283,204.270264 478.353119,230.537811 463.039154,246.489304 
	C460.407471,249.230530 457.228607,251.446472 453.987671,254.083679 
M424.507355,269.948029 
	C419.777985,273.844757 416.186340,278.372284 417.979340,284.955353 
	C419.494507,290.518188 423.682007,293.472260 429.204285,294.268829 
	C436.257629,295.286255 441.614197,292.080811 446.315491,286.886047 
	C443.399597,283.319122 440.673309,279.979065 437.941345,276.643616 
	C435.228821,273.331970 432.510529,270.025055 429.790680,266.711060 
	C427.932404,267.816498 426.506195,268.664886 424.507355,269.948029 
M440.737823,235.287369 
	C444.890259,232.325500 446.823914,228.361954 446.023346,223.252594 
	C445.404053,219.300217 441.791626,216.497284 437.872253,216.799835 
	C433.689880,217.122681 430.234497,220.304871 431.262756,224.409332 
	C432.335907,228.693069 435.116699,232.561874 437.328125,236.512894 
	C437.449341,236.729462 439.197174,236.035583 440.737823,235.287369 
z"/>
<path fill="#010101" opacity="1.000000" stroke="none" 
	d="
M1136.622314,293.999695 
	C1136.622314,261.843140 1136.622314,230.186523 1136.622314,198.144775 
	C1166.296753,198.144775 1195.859619,198.144775 1225.787109,198.144775 
	C1225.787109,206.377380 1225.787109,214.905472 1225.787109,223.885788 
	C1206.084717,223.885788 1186.506226,223.885788 1166.751587,223.885788 
	C1166.751587,230.276764 1166.751587,236.220718 1166.751587,242.603729 
	C1184.752930,242.603729 1202.656128,242.603729 1220.899170,242.603729 
	C1220.899170,250.920151 1220.899170,258.810730 1220.899170,267.203278 
	C1203.118774,267.203278 1185.229370,267.203278 1166.955811,267.203278 
	C1166.955811,274.912231 1166.955811,282.141357 1166.955811,289.885193 
	C1186.898315,289.885193 1206.967773,289.885193 1227.177490,289.885193 
	C1227.177490,298.807312 1227.177490,307.220276 1227.177490,315.844482 
	C1197.055420,315.844482 1167.132812,315.844482 1136.622314,315.844482 
	C1136.622314,308.684509 1136.622314,301.592102 1136.622314,293.999695 
z"/>
<path fill="#040404" opacity="1.000000" stroke="none" 
	d="
M965.421387,223.999771 
	C965.421387,215.040802 965.421387,206.581833 965.421387,197.941589 
	C975.548279,197.941589 985.171570,197.941589 994.882141,197.941589 
	C995.105469,198.374512 995.506226,198.788971 995.506348,199.203522 
	C995.512146,223.855255 996.115173,248.527969 995.295166,273.153198 
	C994.352722,301.454407 979.392273,316.238342 951.015381,318.222137 
	C944.426514,318.682739 937.617126,318.541016 931.127747,317.415985 
	C907.772583,313.366974 894.848022,299.048645 894.236328,275.382324 
	C893.574219,249.763641 894.086304,224.114639 894.086304,198.115295 
	C903.941833,198.115295 913.671448,198.115295 924.060913,198.115295 
	C924.060913,199.660172 924.060913,201.424164 924.060913,203.188156 
	C924.061218,225.176910 924.045898,247.165680 924.066467,269.154419 
	C924.084473,288.392273 934.949768,296.602661 953.682495,291.673065 
	C961.072021,289.728485 964.287354,284.404968 964.877014,277.441956 
	C965.451721,270.655701 965.355835,263.806030 965.401917,256.983154 
	C965.475098,246.155807 965.421387,235.327606 965.421387,223.999771 
z"/>
<path fill="#030303" opacity="1.000000" stroke="none" 
	d="
M667.486206,309.590088 
	C654.489868,301.115234 647.053345,289.183929 643.791626,274.677216 
	C639.378845,255.051498 641.274292,236.155487 652.560974,219.041061 
	C672.143372,189.347397 720.039551,186.411850 741.284485,213.402924 
	C747.563965,221.380829 750.648926,230.498810 751.298706,240.779037 
	C741.636841,240.779037 732.182861,240.779037 722.266541,240.779037 
	C721.414062,233.290909 717.586426,227.629822 710.866943,223.949982 
	C704.976685,220.724274 698.808350,220.518616 692.450073,221.998550 
	C684.748840,223.791107 679.330688,228.543274 676.248413,235.619568 
	C670.472290,248.880524 670.081787,262.515656 675.256531,276.006500 
	C680.244080,289.009277 692.970581,295.277222 706.484375,291.812195 
	C715.215515,289.573456 719.493774,283.072418 721.788818,274.940033 
	C722.463806,272.548248 722.756226,270.048462 723.268066,267.367249 
	C732.682617,267.367249 742.120422,267.367249 751.557739,267.367249 
	C753.007202,285.256012 740.954224,308.006470 720.621338,314.972809 
	C702.311340,321.246002 684.587036,319.784210 667.486206,309.590088 
z"/>
<path fill="#020202" opacity="1.000000" stroke="none" 
	d="
M1357.300781,223.866821 
	C1356.229004,223.258423 1355.120850,222.659637 1355.111694,222.044693 
	C1354.994751,214.093765 1355.034302,206.140533 1355.034302,197.975525 
	C1387.689331,197.975525 1419.927734,197.975525 1452.450928,197.975525 
	C1452.450928,206.488632 1452.450928,214.893341 1452.450928,223.690033 
	C1441.423462,223.690033 1430.509155,223.690033 1419.066406,223.690033 
	C1419.066406,254.599197 1419.066406,285.125793 1419.066406,315.853699 
	C1408.796143,315.853699 1399.058350,315.853699 1388.922241,315.853699 
	C1388.922241,285.286469 1388.922241,254.894409 1388.922241,223.868927 
	C1378.283203,223.868927 1368.029175,223.868927 1357.300781,223.866821 
z"/>
<path fill="#5E1D96" opacity="1.000000" stroke="none" 
	d="
M302.671265,325.688416 
	C299.927429,328.016113 297.447876,330.106995 294.249786,332.803802 
	C294.161652,330.922333 294.094940,330.160339 294.094788,329.398376 
	C294.089600,301.084778 294.153748,272.770844 294.021057,244.457870 
	C294.001617,240.307297 295.345856,238.936447 299.513092,239.092499 
	C307.461578,239.390121 315.429108,239.178879 323.711823,239.178879 
	C323.825134,241.011154 323.990631,242.453491 323.991974,243.895981 
	C324.009186,262.383087 324.097107,280.871277 323.886841,299.356018 
	C323.859650,301.744293 322.852753,304.647797 321.281250,306.398346 
	C315.395111,312.955078 309.086029,319.132172 302.671265,325.688416 
z"/>
<path fill="#612198" opacity="1.000000" stroke="none" 
	d="
M55.069397,216.828934 
	C55.515522,215.248138 56.341625,213.669296 56.349678,212.086273 
	C56.441998,193.946045 56.409908,175.805191 56.410950,157.664505 
	C56.411053,155.871414 56.410965,154.078323 56.410965,152.011703 
	C67.704849,152.011703 78.512688,151.489288 89.238579,152.201294 
	C96.024612,152.651764 100.063919,157.907349 101.809021,164.224762 
	C104.053009,172.348145 103.095024,180.066177 96.831848,186.858414 
	C105.527809,195.560196 99.583603,208.108231 105.440392,218.694626 
	C100.320740,218.694626 95.785721,218.867813 91.286629,218.543106 
	C90.425056,218.480927 89.195908,216.536377 89.010742,215.326447 
	C88.332947,210.897537 88.157669,206.393768 87.546173,201.952194 
	C86.586006,194.978012 85.286629,193.951508 78.174660,193.925323 
	C76.189423,193.917999 74.204124,193.924194 71.492172,193.924194 
	C71.492172,202.186203 71.492172,210.206650 71.492172,218.597336 
	C65.814804,218.597336 60.864170,218.597336 55.460201,218.221924 
	C55.027710,217.507324 55.048550,217.168121 55.069397,216.828934 
M77.506096,180.294052 
	C86.393700,180.279938 88.300591,178.826935 87.885269,172.385345 
	C87.486801,166.205032 84.049431,164.936203 71.714020,166.518326 
	C71.714020,170.990723 71.714020,175.484177 71.714020,180.294098 
	C73.607971,180.294098 75.085747,180.294098 77.506096,180.294052 
z"/>
<path fill="#602097" opacity="1.000000" stroke="none" 
	d="
M35.677818,281.999573 
	C35.677711,267.564728 35.677711,253.629745 35.677711,239.435822 
	C45.769344,239.435822 55.341534,239.435822 65.251968,239.435822 
	C65.251968,269.871765 65.251968,300.190948 65.251968,331.251068 
	C54.239216,322.383606 44.787624,312.907654 36.605476,302.206268 
	C35.650005,300.956604 35.755138,298.747772 35.714275,296.975616 
	C35.603046,292.152527 35.677223,287.325134 35.677818,281.999573 
z"/>
<path fill="#5E1D96" opacity="1.000000" stroke="none" 
	d="
M304.770477,49.222095 
	C311.271271,56.132626 319.429230,61.896587 323.152405,69.760269 
	C326.188293,76.172310 323.975647,85.094963 323.993256,92.904640 
	C324.021362,105.378479 323.971100,117.852509 323.939636,130.326416 
	C323.938843,130.636215 323.769867,130.945572 323.584290,131.580048 
	C313.981659,131.580048 304.288208,131.580048 294.340637,131.580048 
	C294.340637,101.389496 294.340637,71.386993 294.340637,40.220314 
	C298.138397,43.492722 301.324402,46.237995 304.770477,49.222095 
z"/>
<path fill="#601F97" opacity="1.000000" stroke="none" 
	d="
M65.579056,62.000763 
	C65.579140,85.461891 65.579140,108.423203 65.579140,131.649185 
	C55.519234,131.649185 45.946453,131.649185 36.000603,131.649185 
	C35.889187,130.135590 35.693714,128.702271 35.691864,127.268707 
	C35.669701,110.105751 35.577808,92.941566 35.787449,75.781166 
	C35.816986,73.362991 36.723347,70.387810 38.302433,68.651199 
	C46.670853,59.447990 55.383900,50.558147 63.977531,41.559723 
	C64.511345,41.824703 65.045158,42.089684 65.578972,42.354668 
	C65.578972,48.736759 65.578972,55.118851 65.579056,62.000763 
z"/>
<path fill="#5F1F97" opacity="1.000000" stroke="none" 
	d="
M73.129639,35.952881 
	C82.620857,29.792631 91.882881,23.982906 102.131340,17.554426 
	C102.354729,20.357771 102.559784,21.743502 102.561371,23.129465 
	C102.584427,43.267513 102.644958,63.406116 102.484123,83.542885 
	C102.467735,85.594910 101.674820,88.307747 100.237823,89.574699 
	C89.798210,98.779060 80.884216,109.211548 72.900452,122.432259 
	C72.900452,92.805191 72.900452,64.554298 73.129639,35.952881 
z"/>
<path fill="#5F1F97" opacity="1.000000" stroke="none" 
	d="
M72.686890,285.999939 
	C72.686981,274.565155 72.686981,263.630371 72.686981,251.595993 
	C76.680595,257.117004 79.712578,262.015533 83.447449,266.301544 
	C88.680786,272.307129 94.506851,277.792572 99.917305,283.650208 
	C101.143692,284.977936 102.445534,286.914612 102.458977,288.581116 
	C102.629372,309.716827 102.573090,330.854401 102.556694,351.991486 
	C102.556221,352.601654 102.359138,353.211700 102.014130,355.208618 
	C92.254883,349.189789 83.080017,343.672852 74.122772,337.822723 
	C73.039452,337.115204 72.748978,334.610565 72.738327,332.934723 
	C72.639999,317.456970 72.684105,301.978333 72.686890,285.999939 
z"/>
<path fill="#5F1F97" opacity="1.000000" stroke="none" 
	d="
M156.870331,166.307709 
	C161.690430,178.254837 161.979172,190.004837 157.850967,201.753128 
	C153.790009,213.310074 144.763428,219.966812 133.691055,220.004791 
	C122.601112,220.042831 113.567017,213.471481 109.374741,201.957153 
	C105.613281,191.626099 105.478638,181.071350 108.735413,170.610291 
	C112.212364,159.442047 119.057220,151.433777 131.361069,150.323593 
	C143.426437,149.234924 151.566696,155.393188 156.870331,166.307709 
M122.781845,175.657593 
	C120.964813,183.257950 120.824951,190.783859 123.991165,198.098587 
	C125.792427,202.259949 128.918472,204.763947 133.587463,204.775040 
	C138.272614,204.786163 141.363754,202.215103 143.199265,198.102249 
	C146.452881,190.811798 146.461792,183.258408 144.451309,175.695099 
	C142.695892,169.091278 139.327240,165.956802 134.271271,165.671799 
	C128.718567,165.358826 125.755783,167.766998 122.781845,175.657593 
z"/>
<path fill="#5F1F97" opacity="1.000000" stroke="none" 
	d="
M265.899170,211.895660 
	C265.899475,191.770157 265.899475,172.132339 265.899475,152.143280 
	C270.903198,152.143280 275.604614,152.143280 280.820740,152.143280 
	C280.820740,160.059250 280.820740,167.799942 280.820740,175.761658 
	C286.602905,175.761658 291.879913,175.761658 297.655304,175.761658 
	C297.655304,168.040115 297.655304,160.294586 297.655304,152.173828 
	C302.845612,152.173828 307.549469,152.173828 312.544037,152.173828 
	C312.544037,174.177017 312.544037,196.089737 312.544037,218.363846 
	C307.861328,218.363846 303.287598,218.363846 298.187805,218.363846 
	C298.187805,209.705688 298.187805,200.968185 298.187805,191.778137 
	C292.320374,191.778137 286.952271,191.778137 281.065552,191.778137 
	C281.065552,200.406662 281.065552,209.147690 281.065552,218.303741 
	C275.866028,218.303741 271.161041,218.303741 265.898895,218.303741 
	C265.898895,216.278778 265.898895,214.331055 265.899170,211.895660 
z"/>
<path fill="#5E1E96" opacity="1.000000" stroke="none" 
	d="
M287.004395,65.000000 
	C287.004333,82.772713 287.004333,100.045433 287.004333,118.379692 
	C282.975708,113.149094 279.754059,108.616455 276.159790,104.401604 
	C272.814972,100.479263 269.581268,96.137863 265.394043,93.329865 
	C258.064636,88.414688 256.744904,82.051544 256.999756,73.811440 
	C257.569977,55.376896 257.178162,36.912598 257.178162,16.774225 
	C267.353760,22.904434 276.587646,28.351715 285.639923,34.085655 
	C286.629730,34.712605 286.925476,36.984104 286.946350,38.501041 
	C287.065735,47.165985 287.004395,55.833416 287.004395,65.000000 
z"/>
<path fill="#5E1E96" opacity="1.000000" stroke="none" 
	d="
M270.025024,276.025696 
	C275.706085,269.262970 281.137054,262.753052 286.706055,256.077667 
	C286.794525,257.072357 286.990387,258.253265 286.991241,259.434265 
	C287.009430,284.262909 286.932800,309.091980 287.093750,333.919586 
	C287.115021,337.198792 286.122192,339.180603 283.372559,340.755096 
	C274.923737,345.593170 266.549591,350.561584 257.179169,356.045380 
	C257.179169,347.312103 257.179321,340.045166 257.179138,332.778229 
	C257.178741,319.114136 257.041046,305.447327 257.313416,291.788696 
	C257.358429,289.529510 258.750397,286.912262 260.303497,285.151794 
	C263.152618,281.922272 266.585449,279.207733 270.025024,276.025696 
z"/>
<path fill="#5F1E96" opacity="1.000000" stroke="none" 
	d="
M55.025158,216.483826 
	C55.048550,217.168121 55.027710,217.507324 55.009865,218.100555 
	C50.195965,218.475006 45.361977,218.863434 40.572231,218.558029 
	C39.069450,218.462189 37.168827,216.796768 36.333973,215.342484 
	C31.960686,207.724319 27.871288,199.943207 23.522026,191.921417 
	C14.991082,199.688034 21.220900,209.721161 18.333515,218.415710 
	C14.024994,218.415710 9.434580,218.415710 4.411393,218.415710 
	C4.411393,196.388107 4.411393,174.371887 4.411393,152.074768 
	C9.095783,152.074768 13.699251,152.074768 18.720699,152.074768 
	C18.720699,158.948669 18.720699,165.881378 18.720699,172.814102 
	C19.072203,172.993866 19.423706,173.173630 19.775208,173.353409 
	C23.018780,169.130188 26.764679,165.195099 29.390331,160.617447 
	C33.516766,153.423264 39.084473,150.307907 47.306183,151.737137 
	C49.501102,152.118683 51.818645,151.794846 55.137573,151.794846 
	C48.368111,160.231903 42.369007,167.939209 36.086426,175.408051 
	C34.022984,177.861099 33.965771,179.634018 35.577595,182.359009 
	C42.187916,193.534592 48.536201,204.865173 55.025158,216.483826 
z"/>
<path fill="#5F1F97" opacity="1.000000" stroke="none" 
	d="
M171.848114,187.259338 
	C163.406433,180.613113 161.167374,170.354324 165.883667,161.122192 
	C170.523575,152.039566 181.494324,147.991669 192.629517,151.253754 
	C202.235001,154.067688 207.689758,162.815811 206.570663,173.933899 
	C202.038116,173.933899 197.477020,173.933899 192.979523,173.933899 
	C190.985077,166.017624 188.586563,163.663361 182.999786,165.000122 
	C181.166794,165.438675 178.981461,167.543030 178.476044,169.318069 
	C178.123291,170.557022 179.987717,173.300049 181.505310,174.025970 
	C185.224518,175.805084 189.290833,176.888779 193.263168,178.102737 
	C204.004120,181.385208 209.369629,188.810349 208.706467,199.623917 
	C208.049316,210.339554 201.609894,217.660187 191.098709,219.641174 
	C173.856750,222.890686 161.203125,212.041595 162.106613,194.379410 
	C166.626633,194.379410 171.191818,194.379410 174.599625,194.379410 
	C176.888763,198.043839 178.323837,201.957504 181.102783,204.222000 
	C182.959076,205.734619 186.874786,205.528549 189.587311,204.891922 
	C191.337906,204.481049 193.580170,202.005585 193.764816,200.260971 
	C193.946625,198.542999 192.242661,195.833466 190.600266,194.884583 
	C187.486969,193.085861 183.802536,192.295441 180.400024,190.971405 
	C177.617126,189.888489 174.899124,188.638748 171.848114,187.259338 
z"/>
<path fill="#5F1F97" opacity="1.000000" stroke="none" 
	d="
M366.419861,198.281754 
	C363.964630,215.294815 351.500702,223.505722 335.342377,219.086823 
	C326.020050,216.537415 320.570251,209.927078 320.152344,200.757553 
	C319.419678,184.681961 319.947876,168.548889 319.947876,152.115784 
	C324.302948,152.115784 328.883789,152.115784 334.200989,152.115784 
	C334.200989,153.809570 334.200684,155.563538 334.201050,157.317520 
	C334.203491,169.479309 334.081146,181.642838 334.252533,193.802246 
	C334.366669,201.897263 337.901398,205.479889 344.431396,204.755066 
	C347.943512,204.365219 350.435577,202.697296 351.044342,199.048355 
	C351.452820,196.599777 351.750122,194.101257 351.763184,191.623337 
	C351.832397,178.510971 351.795685,165.398041 351.795685,152.041779 
	C356.899750,152.041779 361.502808,152.041779 366.489777,152.041779 
	C366.489777,167.343597 366.489777,182.594330 366.419861,198.281754 
z"/>
<path fill="#5F1F97" opacity="1.000000" stroke="none" 
	d="
M229.035156,200.887466 
	C237.907425,208.642181 244.072617,205.225677 247.255188,190.967072 
	C251.758148,190.967072 256.325684,190.967072 260.872375,190.967072 
	C261.940796,204.607864 253.927292,216.773163 242.273102,219.505508 
	C230.029816,222.375946 217.848587,215.473389 213.053558,202.583572 
	C208.377258,190.012955 208.568359,177.385086 214.283234,165.180054 
	C219.661011,153.694977 230.598495,148.253357 242.099091,150.798477 
	C253.297607,153.276764 260.591705,163.073013 260.791473,176.716095 
	C256.744507,176.716095 252.672119,176.897949 248.639404,176.578644 
	C247.717941,176.505676 246.548218,174.834579 246.154037,173.674362 
	C244.639603,169.216812 242.191895,165.920731 237.111298,165.696991 
	C231.841202,165.464920 228.620132,168.506485 227.054214,173.121872 
	C223.886978,182.456848 223.618942,191.725677 229.035156,200.887466 
z"/>
<path fill="#601F97" opacity="1.000000" stroke="none" 
	d="
M139.320129,29.000097 
	C139.320740,40.484966 139.200378,51.471977 139.395157,62.453396 
	C139.453033,65.715591 138.569443,67.349129 135.410202,68.761978 
	C126.795906,72.614388 118.438324,77.040848 109.739174,81.358940 
	C109.661018,80.565941 109.436409,79.340775 109.435028,78.115356 
	C109.413101,58.642208 109.507050,39.168262 109.336754,19.696581 
	C109.307251,16.322960 110.229111,14.572574 113.510529,13.559608 
	C121.881874,10.975389 130.164032,8.102238 139.319733,5.066918 
	C139.319733,13.608791 139.319733,21.054443 139.320129,29.000097 
z"/>
<path fill="#5F1F97" opacity="1.000000" stroke="none" 
	d="
M126.179657,363.854828 
	C120.531273,361.743195 113.318695,361.139069 110.562569,357.319336 
	C107.837837,353.543182 109.473946,346.519714 109.444054,340.919342 
	C109.365959,326.285583 109.422882,311.651123 109.425873,297.016937 
	C109.426201,295.400330 109.425919,293.783722 109.425919,292.239258 
	C119.161522,296.946625 128.501450,301.413757 137.766205,306.031677 
	C138.540802,306.417786 139.244339,307.817719 139.248459,308.749847 
	C139.333679,328.011322 139.312622,347.273285 139.312622,367.478027 
	C134.685425,366.198547 130.626511,365.076172 126.179657,363.854828 
z"/>
<path fill="#5E1D96" opacity="1.000000" stroke="none" 
	d="
M233.309204,8.637594 
	C238.864868,10.597562 245.874619,11.007081 248.690186,14.654356 
	C251.409683,18.177151 250.023056,25.036308 250.059784,30.432455 
	C250.171829,46.885822 250.100433,63.340431 250.100433,80.291214 
	C243.159256,76.727448 237.025055,72.411942 230.209747,70.372757 
	C221.608765,67.799286 219.507706,63.238415 219.944077,54.661465 
	C220.763550,38.554638 220.180161,22.376434 220.180161,5.295169 
	C224.769943,6.450192 228.849319,7.476773 233.309204,8.637594 
z"/>
<path fill="#5E1D96" opacity="1.000000" stroke="none" 
	d="
M220.180176,332.999939 
	C220.178268,325.180756 220.075790,317.858978 220.267075,310.544830 
	C220.301483,309.229767 221.218781,307.273315 222.284393,306.754181 
	C231.342224,302.341400 240.528763,298.192780 250.105103,293.766998 
	C250.105103,294.698486 250.105209,295.929077 250.105072,297.159637 
	C250.103119,316.289276 250.038300,335.419373 250.165344,354.548157 
	C250.184891,357.490967 249.391403,359.070465 246.483932,359.948639 
	C237.940109,362.529327 229.464630,365.336243 220.180115,368.304688 
	C220.180115,356.011871 220.180115,344.755920 220.180176,332.999939 
z"/>
<path fill="#5F1F97" opacity="1.000000" stroke="none" 
	d="
M356.387695,243.190796 
	C350.667389,261.162201 342.535675,277.467010 331.421204,293.455811 
	C331.421204,274.918030 331.421204,257.325928 331.421204,239.450424 
	C339.874329,239.450424 348.302765,239.450424 357.050140,239.450424 
	C356.873260,240.608749 356.705902,241.704865 356.387695,243.190796 
z"/>
<path fill="#5F1F97" opacity="1.000000" stroke="none" 
	d="
M347.289154,106.710266 
	C350.705719,115.027290 353.959747,123.005783 357.457214,131.581161 
	C348.226990,131.581161 339.890717,131.581161 331.267517,131.581161 
	C331.267517,114.557968 331.267517,97.634018 331.267517,80.710075 
	C331.634766,80.461914 332.001984,80.213753 332.369232,79.965591 
	C337.288361,88.767632 342.207489,97.569679 347.289154,106.710266 
z"/>
<path fill="#632499" opacity="1.000000" stroke="none" 
	d="
M7.389888,239.156158 
	C14.629820,239.156097 21.411413,239.156097 28.468683,239.156097 
	C28.468683,256.444519 28.468683,273.206055 28.468683,291.253113 
	C17.113331,274.856750 9.344798,257.946838 3.742512,239.455231 
	C5.079772,239.329849 6.005660,239.243027 7.389888,239.156158 
z"/>
<path fill="#632499" opacity="1.000000" stroke="none" 
	d="
M13.602820,107.585938 
	C18.272814,98.963120 22.766270,90.672852 27.259727,82.382584 
	C27.634462,82.521149 28.009199,82.659721 28.383934,82.798286 
	C28.383934,98.944580 28.383934,115.090866 28.383934,131.583618 
	C20.617434,131.583618 12.880198,131.583618 3.963744,131.583618 
	C7.203391,123.481499 10.314837,115.699989 13.602820,107.585938 
z"/>
<path fill="#FBFBFB" opacity="1.000000" stroke="none" 
	d="
M1082.916504,289.193939 
	C1077.845703,290.060699 1073.145996,291.094818 1068.405029,291.346130 
	C1061.959106,291.687836 1055.481567,291.431305 1048.696655,291.431305 
	C1048.696655,282.825256 1048.696655,274.602661 1048.696655,266.230682 
	C1058.654053,266.230682 1068.575684,265.855591 1078.447510,266.394714 
	C1083.125244,266.650177 1086.914673,269.680176 1087.706909,274.827087 
	C1088.532104,280.186493 1088.904541,285.590332 1082.916504,289.193939 
z"/>
<path fill="#F7F7F7" opacity="1.000000" stroke="none" 
	d="
M1055.177124,222.228348 
	C1061.298462,222.261765 1066.960205,222.026062 1072.582153,222.395935 
	C1079.637817,222.860123 1083.083496,225.999557 1083.591675,231.632797 
	C1084.149170,237.813721 1081.200684,242.457077 1075.022461,242.894989 
	C1066.326294,243.511368 1057.553833,243.050903 1048.625244,243.050903 
	C1048.625244,236.172440 1048.625244,229.452530 1048.625244,222.228058 
	C1050.822754,222.228058 1052.761353,222.228058 1055.177124,222.228348 
z"/>
<path fill="#FBFBFB" opacity="1.000000" stroke="none" 
	d="
M948.733154,130.992615 
	C948.732849,125.874870 948.732849,121.255630 948.732849,116.442879 
	C958.398071,116.442879 967.693542,115.891212 976.890503,116.606354 
	C985.197998,117.252342 988.437622,121.794899 988.274231,130.044418 
	C988.136169,137.015244 984.647034,141.085602 976.641113,141.613907 
	C967.572266,142.212341 958.433533,141.751968 948.733459,141.751968 
	C948.733459,138.334625 948.733459,134.912872 948.733154,130.992615 
z"/>
<path fill="#FBFBFB" opacity="1.000000" stroke="none" 
	d="
M948.739136,91.844666 
	C948.730225,85.390717 948.730225,79.423271 948.730225,73.195999 
	C957.706421,73.195999 966.476074,72.806389 975.189697,73.337265 
	C980.710144,73.673599 983.528259,77.444115 983.757446,82.653976 
	C984.019226,88.605423 981.557861,92.745338 975.629395,93.319275 
	C967.062622,94.148613 958.377930,93.776024 949.742981,93.822609 
	C949.414001,93.824387 949.079773,92.850441 948.739136,91.844666 
z"/>
<path fill="#FDFDFD" opacity="1.000000" stroke="none" 
	d="
M584.758362,77.464828 
	C585.568359,80.856148 586.712646,83.919899 586.676025,86.969452 
	C586.580688,94.891518 583.055237,98.741707 575.169434,99.091515 
	C566.236145,99.487778 557.271729,99.182945 548.028748,99.182945 
	C548.028748,90.560394 548.028748,81.997765 548.028748,73.175964 
	C557.766052,73.175964 567.528198,72.914406 577.258301,73.356819 
	C579.742493,73.469765 582.125244,75.812515 584.758362,77.464828 
z"/>
<path fill="#FDFDFD" opacity="1.000000" stroke="none" 
	d="
M1175.980469,96.928299 
	C1175.978516,88.805252 1175.978516,81.177055 1175.978516,73.321899 
	C1186.204834,73.321899 1196.283936,72.787407 1206.271118,73.515160 
	C1212.627930,73.978378 1215.145874,78.701538 1215.001099,86.445389 
	C1214.864868,93.732300 1212.111572,98.232216 1205.936768,98.724991 
	C1196.520508,99.476448 1187.024536,99.259216 1177.561523,99.317360 
	C1177.038940,99.320580 1176.508911,98.083122 1175.980469,96.928299 
z"/>
<path fill="#F9F9F9" opacity="1.000000" stroke="none" 
	d="
M1290.997559,248.860489 
	C1285.869995,248.860489 1281.240112,248.860489 1276.231689,248.860489 
	C1276.231689,239.980179 1276.231689,231.326645 1276.231689,222.363541 
	C1285.449951,222.363541 1294.563354,221.940430 1303.618042,222.488556 
	C1311.845337,222.986603 1314.997437,227.271362 1314.861328,235.854935 
	C1314.729492,244.164291 1311.105469,248.211182 1302.946167,248.775391 
	C1299.145386,249.038223 1295.313110,248.846283 1290.997559,248.860489 
z"/>
<path fill="#FDFDFD" opacity="1.000000" stroke="none" 
	d="
M716.585327,88.595825 
	C721.150696,102.564041 721.608765,116.091278 715.131042,129.202118 
	C710.175598,139.231918 701.653076,143.399826 690.658813,143.038025 
	C679.978455,142.686508 672.238342,137.795883 667.954895,128.002197 
	C662.203918,114.853149 662.394348,101.413094 667.393677,88.158058 
	C671.443542,77.420387 679.507690,71.914970 691.146790,71.711273 
	C703.379211,71.497185 711.738770,77.007553 716.585327,88.595825 
z"/>
<path fill="#F9F9F9" opacity="1.000000" stroke="none" 
	d="
M424.793671,269.730652 
	C426.506195,268.664886 427.932404,267.816498 429.790680,266.711060 
	C432.510529,270.025055 435.228821,273.331970 437.941345,276.643616 
	C440.673309,279.979065 443.399597,283.319122 446.315491,286.886047 
	C441.614197,292.080811 436.257629,295.286255 429.204285,294.268829 
	C423.682007,293.472260 419.494507,290.518188 417.979340,284.955353 
	C416.186340,278.372284 419.777985,273.844757 424.793671,269.730652 
z"/>
<path fill="#F7F7F7" opacity="1.000000" stroke="none" 
	d="
M440.462830,235.526428 
	C439.197174,236.035583 437.449341,236.729462 437.328125,236.512894 
	C435.116699,232.561874 432.335907,228.693069 431.262756,224.409332 
	C430.234497,220.304871 433.689880,217.122681 437.872253,216.799835 
	C441.791626,216.497284 445.404053,219.300217 446.023346,223.252594 
	C446.823914,228.361954 444.890259,232.325500 440.462830,235.526428 
z"/>
<path fill="#F8F4F9" opacity="1.000000" stroke="none" 
	d="
M77.034805,180.294067 
	C75.085747,180.294098 73.607971,180.294098 71.714020,180.294098 
	C71.714020,175.484177 71.714020,170.990723 71.714020,166.518326 
	C84.049431,164.936203 87.486801,166.205032 87.885269,172.385345 
	C88.300591,178.826935 86.393700,180.279938 77.034805,180.294067 
z"/>
<path fill="#FCFBFC" opacity="1.000000" stroke="none" 
	d="
M122.877045,175.256699 
	C125.755783,167.766998 128.718567,165.358826 134.271271,165.671799 
	C139.327240,165.956802 142.695892,169.091278 144.451309,175.695099 
	C146.461792,183.258408 146.452881,190.811798 143.199265,198.102249 
	C141.363754,202.215103 138.272614,204.786163 133.587463,204.775040 
	C128.918472,204.763947 125.792427,202.259949 123.991165,198.098587 
	C120.824951,190.783859 120.964813,183.257950 122.877045,175.256699 
z"/>
</svg>