<?xml version="1.0" encoding="UTF-8"?>
<svg xmlns="http://www.w3.org/2000/svg" id="_Шар_1" data-name="Шар 1" viewBox="0 0 800 527.47">
  <defs>
    <style>
      .cls-1 {
        fill: #fff;
      }

      .cls-2 {
        fill: #e6501c;
      }
    </style>
  </defs>
  <path class="cls-2" d="M400,103.12h0c88.71,0,160.62,71.91,160.62,160.62h0c0,88.71-71.91,160.62-160.62,160.62h0c-88.71,0-160.62-71.91-160.62-160.62h0c0-88.71,71.91-160.62,160.62-160.62Z"></path>
  <path class="cls-1" d="M401.06,325.75l.17-12.54v-97.74l-.17-12.54h27.31c20.79,0,31.61,12.19,31.61,31.44v.34c0,13.57-3.28,23.54-16.84,27.83v.69c13.05,2.92,18.04,12.89,18.04,26.45v.35c0,26.45-11.17,35.73-32.12,35.73h-28Zm23.36-73.01h2.23c8.42,0,10.82-7.04,10.82-15.98v-.52c0-8.59-2.4-13.91-11.32-13.91h-1.72v30.4Zm1.53,52.74c8.94,0,11.68-4.29,11.68-15.79v-.51c0-9.45-3.09-15.46-11.34-15.46h-1.88v31.76h1.53Z"></path>
  <path class="cls-1" d="M488.32,289.33c0,11.85,2.41,16.83,7.73,16.83,3.61,0,6.36-2.4,6.36-9.96,0-6.7-2.06-13.74-9.96-19.75l-7.9-6.01c-12.71-9.62-18.55-19.75-18.55-35.56,0-22.16,12.2-34.19,30.75-34.19s28.69,10.31,28.17,37.62h-22.5c0-11.85-2.23-15.79-6.53-15.79s-7.04,3.95-7.04,10.31c0,7.39,3.44,12.71,9.96,17.52l8.78,6.51c10.13,7.56,18.04,16.15,18.04,35.39,0,24.05-12.2,35.73-30.58,35.73s-30.4-11.32-29.89-38.65h23.17Z"></path>
  <polygon class="cls-1" points="328.76 256.89 351.78 256.89 361.75 325.72 341.59 325.72 328.76 256.89"></polygon>
  <polygon class="cls-1" points="381.06 325.72 394.57 256.89 372.81 256.89 362.16 325.72 381.06 325.72"></polygon>
  <path class="cls-1" d="M280.59,325.57l.17-12.54v-97.74l-.17-12.54h23.71l-.17,12.54v89.15h24.91v21.13h-48.44Z"></path>
</svg>
