<?xml version="1.0" encoding="utf-8"?>
<!-- Generator: Adobe Illustrator 19.2.1, SVG Export Plug-In . SVG Version: 6.00 Build 0)  -->
<svg version="1.1" id="layer" xmlns="http://www.w3.org/2000/svg" xmlns:xlink="http://www.w3.org/1999/xlink" x="0px" y="0px"
	 viewBox="0 0 652 652" style="enable-background:new 0 0 652 652;" xml:space="preserve">
<style type="text/css">
	.st0{fill:#ED1C24;}
</style>
<g>
	<polygon points="236.1,292.7 236.1,348.6 280.9,348.6 280.9,338.9 248.4,338.9 248.4,325.2 280.9,325.2 280.9,315.4 248.4,315.4 
		248.4,302.4 280.9,302.4 280.9,292.7 	"/>
	<polygon points="336.8,348.6 336.8,292.6 348.6,292.6 348.6,348.6 	"/>
	<polygon points="182.4,292.6 196.4,336.3 211.1,292.6 228.4,292.6 228.4,348.6 217.1,348.6 217.1,306.7 202.5,348.6 190.2,348.6 
		176.4,306.7 176.4,348.6 165,348.6 165,292.6 	"/>
	<polygon points="302.5,302.6 284.7,302.6 284.7,292.6 333,292.6 333,302.6 314.4,302.6 314.4,348.6 302.5,348.6 	"/>
	<polygon points="471.2,292.7 471.2,348.6 516,348.6 516,338.9 483.5,338.9 483.5,325.2 516,325.2 516,315.4 483.5,315.4 
		483.5,302.4 516,302.4 516,292.7 	"/>
	<polygon points="591.5,302.6 573.7,302.6 573.7,292.6 621.9,292.6 621.9,302.6 603.3,302.6 603.3,348.6 591.5,348.6 	"/>
	<polygon points="394.4,332.8 371.4,292.6 356.5,292.6 356.5,348.6 368.6,348.6 368.1,306.2 392.2,348.6 405.8,348.6 405.8,292.6 
		393.8,292.6 	"/>
	<polygon points="438.6,334.3 421.9,292.6 408.5,292.6 432.9,348.6 445.2,348.6 468.4,292.6 455.9,292.6 	"/>
	<path d="M554.3,316h-15.6c-4.9,0-7.4-2-7.4-6.1c0-5.1,2.8-7.4,9-7.4h29.1v-10h-30.8c-6.8,0-11.8,1.4-14.9,4.1
		c-3.2,2.7-4.7,7.1-4.7,13c0,11.2,5.7,16.1,18.7,16.1h13.9c6.1,0,8.3,1.8,8.3,6.4c0,4.6-2.5,6.3-9.1,6.3h-29.5v10h31.4
		c13.5,0,19.6-5.2,19.6-16.8c0-5.7-1.4-9.7-4.1-12.1C565.4,317.2,560.7,316,554.3,316L554.3,316z"/>
	<path class="st0" d="M109.3,272.4c0,0-7.4-3-8.4-3.5c-1-0.4-2-0.5-3.1-0.3s-1.9,0.8-2.3,1.3c-0.4,0.4-16.2,16.2-16.2,16.2
		S63.6,270.6,63.1,270c-0.5-0.5-1.1-1-2.4-1.4c-1.3-0.3-2.4-0.1-3,0.3c-0.7,0.3-7.4,3.1-8.4,3.5c-0.9,0.3-1.8,1.1-2.4,2
		c-0.4,0.8-0.8,1.6-0.8,2.6c0-0.9,0,22,0,22l14.5,8.4v-19.1l6.8,6.8c0.5,0.5,1.1,0.8,1.8,1.1c0.5,0.2,0.9,0.3,1.7,0.3
		c0.8,0,16.5,0,16.5,0c0.6,0,1.2-0.1,1.7-0.3c0.6-0.3,1.2-0.6,1.9-1.3c0.7-0.7,6.7-6.7,6.7-6.7v19.1l14.5-8.4c0,0,0-19.6,0-21.8
		C112.3,274.9,111.1,273.2,109.3,272.4L109.3,272.4z"/>
	<path class="st0" d="M22,319.8c0,0,1,7.9,1.2,9s0.6,2,1.4,2.9c0.8,0.8,1.7,1.2,2.3,1.4c0.6,0.2,22.1,5.9,22.1,5.9s-5.7,21.4-5.9,22
		c-0.2,0.7-0.3,1.4,0,2.7c0.3,1.3,1.2,2.1,1.8,2.5c0.6,0.4,6.4,4.9,7.2,5.5c0.8,0.6,1.9,1,3,1c0.8,0,1.8-0.2,2.6-0.7
		c-0.8,0.5,19-11,19-11v-16.8L60,353.7l2.5-9.3c0.2-0.7,0.2-1.4,0.1-2.1c-0.1-0.6-0.2-0.9-0.6-1.7c-0.4-0.7-8.3-14.3-8.3-14.3
		c-0.3-0.5-0.7-0.9-1.1-1.3c-0.5-0.4-1.1-0.8-2-1c-0.8-0.3-9.1-2.5-9.1-2.5L58,312l-14.5-8.4c0,0-17,9.8-18.9,10.9
		C22.6,315.8,21.7,317.8,22,319.8L22,319.8z"/>
	<path class="st0" d="M106.6,371.7c0,0,6.3-4.8,7.2-5.5s1.4-1.5,1.8-2.5c0.3-1.1,0.2-2,0.1-2.6c-0.2-0.6-5.9-22.1-5.9-22.1
		s21.4-5.7,22.1-5.9s1.4-0.4,2.4-1.4c0.9-0.9,1.3-2,1.4-2.8c0.1-0.8,1-8,1.2-9c0.2-1,0-2.1-0.6-3c-0.4-0.8-1-1.4-1.9-1.9
		c0.8,0.5-19-11-19-11l-14.5,8.4l16.6,9.6l-9.3,2.5c-0.7,0.2-1.3,0.5-1.9,0.9c-0.4,0.3-0.8,0.7-1.1,1.4c-0.4,0.7-8.3,14.3-8.3,14.3
		c-0.3,0.5-0.5,1-0.6,1.6c-0.1,0.7-0.1,1.4,0.2,2.2s2.5,9.1,2.5,9.1l-16.6-9.6V361c0,0,17,9.8,18.9,10.9
		C103,373.1,105.1,372.8,106.6,371.7L106.6,371.7z"/>
</g>
</svg>
