<?xml version="1.0" encoding="UTF-8" standalone="no"?>
<!-- Created with Inkscape (http://www.inkscape.org/) -->

<svg
   xmlns:dc="http://purl.org/dc/elements/1.1/"
   xmlns:cc="http://creativecommons.org/ns#"
   xmlns:rdf="http://www.w3.org/1999/02/22-rdf-syntax-ns#"
   xmlns:svg="http://www.w3.org/2000/svg"
   xmlns="http://www.w3.org/2000/svg"
   xmlns:sodipodi="http://sodipodi.sourceforge.net/DTD/sodipodi-0.dtd"
   xmlns:inkscape="http://www.inkscape.org/namespaces/inkscape"
   width="493.82336mm"
   height="120.80791mm"
   viewBox="0 0 493.82336 120.80791"
   version="1.1"
   id="svg59"
   inkscape:version="0.92.0 r15299"
   sodipodi:docname="radisson hotels.svg">
  <defs
     id="defs53">
    <style
       id="style61">.cls-1{fill:#53565a;}</style>
  </defs>
  <sodipodi:namedview
     id="base"
     pagecolor="#ffffff"
     bordercolor="#666666"
     borderopacity="1.0"
     inkscape:pageopacity="0.0"
     inkscape:pageshadow="2"
     inkscape:zoom="0.49438904"
     inkscape:cx="929.42999"
     inkscape:cy="224.51889"
     inkscape:document-units="mm"
     inkscape:current-layer="layer1"
     showgrid="false"
     fit-margin-top="0"
     fit-margin-left="0"
     fit-margin-right="0"
     fit-margin-bottom="0"
     inkscape:window-width="1280"
     inkscape:window-height="744"
     inkscape:window-x="-4"
     inkscape:window-y="-4"
     inkscape:window-maximized="1" />
  <metadata
     id="metadata56">
    <rdf:RDF>
      <cc:Work
         rdf:about="">
        <dc:format>image/svg+xml</dc:format>
        <dc:type
           rdf:resource="http://purl.org/dc/dcmitype/StillImage" />
        <dc:title></dc:title>
      </cc:Work>
    </rdf:RDF>
  </metadata>
  <g
     inkscape:label="Layer 1"
     inkscape:groupmode="layer"
     id="layer1"
     transform="translate(-107.87403,-125.98292)">
    <g
       id="g165"
       transform="translate(0.99999713,-1.00003)">
      <path
         id="path67"
         d="m 139.09486,185.99393 q 2.64584,-2.34156 2.64584,-6.24946 v -0.17462 q 0,-4.33917 -2.77548,-6.5114 -2.77548,-2.17223 -7.72848,-2.16958 h -13.27415 v 17.4625 h 13.54402 q 4.94242,-0.0132 7.58825,-2.35744 z"
         class="cls-1"
         inkscape:connector-curvature="0"
         style="fill:#53565a;stroke-width:0.26458332" />
      <path
         id="path69"
         d="M 201.56828,219.59072 V 195.19614 H 176.9144 v 24.39458 h -13.37204 v -60.77214 h 13.37204 v 24.05062 h 24.65388 v -24.05062 h 10.48544 a 59.414833,59.414833 0 0 0 -104.17969,0 h 25.02429 q 11.54642,0 17.71121,6.16479 5.207,5.21229 5.207,13.89327 v 0.17198 q 0,7.38187 -3.60098,12.02531 a 20.870333,20.870333 0 0 1 -9.41652,6.81302 l 14.84577,21.69583 h -15.63952 l -13.02279,-19.44687 h -10.49338 v 19.44687 h -8.43491 a 59.380437,59.380437 0 0 0 99.81935,0 z"
         class="cls-1"
         inkscape:connector-curvature="0"
         style="fill:#53565a;stroke-width:0.26458332" />
      <rect
         id="rect71"
         height="1.3731875"
         width="356.72711"
         y="196.03221"
         x="242.18182"
         class="cls-1"
         style="fill:#53565a;stroke-width:0.26458332" />
      <path
         id="path73"
         d="m 311.62701,145.48622 7.51152,18.22186 h -14.96219 z m -4.15132,-12.57829 -21.65085,51.94035 h 9.85308 l 4.9583,-12.18935 h 22.04772 l 4.88421,12.18935 h 10.1309 l -21.65086,-51.94035 z"
         class="cls-1"
         inkscape:connector-curvature="0"
         style="fill:#53565a;stroke-width:0.26458332" />
      <path
         id="path75"
         d="m 377.56911,159.13343 c 0,9.89806 -6.50346,16.54704 -16.17927,16.54704 h -8.9535 v -33.24489 h 8.9535 c 9.525,0 16.17927,6.86593 16.17927,16.69785 m -16.17927,-25.86567 h -18.52083 v 51.59375 h 18.52083 c 15.15004,0 26.14612,-10.87702 26.14612,-25.86302 0,-14.90398 -10.99608,-25.7175 -26.14612,-25.7175"
         class="cls-1"
         inkscape:connector-curvature="0"
         style="fill:#53565a;stroke-width:0.26458332" />
      <path
         id="path77"
         d="m 538.42255,159.12814 c 0,9.88748 -6.74953,17.34608 -15.69773,17.34608 -9.03023,0 -15.83796,-7.51681 -15.83796,-17.48896 0,-9.88748 6.74952,-17.34343 15.70037,-17.34343 9.02759,0 15.83532,7.51945 15.83532,17.48631 m -15.69773,-26.72292 c -14.70819,0 -25.80482,11.49086 -25.80482,26.72292 0,15.15798 11.03577,26.58533 25.66459,26.58533 14.71083,0 25.80216,-11.49085 25.80216,-26.72292 0,-15.15533 -11.03048,-26.58268 -25.66458,-26.58268"
         class="cls-1"
         inkscape:connector-curvature="0"
         style="fill:#53565a;stroke-width:0.26458332" />
      <path
         id="path79"
         d="m 272.94492,150.33074 c 0,4.91331 -3.58775,7.96661 -9.36625,7.96661 h -11.84275 v -15.86177 h 11.77661 c 6.08541,0 9.43239,2.80193 9.43239,7.89516 m 9.69434,-0.508 c 0,-10.21027 -7.06438,-16.55762 -18.43882,-16.55762 h -22.01597 v 51.59375 h 9.55145 V 167.2482 h 9.76313 l 11.8401,17.60008 h 11.29771 L 271.4659,165.49137 c 7.21254,-2.3495 11.17336,-7.88988 11.17336,-15.66598"
         class="cls-1"
         inkscape:connector-curvature="0"
         style="fill:#53565a;stroke-width:0.26458332" />
      <rect
         id="rect81"
         height="51.580521"
         width="9.5541039"
         y="133.26776"
         x="395.46552"
         class="cls-1"
         style="fill:#53565a;stroke-width:0.26458332" />
      <path
         id="path83"
         d="m 434.34076,154.49264 c -9.34773,-2.34156 -11.01196,-3.99786 -11.01196,-7.48242 0,-3.29671 2.93158,-5.51392 7.3025,-5.51392 4.19893,0 8.36877,1.66423 12.73968,5.07736 l 0.46038,0.35983 5.1435,-7.59354 -0.37306,-0.3175 c -5.18055,-4.35769 -11.01461,-6.477 -17.83292,-6.477 -10.00919,0 -16.99683,6.27592 -16.99683,15.26117 0,9.62818 6.0325,13.03602 16.45179,15.67391 8.95085,2.16694 10.46427,3.99257 10.46427,7.26282 0,3.62479 -3.06388,5.87375 -7.99306,5.87375 -5.44513,0 -9.88484,-1.92088 -14.84577,-6.4188 l -0.42598,-0.39158 -5.77321,7.19138 0.37042,0.34395 c 5.75204,5.38163 12.827,8.22855 20.46552,8.22855 10.78441,0 17.75354,-6.1595 17.75354,-15.69509 0,-8.04862 -4.6064,-12.50421 -15.89881,-15.38287"
         class="cls-1"
         inkscape:connector-curvature="0"
         style="fill:#53565a;stroke-width:0.26458332" />
      <path
         id="path85"
         d="m 475.98353,154.49264 c -9.34773,-2.34156 -11.01196,-3.99786 -11.01196,-7.48242 0,-3.29671 2.93423,-5.51392 7.29985,-5.51392 4.20158,0 8.36877,1.66423 12.74233,5.07736 l 0.45773,0.35983 5.14615,-7.59354 -0.37306,-0.3175 c -5.18054,-4.35769 -11.01196,-6.477 -17.83557,-6.477 -10.00654,0 -16.99418,6.27592 -16.99418,15.26117 0,9.62818 6.0325,13.03602 16.45179,15.67391 8.95085,2.16694 10.46162,3.99257 10.46162,7.26282 0,3.62479 -3.06123,5.87375 -7.99041,5.87375 -5.43984,0 -9.88219,-1.92088 -14.84577,-6.4188 l -0.42598,-0.39158 -5.77321,7.19138 0.37042,0.34395 c 5.74675,5.38163 12.827,8.22855 20.46552,8.22855 10.78706,0 17.75354,-6.1595 17.75354,-15.69509 0,-8.04862 -4.6064,-12.50421 -15.89881,-15.38287"
         class="cls-1"
         inkscape:connector-curvature="0"
         style="fill:#53565a;stroke-width:0.26458332" />
      <polygon
         transform="matrix(0.26458333,0,0,0.26458333,107.87403,127.98668)"
         id="polygon87"
         points="1825.38,214.08 1826,214.92 1855.88,214.92 1855.88,19.97 1820.3,19.97 1820.3,147.73 1726.47,20.8 1725.85,19.97 1693.1,19.97 1693.1,214.92 1728.68,214.92 1728.68,83.34 "
         class="cls-1"
         style="fill:#53565a" />
      <rect
         id="rect89"
         height="1.3705416"
         width="356.68213"
         y="195.98988"
         x="242.20828"
         class="cls-1"
         style="fill:#53565a;stroke-width:0.26458332" />
      <path
         id="path91"
         d="m 241.96751,208.31418 h 5.94254 v 14.05996 h 16.13958 v -14.05996 h 5.94254 v 33.82433 h -5.94254 v -14.26369 h -16.13958 v 14.25575 h -5.94254 z"
         class="cls-1"
         inkscape:connector-curvature="0"
         style="fill:#53565a;stroke-width:0.26458332" />
      <path
         id="path93"
         d="m 306.04694,225.3216 v -0.0926 c 0,-9.525 7.34484,-17.4916 17.72709,-17.4916 10.38225,0 17.63712,7.87664 17.63712,17.39371 v 0.0979 c 0,9.525 -7.34483,17.49161 -17.72708,17.49161 -10.38225,0 -17.63713,-7.8793 -17.63713,-17.399 z m 29.13592,0 v -0.0926 c 0,-6.57225 -4.78367,-11.98298 -11.49879,-11.98298 -6.71513,0 -11.40354,5.31548 -11.40354,11.88509 v 0.0979 c 0,6.57225 4.78366,11.98298 11.49879,11.98298 6.71512,0 11.39296,-5.31812 11.39296,-11.89037 z"
         class="cls-1"
         inkscape:connector-curvature="0"
         style="fill:#53565a;stroke-width:0.26458332" />
      <path
         id="path95"
         d="m 386.48028,213.8228 h -10.77384 v -5.50862 h 27.49286 v 5.50862 h -10.77648 v 28.31042 h -5.94254 z"
         class="cls-1"
         inkscape:connector-curvature="0"
         style="fill:#53565a;stroke-width:0.26458332" />
      <path
         id="path97"
         d="m 443.71494,208.31418 h 25.07721 v 5.31548 h -19.13467 v 8.79475 h 16.9598 v 5.3631 h -16.9598 v 9.03552 h 19.3728 v 5.31548 h -25.32063 z"
         class="cls-1"
         inkscape:connector-curvature="0"
         style="fill:#53565a;stroke-width:0.26458332" />
      <path
         id="path99"
         d="m 513.48027,208.31418 h 5.94255 v 28.41096 h 17.78264 v 5.41337 h -23.72519 z"
         class="cls-1"
         inkscape:connector-curvature="0"
         style="fill:#53565a;stroke-width:0.26458332" />
      <path
         id="path101"
         d="m 573.50894,237.20932 3.57717,-4.25185 c 3.23585,2.80194 6.52198,4.39738 10.67858,4.39738 3.66977,0 5.99017,-1.74096 5.99017,-4.25186 v -0.0979 c 0,-2.41565 -1.35202,-3.72005 -7.63323,-5.16996 -7.19931,-1.73832 -11.26067,-3.86557 -11.26067,-10.09915 v -0.0952 c 0,-5.79967 4.83394,-9.81075 11.54906,-9.81075 4.92919,0 8.84238,1.50019 12.27402,4.2545 l -3.19087,4.49792 c -3.04271,-2.27013 -6.08542,-3.47927 -9.1784,-3.47927 -3.47927,0 -5.50862,1.78858 -5.50862,4.01108 v 0.0953 c 0,2.60879 1.54517,3.77031 8.06714,5.31548 7.14375,1.74096 10.82411,4.29948 10.82411,9.906 v 0.0952 c 0,6.33148 -4.97681,10.09915 -12.07823,10.09915 a 20.843875,20.843875 0 0 1 -14.11023,-5.41603 z"
         class="cls-1"
         inkscape:connector-curvature="0"
         style="fill:#53565a;stroke-width:0.26458332" />
    </g>
  </g>
</svg>
