<?xml version="1.0" encoding="UTF-8"?>
<svg class="scatec-logo" version="1.1" viewBox="0 0 624 127" xmlns="http://www.w3.org/2000/svg">
 <g id="logo-svg" fill="none" fill-rule="evenodd">
  <g fill="red" fill-rule="nonzero">
   <g fill="#4c209e">
    <path class="logo-text" d="M379.894 6.508l.238.001c.793.025 1.572.284 2.233.76 1.058.76 1.685 1.984 1.685 3.287v26.185h29.59v23.747h-29.59l.001.314v.533l.001.17v.383l.001.212v.461c.01 5.267.033 19.106.041 24.238v.448l.001.205v.369l.001.163v.588l.001.07v.106c0 8.794 7.072 13.363 14.44 13.403l.33-.002c3.524-.045 7.091-1.126 9.965-3.273l7.504 21.011c-6.457 5.133-15.048 6.994-23.043 6.994-10.022 0-37.702-2.531-37.702-37.18V60.488h-22.238V36.74h22.238V14.487l23.121-7.769c.386-.13.784-.199 1.182-.21zM474.57 34.72c19.223 0 43.912 13.57 43.912 46.93v1.216c0 2.45-1.987 4.437-4.437 4.436h-58.7c1.132 10.932 8.858 16.963 18.47 16.963 4.46.058 8.791-1.489 12.205-4.36l27.718 5.994c-.881 1.39-1.84 2.727-2.872 4.008-.143.19-.303.365-.453.55-.21.25-.413.507-.628.752-8.736 9.995-21.376 15.712-34.65 15.673-29.779 0-48.813-21.109-48.813-45.987 0-24.877 19.412-46.175 48.248-46.175zm-310.99-.842c17.154 0 34.147 8.78 41.16 27.246.414 1.1.33 2.324-.229 3.358-.559 1.033-1.538 1.773-2.685 2.029l-21.85 4.873c-2.262-8.67-8.481-13.759-16.962-13.759-9.236 0-18.659 7.162-18.659 22.428 0 15.266 9.423 22.239 18.66 22.239 8.48 0 14.699-5.089 16.96-13.758l26.198 5.843c-5.842 21.485-24.124 31.662-42.593 31.662-28.836 0-47.871-21.108-47.871-45.986 0-24.878 19.035-46.175 47.87-46.175zm101.327 0c6.973 0 18.28 2.073 26.574 10.366l3.58-7.539h18.003c1.074 0 2.104.427 2.863 1.186.76.76 1.186 1.79 1.186 2.863v82.458H295.06l-3.58-7.539c-8.293 8.293-19.601 10.366-26.574 10.366-24.878 0-43.724-19.977-43.724-45.986 0-26.009 18.846-46.174 43.724-46.174zm316.122 0c17.154 0 34.147 8.78 41.16 27.246.414 1.1.33 2.324-.228 3.358-.56 1.033-1.539 1.773-2.686 2.029l-21.85 4.873c-2.262-8.67-8.48-13.759-16.962-13.759-9.235 0-18.659 7.162-18.659 22.428 0 15.266 9.424 22.239 18.66 22.239 8.48 0 14.699-5.089 16.96-13.758l26.198 5.843c-5.842 21.485-24.124 31.662-42.593 31.662-28.836 0-47.871-21.108-47.871-45.986 0-24.878 19.035-46.174 47.87-46.174zM25.755 9.133c2.099-1.08 4.675-.32 5.853 1.725l10.543 18.126c-4.466 1.536-7.217 4.641-7.115 8.513.184 7.021 8.714 9.529 22.74 12.824 8.933 2.099 18.904 4.446 26.976 9.25 9.025 5.271 15.71 13.49 16.057 27.585.544 22.167-18.45 38.125-46.192 38.806-15.842.39-43.975-3.853-54.414-36.635L0 88.687l24.346-8.84.209.713c5.993 20.485 23.326 22.286 30.5 22.11 10.78-.265 18.181-5.614 18-13.009-.021-2.331-.857-4.582-2.364-6.362-3.87-4.18-12.32-5.977-21.13-8.137l-1.038-.256-.52-.13C29.99 70.27 7.575 64.662 6.886 38.399c-.241-9.203 3.842-17.844 11.497-24.332 2.269-1.91 4.741-3.565 7.372-4.934zm243.487 48.492c-12.062 0-19.413 10.178-19.413 22.428s7.351 22.239 19.413 22.239c12.062 0 19.412-9.989 19.412-22.239s-7.35-22.428-19.412-22.428zm204.053-2.876c-9.497 0-17.194 6.967-17.174 15.556l.002.001h34.345c.021-8.59-7.675-15.557-17.173-15.557zM103.278 26.593c1.51.849 2.452 2.44 2.471 4.172.019 1.732-.889 3.343-2.38 4.224L87.916 44.14c-.746.443-1.597.677-2.465.677-2.184.002-4.1-1.458-4.678-3.564-.578-2.107.325-4.34 2.204-5.453l15.453-9.15c1.49-.885 3.338-.906 4.848-.057zM83.506 7.22c2.314 1.345 3.1 4.311 1.756 6.626l-8.99 15.474c-.868 1.495-2.467 2.414-4.196 2.412-1.732-.002-3.332-.93-4.196-2.431-.864-1.503-.86-3.352.01-4.85l8.99-15.475c1.345-2.314 4.312-3.1 6.626-1.756zM53.957 0c2.67 0 4.837 2.16 4.846 4.83l.062 17.891c.01 2.676-2.152 4.854-4.829 4.863h-.017c-2.67 0-4.837-2.16-4.846-4.829L49.11 4.863C49.101 2.187 51.263.01 53.94 0h.017z" fill="#4c209e"/>
   </g>
  </g>
 </g>
</svg>
