<svg version="1.1" id="Layer_1" xmlns="http://www.w3.org/2000/svg" xmlns:xlink="http://www.w3.org/1999/xlink" x="0px" y="0px"
	 width="100%" viewBox="0 0 549 228" enable-background="new 0 0 549 228" xml:space="preserve">
<path fill="#FFFFFF" opacity="1.000000" stroke="none" 
	d="
M349.000000,229.000000 
	C232.666672,229.000000 116.833336,229.000000 1.000000,229.000000 
	C1.000000,153.000000 1.000000,77.000000 1.000000,1.000000 
	C184.000000,1.000000 367.000000,1.000000 550.000000,1.000000 
	C550.000000,77.000000 550.000000,153.000000 550.000000,229.000000 
	C483.166656,229.000000 416.333344,229.000000 349.000000,229.000000 
M287.556610,208.946121 
	C287.656006,208.639648 287.755402,208.333160 287.995544,207.095856 
	C287.951752,200.726654 287.907959,194.357452 287.998138,187.122147 
	C287.998138,185.866989 287.998138,184.611832 287.998138,183.312927 
	C286.103485,183.312927 284.581757,183.312927 283.125763,183.312927 
	C283.125763,185.069016 283.125763,186.529037 282.978180,188.916992 
	C283.029236,195.284576 283.080292,201.652176 283.054993,208.558167 
	C283.362885,208.666626 283.670776,208.775070 284.730377,209.040085 
	C285.492767,208.987625 286.255157,208.935165 287.556610,208.946121 
M517.799683,187.241013 
	C516.972412,186.530914 516.145081,185.820801 514.663635,184.549194 
	C512.210999,192.774750 512.423340,200.368683 514.043274,208.551514 
	C514.352905,208.659485 514.662537,208.767441 515.725769,209.039078 
	C516.491028,208.985199 517.256287,208.931305 518.555115,208.939285 
	C518.660522,208.635193 518.765869,208.331100 519.030945,207.098999 
	C518.976624,201.058044 518.922302,195.017090 518.927734,188.435196 
	C518.630127,188.245773 518.332520,188.056335 517.799683,187.241013 
M256.800812,187.243362 
	C255.973358,186.532318 255.145920,185.821274 253.663193,184.547119 
	C251.212540,192.773483 251.417084,200.366791 253.045868,208.547546 
	C253.353867,208.655548 253.661850,208.763565 254.724075,209.038010 
	C255.490540,208.983398 256.256989,208.928802 257.554932,208.937302 
	C257.660675,208.634262 257.766449,208.331223 258.034607,207.100464 
	C257.979065,201.058563 257.923523,195.016647 257.924683,188.435028 
	C257.627472,188.246933 257.330261,188.058838 256.800812,187.243362 
M89.725685,209.038864 
	C90.490601,208.985641 91.255524,208.932434 92.555527,208.941193 
	C92.660118,208.636368 92.764702,208.331558 93.025612,207.098282 
	C92.971008,201.057404 92.916405,195.016525 92.924057,188.436768 
	C92.627663,188.247452 92.331268,188.058136 91.816299,187.259903 
	C91.031158,186.523499 90.246025,185.787109 89.116562,184.727768 
	C88.662560,185.967087 88.313438,186.920120 87.453140,188.045425 
	C87.346069,188.353149 87.238998,188.660889 86.965599,189.895035 
	C86.661797,195.548782 86.357994,201.202530 86.013245,206.119873 
	C82.221779,200.288391 80.361290,194.437729 85.343475,187.283737 
	C82.579697,188.407745 79.815926,189.531738 77.942406,190.293686 
	C75.921104,189.570831 73.947647,188.865082 71.450821,188.072998 
	C71.347855,188.372894 71.244888,188.672806 70.977158,189.899933 
	C71.028984,195.940384 71.080803,201.980835 71.059921,208.555832 
	C71.365349,208.662750 71.670776,208.769684 72.728813,209.036713 
	C73.492577,208.983154 74.256348,208.929596 75.564453,208.935593 
	C75.746956,208.633606 75.929459,208.331619 76.816887,207.653671 
	C76.941818,205.601257 77.066742,203.548843 77.234863,200.786896 
	C78.816399,203.707001 79.986496,205.867462 81.067558,208.553879 
	C81.369415,208.659607 81.671280,208.765350 82.771500,209.036133 
	C83.852707,208.980194 84.933907,208.924255 86.556679,208.932999 
	C86.759651,208.639404 86.962631,208.345825 87.505737,208.053040 
	C87.505737,208.053040 87.845787,208.045578 88.039955,208.553345 
	C88.350800,208.660782 88.661652,208.768204 89.725685,209.038864 
M25.842272,193.045166 
	C26.546564,193.959839 27.794210,194.836838 27.860706,195.795731 
	C28.142456,199.858810 28.073298,203.946213 28.065531,208.554184 
	C28.367779,208.660583 28.670027,208.766968 29.726316,209.038910 
	C30.492231,208.983475 31.258144,208.928040 32.565010,208.927734 
	C32.746120,208.627472 32.927231,208.327194 33.859119,207.590240 
	C33.859119,202.968491 33.859119,198.346725 33.859119,194.750916 
	C35.663906,192.772751 36.818726,191.507004 37.973553,190.241257 
	C36.244869,189.489227 34.571785,188.322708 32.774567,188.081635 
	C30.031124,187.713623 27.201897,187.985168 24.145264,187.985168 
	C24.145264,189.517181 24.145264,190.772156 24.063948,192.556351 
	C24.367170,192.663773 24.670393,192.771179 25.842272,193.045166 
M322.033905,205.118774 
	C323.915131,197.675613 317.658691,196.200546 313.120270,193.834534 
	C316.332489,193.099350 319.222443,192.437927 322.112396,191.776505 
	C316.857025,186.835114 311.025513,186.725433 308.957214,190.709976 
	C304.740662,198.833008 312.966278,199.387238 317.053925,202.407730 
	C316.850555,202.862015 316.647186,203.316299 316.443817,203.770584 
	C314.597809,203.288467 312.751801,202.806335 310.245056,202.151657 
	C309.652100,202.693390 308.611694,203.643936 307.616486,204.553162 
	C312.411621,210.293228 316.065948,210.489288 322.020844,206.671585 
	C322.725861,207.444366 323.588959,208.957047 324.105377,208.846725 
	C325.477051,208.553711 327.069550,207.849060 327.900482,206.783020 
	C329.436279,204.812637 332.384338,204.100937 332.811462,206.052811 
	C333.731476,210.257019 336.442169,208.697174 339.542450,208.913879 
	C337.599030,202.636124 335.951141,196.857147 333.952484,191.202133 
	C333.496521,189.911987 331.636230,188.050568 330.762695,188.218887 
	C329.355347,188.490097 327.656036,189.997101 327.091553,191.391541 
	C325.165527,196.148895 323.681122,201.085022 322.033905,205.118774 
M495.913513,204.458954 
	C495.621063,204.365479 495.328583,204.272003 494.166473,204.016647 
	C492.453766,203.578781 490.741028,203.140900 489.028320,202.703033 
	C490.828461,201.877823 492.628632,201.052597 494.668457,200.117523 
	C494.668457,199.104202 494.668457,197.581039 494.668457,196.614502 
	C492.497711,195.941559 490.769592,195.405838 489.041443,194.870102 
	C490.556183,194.239883 492.165222,193.765625 493.553284,192.925980 
	C494.519684,192.341400 495.824554,191.236038 495.799408,190.398758 
	C495.774597,189.574265 494.311584,188.177078 493.397339,188.107193 
	C490.275330,187.868515 487.117126,188.103622 483.450928,188.074768 
	C483.347809,188.373596 483.244720,188.672424 482.975128,189.898422 
	C483.027161,195.939774 483.079163,201.981110 483.060028,208.556473 
	C483.365112,208.664078 483.670227,208.771683 484.883636,209.040497 
	C488.262695,208.986450 491.641754,208.932404 495.554871,208.940582 
	C495.656525,208.636627 495.758179,208.332672 496.011139,207.270920 
	C495.953552,206.504639 495.895996,205.738373 495.913513,204.458954 
M447.998810,207.163528 
	C448.394012,201.032898 443.192780,205.580078 441.184540,203.358749 
	C441.184540,202.607468 441.184540,201.526886 441.184540,200.657013 
	C443.123413,200.774567 444.931244,200.884171 446.788391,200.996780 
	C446.788391,199.095398 446.788391,197.688232 446.788391,196.746719 
	C444.641205,195.983215 442.835938,195.341278 441.030670,194.699356 
	C443.152313,193.845200 445.273956,192.991043 447.670593,192.026154 
	C447.670593,191.127853 447.670593,189.626236 447.670593,188.156952 
	C443.543610,188.156952 439.757233,188.156952 435.448578,188.072723 
	C435.344116,188.372009 435.239624,188.671310 434.967133,189.897614 
	C435.021118,195.939728 435.075134,201.981857 435.064209,208.554459 
	C435.366852,208.660660 435.669495,208.766861 436.880463,209.037750 
	C440.261536,208.982498 443.642609,208.927246 447.552002,208.934799 
	C447.650391,208.634338 447.748749,208.333893 447.998810,207.163528 
M123.000923,191.271133 
	C122.950523,190.508377 122.900124,189.745636 122.932472,188.451614 
	C122.628838,188.351212 122.325203,188.250809 121.112511,187.998886 
	C117.736221,188.047333 114.359924,188.095779 110.446815,188.059143 
	C110.342926,188.366302 110.239037,188.673477 109.985268,189.909058 
	C110.037140,195.944672 110.089005,201.980301 110.065430,208.549149 
	C110.369247,208.645996 110.673065,208.742828 111.897278,208.983536 
	C115.507431,208.983536 119.117584,208.983536 122.805511,208.983536 
	C122.805511,207.153595 122.805511,205.749283 122.805511,205.048004 
	C120.264503,204.001892 118.149338,203.131088 116.034164,202.260315 
	C117.855499,201.636749 119.676834,201.013199 121.696907,200.321594 
	C121.696907,199.132172 121.696907,197.610962 121.696907,196.127121 
	C119.597725,195.995941 117.831230,195.885544 116.064728,195.775162 
	C115.951149,195.180359 115.837570,194.585571 115.723991,193.990784 
	C117.822617,193.603531 119.921242,193.216278 122.543091,192.922470 
	C122.642845,192.622467 122.742599,192.322449 123.000923,191.271133 
M428.909668,208.013779 
	C433.512817,207.298889 432.976624,203.755203 432.991821,200.547165 
	C433.051392,187.973907 432.514343,187.470001 419.450684,188.074631 
	C419.347412,188.373428 419.244141,188.672226 418.973907,189.898132 
	C419.026520,195.939743 419.079132,201.981354 419.061493,208.555771 
	C419.365845,208.662979 419.670197,208.770187 420.844360,209.039658 
	C422.903656,208.984833 424.962921,208.929993 427.564941,208.931702 
	C427.747345,208.630753 427.929749,208.329803 428.909668,208.013779 
M59.990887,207.187469 
	C59.990887,205.263062 59.990887,203.338654 59.990887,201.414246 
	C60.247402,201.332962 60.503922,201.251678 60.760437,201.170395 
	C61.935711,203.684143 63.110981,206.197891 64.333603,208.812927 
	C65.764320,208.812927 67.195534,208.812927 69.006569,208.812927 
	C69.006569,207.853775 69.226395,206.987518 68.969093,206.299774 
	C67.754997,203.054611 66.526497,200.206192 68.732864,196.480713 
	C69.643166,194.943680 68.099640,190.068024 66.473480,189.321320 
	C63.437012,187.927017 59.524540,188.440445 55.452271,188.073090 
	C55.350777,188.373383 55.249287,188.673676 54.986240,189.901520 
	C55.035702,195.940826 55.085159,201.980133 55.056164,208.557098 
	C55.363716,208.664703 55.671268,208.772308 56.730427,209.036499 
	C57.492702,208.984024 58.254978,208.931564 59.555592,208.944855 
	C59.654064,208.638748 59.752541,208.332626 59.990887,207.187469 
M306.009369,207.091507 
	C305.956512,201.054565 305.903656,195.017609 305.930664,188.451813 
	C305.628693,188.352859 305.326691,188.253906 304.154175,188.002213 
	C297.284058,188.459244 303.242218,194.219543 300.553497,196.273697 
	C295.409607,187.904663 295.409607,187.904663 291.203125,188.472214 
	C291.203125,195.197845 291.203125,201.928833 291.203125,208.625427 
	C292.931793,208.625427 294.440887,208.625427 296.156128,208.625427 
	C296.156128,205.695221 296.156128,203.134949 296.156128,199.926376 
	C298.051422,203.001846 299.597168,205.510132 301.050262,208.559525 
	C301.360840,208.668777 301.671417,208.778030 302.732574,209.038849 
	C303.493164,208.988098 304.253754,208.937347 305.558960,208.951538 
	C305.661896,208.641464 305.764832,208.331406 306.009369,207.091507 
M344.558136,208.950668 
	C344.656006,208.641769 344.753876,208.332870 344.983032,207.170135 
	C344.983032,204.961533 344.983032,202.752930 344.983032,199.244934 
	C347.316742,203.233047 348.966309,206.052017 350.520050,208.707214 
	C352.026520,208.707214 353.420166,208.707214 354.770935,208.707214 
	C354.770935,201.689926 354.770935,194.962616 354.770935,188.211258 
	C353.123169,188.211258 351.716705,188.211258 349.946655,188.211258 
	C349.946655,191.092743 349.946655,193.770294 349.946655,197.915619 
	C348.535400,194.890259 347.718933,193.235535 346.985107,191.544907 
	C345.829010,188.881241 344.197083,187.133011 340.452728,188.071579 
	C340.352600,188.372955 340.252441,188.674347 339.995361,189.903748 
	C340.041473,195.941559 340.087585,201.979370 340.050293,208.559479 
	C340.360809,208.668472 340.671295,208.777466 341.732483,209.038239 
	C342.493164,208.987228 343.253845,208.936234 344.558136,208.950668 
M503.056183,196.113480 
	C503.830902,195.124390 504.565552,193.349915 505.388550,193.307907 
	C507.161346,193.217438 508.979645,194.017929 510.779297,194.453796 
	C511.057465,193.850037 511.335632,193.246277 511.613800,192.642517 
	C509.984680,190.799728 508.355591,188.956955 506.985046,187.406677 
	C507.771332,186.335876 508.836060,184.885895 509.903564,183.432159 
	C506.067719,183.432159 502.572113,183.432159 498.372894,183.432159 
	C499.823456,185.219940 500.771790,186.388763 501.728516,187.567902 
	C496.969879,190.777008 495.308258,198.587631 497.793549,204.337921 
	C499.517700,208.327042 502.565430,209.612640 506.506226,208.738342 
	C509.848999,207.996719 512.760132,203.112076 511.931427,199.506683 
	C510.872498,194.899658 507.007996,197.791901 504.468079,197.093567 
	C504.322815,197.053619 504.142456,197.141190 503.567078,197.011673 
	C503.567078,197.011673 503.135193,196.924637 503.056183,196.113480 
M476.064758,208.555283 
	C476.368011,208.662064 476.671295,208.768845 477.727539,209.038574 
	C478.492126,208.984619 479.256714,208.930679 480.555054,208.939301 
	C480.660217,208.635117 480.765381,208.330933 481.029816,207.098724 
	C480.974365,201.057938 480.918945,195.017136 480.930420,188.450333 
	C480.630951,188.352142 480.331451,188.253952 479.162231,188.000854 
	C477.881256,188.000854 476.600281,188.000854 474.971313,188.000854 
	C474.971313,190.403656 474.971313,192.438766 474.971313,194.551682 
	C471.604218,192.761658 472.257782,186.008072 466.175781,188.386154 
	C466.175781,195.184631 466.175781,201.947540 466.175781,208.911362 
	C473.848389,209.549194 469.643646,203.223404 471.387756,200.494614 
	C472.984406,203.015472 474.571716,205.521561 476.064758,208.555283 
M212.728714,209.039246 
	C213.492981,208.984467 214.257263,208.929672 215.564407,208.932190 
	C215.746582,208.631088 215.928757,208.329987 216.815842,207.656128 
	C216.931198,205.597122 217.046555,203.538116 217.178726,201.179016 
	C218.554489,203.195526 219.927811,204.789017 220.828186,206.615631 
	C222.693649,210.400208 224.683258,209.584717 227.018951,207.855270 
	C229.470627,209.832153 231.485565,209.908203 233.026886,206.709167 
	C234.085022,204.512955 237.300980,204.161850 237.846115,206.217133 
	C238.938065,210.334122 241.533401,208.781891 244.601334,208.670425 
	C242.653046,202.467590 240.982529,196.657562 238.927002,190.987106 
	C238.473038,189.734802 236.627655,188.172867 235.474182,188.213348 
	C234.280655,188.255219 232.576462,189.858154 232.091293,191.151672 
	C230.113205,196.425491 228.516541,201.842377 226.978683,206.262863 
	C226.985138,201.807266 226.780701,197.338608 227.055161,192.899582 
	C227.351624,188.104340 225.192612,187.236862 220.813904,188.484070 
	C220.813904,190.868607 220.813904,193.166382 220.813904,195.895233 
	C218.052505,192.502136 218.072876,186.770432 211.450623,188.073517 
	C211.347748,188.372894 211.244873,188.672256 210.976929,189.898956 
	C211.028748,195.940063 211.080551,201.981171 211.060059,208.556320 
	C211.365219,208.663727 211.670364,208.771118 212.728714,209.039246 
M168.553650,208.940338 
	C168.650269,208.637009 168.746872,208.333679 168.984726,207.190781 
	C168.984726,205.263367 168.984726,203.335938 168.984726,201.408524 
	C169.245819,201.326187 169.506927,201.243851 169.768021,201.161530 
	C171.000885,203.772369 172.233749,206.383224 173.599686,209.275879 
	C177.564346,207.616745 183.059036,212.012436 185.450424,205.440903 
	C185.532394,205.215637 187.841095,205.800674 189.034653,206.563965 
	C189.340912,206.756165 189.647171,206.948364 190.020538,207.952042 
	C191.486618,208.413330 192.952698,208.874619 194.887741,209.483444 
	C194.887741,207.455032 194.887741,206.223495 194.967499,204.435379 
	C194.661285,204.241409 194.355087,204.047424 194.014328,203.228867 
	C193.970032,202.816376 193.925751,202.403900 193.963837,201.436737 
	C193.657639,201.245499 193.351456,201.054245 193.010406,200.089294 
	C192.635590,198.390137 192.260773,196.690994 191.966888,194.435669 
	C191.660751,194.241943 191.354599,194.048233 191.013367,193.229614 
	C190.969116,192.816849 190.924850,192.404083 190.963776,191.436752 
	C190.657532,191.245682 190.351288,191.054611 190.004547,190.235626 
	C189.960068,189.820770 189.915573,189.405914 189.955902,188.441132 
	C189.641800,188.338699 189.327682,188.236267 188.215530,188.002411 
	C187.140656,188.045166 186.065796,188.087936 184.439911,188.041595 
	C184.336624,188.356674 184.233337,188.671738 184.002274,189.605591 
	C183.985809,190.026276 183.969345,190.446976 183.419769,191.028198 
	C183.320190,191.347412 183.220612,191.666641 182.989853,192.600784 
	C182.976105,193.019592 182.962357,193.438416 182.416382,194.025497 
	C182.315521,194.345901 182.214676,194.666290 181.982269,195.599014 
	C181.970139,196.016266 181.958008,196.433502 181.413086,197.022690 
	C181.311005,197.344284 181.208908,197.665878 180.977661,198.698929 
	C180.969299,199.421616 180.960938,200.144318 180.419296,201.027817 
	C180.319626,201.347198 180.219940,201.666580 179.988937,202.600052 
	C179.975189,203.018356 179.961426,203.436661 179.415817,204.025070 
	C179.314743,204.345657 179.213669,204.666245 178.983734,205.726074 
	C178.970184,206.219879 178.979553,206.716187 178.926437,207.205704 
	C178.913681,207.323273 178.693451,207.418350 177.876984,208.107956 
	C177.540573,204.603516 176.163879,201.144653 177.175507,198.657059 
	C179.698898,192.452042 177.494293,188.011734 170.890060,187.998138 
	C168.918076,187.994080 166.945877,188.104034 164.452164,188.075363 
	C164.350098,188.374222 164.248016,188.673080 163.980484,189.899155 
	C164.031784,195.939957 164.083084,201.980759 164.059982,208.555862 
	C164.365372,208.662827 164.670761,208.769791 165.728775,209.036865 
	C166.492493,208.982986 167.256210,208.929108 168.553650,208.940338 
M394.059082,39.554531 
	C394.365021,39.657761 394.670929,39.760994 395.906158,40.014946 
	C402.610565,39.963444 409.314972,39.911942 416.552948,39.938038 
	C416.655396,39.633301 416.757812,39.328568 417.012207,38.095127 
	C416.957642,32.056335 416.903076,26.017544 416.924194,19.455097 
	C416.625732,19.359682 416.327240,19.264267 415.099152,19.015938 
	C408.391693,19.065460 401.684265,19.114983 394.451904,19.072186 
	C394.348999,19.373339 394.246094,19.674490 393.982330,20.903093 
	C394.033264,26.941664 394.084198,32.980236 394.059082,39.554531 
M394.451447,45.071476 
	C394.348419,45.372959 394.245361,45.674442 393.981781,46.904125 
	C394.031708,79.942169 394.081635,112.980217 394.056183,146.556152 
	C394.363312,146.660339 394.670441,146.764511 395.906860,147.018906 
	C402.610809,146.967804 409.314728,146.916718 416.554413,146.940796 
	C416.657227,146.634995 416.760071,146.329193 417.013031,145.093765 
	C416.958588,112.055496 416.904175,79.017235 416.925049,45.454559 
	C416.626160,45.358761 416.327271,45.262962 415.098816,45.014202 
	C408.391541,45.063801 401.684296,45.113400 394.451447,45.071476 
M256.554840,146.939072 
	C256.659027,146.634491 256.763214,146.329910 257.023621,145.096329 
	C257.028870,120.080360 257.017700,95.064354 257.076141,70.048508 
	C257.080078,68.373787 257.611481,66.700294 258.046753,65.543518 
	C258.353302,65.653862 258.659851,65.764198 259.893951,66.046806 
	C267.605286,65.989365 275.316620,65.931931 283.567017,65.923027 
	C283.745941,65.623306 283.924896,65.323578 284.859802,64.591026 
	C284.906097,59.761299 284.745483,54.917896 285.063690,50.106148 
	C285.321045,46.214180 284.105164,44.881603 280.036835,44.911709 
	C256.207001,45.088024 232.375183,44.996326 208.544037,45.009209 
	C207.767670,45.009628 206.991394,45.162483 205.578506,45.311348 
	C206.028046,52.069309 206.459061,58.548832 207.046249,65.543686 
	C207.352951,65.653969 207.659668,65.764252 208.893951,66.046799 
	C216.605286,65.989380 224.316635,65.931961 232.567032,65.923042 
	C232.746201,65.623375 232.925369,65.323708 233.863388,65.441101 
	C233.902206,68.424164 233.967514,71.407150 233.975632,74.390297 
	C234.040604,98.268295 234.094788,122.146317 234.071274,146.549637 
	C234.371765,146.652039 234.672272,146.754440 235.900955,147.018478 
	C242.607773,146.967484 249.314606,146.916473 256.554840,146.939072 
M118.323982,160.313400 
	C122.459801,159.140152 126.867691,158.527969 130.676697,156.680817 
	C139.528992,152.387924 146.686646,145.857956 152.535736,137.949448 
	C164.905838,121.223923 169.953934,102.695274 166.532700,81.966919 
	C164.187424,67.757416 157.117599,56.030663 147.829468,45.471031 
	C146.107925,43.513832 143.423965,42.403183 140.878830,40.275692 
	C138.619324,38.391438 136.194794,36.671078 134.130524,34.592899 
	C127.314705,27.731140 118.874878,24.633141 109.490860,23.838772 
	C103.652199,23.344521 97.780579,23.181856 91.919609,23.027153 
	C87.301476,22.905254 82.487350,22.180222 78.086128,23.170822 
	C49.467949,29.612043 32.559296,48.370296 24.225117,75.707161 
	C23.816566,77.047249 24.658873,78.768684 24.630756,80.844917 
	C23.746447,83.984505 22.359056,87.076904 22.059483,90.271332 
	C20.116470,110.989944 27.836641,128.718628 41.320354,143.503525 
	C58.015003,161.809235 79.719711,168.621323 104.202888,165.818375 
	C108.883720,165.282501 113.317307,162.586990 118.323982,160.313400 
M294.992065,114.981941 
	C295.191437,130.513306 304.336029,143.727524 318.315247,147.609604 
	C326.413666,149.858566 334.786163,149.986832 343.439331,149.300232 
	C362.684937,147.773132 374.641937,131.642853 375.565704,115.965614 
	C375.672729,115.650642 375.779785,115.335670 376.036011,114.091263 
	C375.973785,91.387276 375.911560,68.683296 375.925262,45.454590 
	C375.626160,45.359009 375.327087,45.263424 374.098267,45.015388 
	C367.165161,45.015388 360.232056,45.015388 352.986786,45.015388 
	C352.986786,64.752159 353.108368,84.019913 352.896149,103.283981 
	C352.846802,107.764870 351.562714,112.221367 351.022064,116.710197 
	C350.251740,123.105865 346.651276,126.402603 340.505646,128.159317 
	C330.344727,131.063782 322.054871,127.279724 319.123901,117.234581 
	C317.913116,113.084991 317.155640,108.654556 317.104401,104.341019 
	C316.887085,86.040993 317.017700,67.736893 317.001617,49.434296 
	C317.000366,48.006268 316.848328,46.578369 316.767181,45.164864 
	C309.240448,45.164864 302.105591,45.164864 294.449097,45.073040 
	C294.344879,45.372635 294.240662,45.672234 293.969818,46.899624 
	C294.019806,68.940170 294.069794,90.980721 294.064728,113.565979 
	C294.366577,113.749138 294.668457,113.932297 294.992065,114.981941 
M437.896515,147.017929 
	C452.603699,146.973282 467.310913,146.928619 482.567200,146.946030 
	C482.753357,146.642212 482.939514,146.338394 483.980072,146.011383 
	C499.896698,145.329605 513.767273,135.549561 518.958618,120.600624 
	C523.867188,106.465958 522.848877,91.836769 520.658264,77.405975 
	C519.360657,68.857742 514.802917,61.407829 508.711609,55.345161 
	C501.127991,47.797215 491.191925,45.297459 480.875702,45.077305 
	C466.247070,44.765129 451.604584,45.103226 436.446991,45.072407 
	C436.341675,45.371735 436.236359,45.671062 435.962006,46.897980 
	C436.017883,79.940430 436.073761,112.982880 436.067810,146.551849 
	C436.367645,146.653503 436.667450,146.755157 437.896515,147.017929 
M357.004242,202.334427 
	C357.012726,208.994873 357.012726,208.995041 363.867554,208.995728 
	C366.692230,208.996002 369.546356,209.233597 372.328583,208.889877 
	C373.629761,208.729141 374.804840,207.463470 376.012695,206.661880 
	C376.796844,206.141479 377.581024,205.057709 378.286133,205.120087 
	C379.227692,205.203384 380.518677,205.947296 380.915497,206.767517 
	C382.496216,210.034637 384.416412,209.515045 386.882904,207.672791 
	C385.243011,202.108948 383.766571,196.595932 381.922119,191.208939 
	C381.480835,189.920044 379.846741,188.254364 378.701172,188.206757 
	C377.491180,188.156464 375.546570,189.577774 375.077118,190.799683 
	C373.321045,195.370346 372.037506,200.122559 370.799713,204.091675 
	C367.954224,204.091675 365.590057,204.091675 362.994507,204.091675 
	C362.994507,200.005905 363.012054,196.538177 362.990417,193.070694 
	C362.957489,187.792450 362.861542,187.724762 357.004272,188.518784 
	C357.004272,192.777908 357.004272,197.077164 357.004242,202.334427 
M395.948486,205.777588 
	C396.065521,210.225098 399.241730,208.665909 402.307007,209.101562 
	C401.781128,206.909805 401.321808,205.295944 401.021088,203.653046 
	C400.746338,202.152069 400.107513,200.437546 400.551788,199.130737 
	C403.403473,190.741791 401.578461,187.971695 392.888153,187.988785 
	C391.309937,187.991898 389.731689,187.989227 388.264771,187.989227 
	C388.264771,195.374496 388.264771,202.112823 388.264771,209.047531 
	C389.969330,208.947220 391.389008,208.863678 393.161255,208.759384 
	C393.161255,206.144241 393.161255,203.822403 393.161255,201.500580 
	C393.427826,201.450226 393.694427,201.399872 393.960999,201.349518 
	C394.484589,202.591110 395.008148,203.832703 395.948486,205.777588 
M450.003387,202.393768 
	C450.003387,204.530807 450.003387,206.667847 450.003387,208.747192 
	C457.344727,210.083527 453.961639,204.101929 455.361298,201.457916 
	C458.003601,203.902985 456.661133,211.328110 463.835541,208.038208 
	C462.841248,205.045670 461.956024,202.381516 460.995880,199.491791 
	C465.173096,197.144196 464.934967,192.487808 462.414398,190.503281 
	C459.429810,188.153473 454.613098,188.130661 450.003326,186.948685 
	C450.003326,192.818481 450.003326,197.118881 450.003387,202.393768 
M141.429672,208.098587 
	C142.951874,206.017059 145.173981,204.128677 145.815506,201.804092 
	C146.582275,199.025787 146.019562,195.874191 145.992477,192.884628 
	C145.945633,187.712280 145.658096,187.511597 139.314240,188.811615 
	C139.314240,193.713974 139.314240,198.786728 139.314240,203.859482 
	C138.541489,203.855392 137.768753,203.851303 136.996002,203.847214 
	C136.996002,200.204468 136.794662,196.547760 137.045868,192.922409 
	C137.375870,188.159988 135.272415,187.168762 131.001114,188.470383 
	C131.001114,192.573868 130.847153,196.552887 131.036179,200.515549 
	C131.341263,206.911438 134.333588,209.302261 141.429672,208.098587 
M263.977325,208.878708 
	C263.629700,210.423035 263.282043,211.967346 262.930481,213.529114 
	C270.074402,214.513260 270.667206,214.021347 270.844971,209.883575 
	C272.482208,208.754211 273.445801,206.812820 273.978271,204.759628 
	C275.901520,197.343231 269.424988,196.195480 264.210907,193.379547 
	C271.625366,193.017776 271.625366,193.017776 273.563904,190.048309 
	C268.352509,186.872284 262.969757,186.846802 260.968140,190.703064 
	C256.758972,198.812408 264.940552,199.401276 269.067902,202.394409 
	C268.863708,202.851196 268.659515,203.307968 268.455353,203.764740 
	C266.607330,203.286560 264.759308,202.808395 262.279236,202.166672 
	C261.665588,202.713837 260.609070,203.655884 259.093018,205.007690 
	C261.048248,206.366119 262.339081,207.262924 263.977325,208.878708 
M161.988098,204.745239 
	C157.704102,199.071075 156.851364,193.574890 163.776825,188.809418 
	C157.630829,186.356552 155.182785,189.564697 153.155838,194.512970 
	C153.020599,191.738953 152.934784,189.978622 152.849442,188.228149 
	C151.103287,188.228149 149.697159,188.228149 148.212646,188.228149 
	C148.212646,195.214447 148.212646,201.964005 148.212646,208.793457 
	C149.854553,208.793457 151.276276,208.793457 152.650101,208.793457 
	C153.021835,206.477112 153.361847,204.358459 153.827072,201.459610 
	C158.268814,209.071625 158.268814,209.071625 163.205368,208.568390 
	C162.802246,207.486771 162.440613,206.516464 161.988098,204.745239 
M51.452026,188.045853 
	C50.115196,187.642456 48.778366,187.239059 46.817627,186.647400 
	C46.817627,192.783920 46.817627,198.323044 46.817627,203.862183 
	C41.613461,199.085571 46.052177,192.328552 42.921261,187.205780 
	C41.429848,187.710968 40.176445,188.135544 38.995731,188.535492 
	C38.995731,193.255783 39.071140,197.583069 38.973076,201.906418 
	C38.886822,205.708801 40.526302,208.302734 44.255085,208.909958 
	C48.329876,209.573547 51.965496,207.524628 52.510029,203.728714 
	C53.214127,198.820465 52.308052,193.681229 51.452026,188.045853 
M98.967377,201.025787 
	C98.967377,203.643845 98.967377,206.261902 98.967377,208.738342 
	C103.107376,209.628998 103.974075,207.905991 104.108147,204.517593 
	C104.225403,201.554321 105.188972,198.575256 106.105934,195.707840 
	C106.898827,193.228409 108.151680,190.896072 109.213989,188.469498 
	C103.773613,186.707535 102.374611,189.868790 101.586922,194.170929 
	C100.809502,191.817505 100.216316,190.021820 99.678177,188.392761 
	C97.735443,188.392761 95.891129,188.392761 93.502029,188.392761 
	C95.383827,192.682114 97.033646,196.442703 98.967377,201.025787 
M210.001465,190.139938 
	C209.246140,189.423615 207.974442,187.985397 207.813766,188.100342 
	C205.731339,189.590027 203.806778,191.300430 202.101349,192.737030 
	C201.797195,191.815674 201.206345,190.025879 200.528870,187.973633 
	C198.737045,188.054413 196.896210,188.137405 195.588791,188.196335 
	C197.526459,195.172302 199.352280,201.745651 201.350830,208.940826 
	C202.726303,209.129639 204.417068,209.305389 205.123367,205.868729 
	C206.168823,200.781860 208.117294,195.880554 210.001465,190.139938 
M408.996521,195.560394 
	C408.996521,193.128281 408.996521,190.696152 408.996521,188.194717 
	C407.131073,188.194717 405.735443,188.194717 404.288696,188.194717 
	C404.288696,195.242798 404.288696,202.082901 404.288696,209.083420 
	C406.008026,208.955383 407.408936,208.851044 408.996521,208.732819 
	C408.996521,204.430069 408.996521,200.484222 408.996521,195.560394 
z"/>
<path fill="#231F20" opacity="1.000000" stroke="none" 
	d="
M436.129639,146.025330 
	C436.073761,112.982880 436.017883,79.940430 436.236145,46.360313 
	C436.737671,45.654858 436.890228,45.435120 436.968018,45.163437 
	C451.604584,45.103226 466.247070,44.765129 480.875702,45.077305 
	C491.191925,45.297459 501.127991,47.797215 508.711609,55.345161 
	C514.802917,61.407829 519.360657,68.857742 520.658264,77.405975 
	C522.848877,91.836769 523.867188,106.465958 518.958618,120.600624 
	C513.767273,135.549561 499.896698,145.329605 483.322632,146.101929 
	C482.342346,146.322754 482.126678,146.553253 482.018097,146.883972 
	C467.310913,146.928619 452.603699,146.973282 437.351990,146.745697 
	C436.644501,146.228836 436.418549,146.079468 436.129639,146.025330 
M486.854065,68.365311 
	C478.412689,63.811543 469.092834,67.316742 460.307495,65.511963 
	C460.307495,85.537193 460.307495,105.596619 460.307495,125.980598 
	C465.842957,125.980598 471.203796,126.514000 476.413757,125.854965 
	C484.134583,124.878334 491.289124,122.245834 494.356903,114.035667 
	C495.748413,110.311729 497.339264,106.448944 497.617310,102.561714 
	C498.505402,90.146210 498.364471,77.830612 486.854065,68.365311 
z"/>
<path fill="#231F20" opacity="1.000000" stroke="none" 
	d="
M375.849335,45.979313 
	C375.911560,68.683296 375.973785,91.387276 375.751526,114.677734 
	C375.242889,115.510536 375.100128,115.797379 375.038788,116.124725 
	C374.641937,131.642853 362.684937,147.773132 343.439331,149.300232 
	C334.786163,149.986832 326.413666,149.858566 318.315247,147.609604 
	C304.336029,143.727524 295.191437,130.513306 294.897400,114.322296 
	C294.679016,113.338188 294.451385,113.124390 294.119781,113.021271 
	C294.069794,90.980721 294.019806,68.940170 294.239563,46.357582 
	C294.735077,45.649681 294.888885,45.432789 294.970764,45.164864 
	C302.105591,45.164864 309.240448,45.164864 316.767181,45.164864 
	C316.848328,46.578369 317.000366,48.006268 317.001617,49.434296 
	C317.017700,67.736893 316.887085,86.040993 317.104401,104.341019 
	C317.155640,108.654556 317.913116,113.084991 319.123901,117.234581 
	C322.054871,127.279724 330.344727,131.063782 340.505646,128.159317 
	C346.651276,126.402603 350.251740,123.105865 351.022064,116.710197 
	C351.562714,112.221367 352.846802,107.764870 352.896149,103.283981 
	C353.108368,84.019913 352.986786,64.752159 352.986786,45.015388 
	C360.232056,45.015388 367.165161,45.015388 374.653046,45.269737 
	C375.370422,45.748062 375.584259,45.899803 375.849335,45.979313 
z"/>
<path fill="#1A99CB" opacity="1.000000" stroke="none" 
	d="
M24.918711,80.312546 
	C24.658873,78.768684 23.816566,77.047249 24.225117,75.707161 
	C32.559296,48.370296 49.467949,29.612043 78.086128,23.170822 
	C82.487350,22.180222 87.301476,22.905254 91.919609,23.027153 
	C97.780579,23.181856 103.652199,23.344521 109.490860,23.838772 
	C118.874878,24.633141 127.314705,27.731140 134.130524,34.592899 
	C136.194794,36.671078 138.619324,38.391438 141.027603,40.945862 
	C142.194031,43.438637 143.211685,45.261246 144.131577,47.505886 
	C144.240341,49.370220 144.510925,50.806698 144.642822,52.255795 
	C145.392471,60.492996 145.844635,68.713661 141.270859,76.183823 
	C133.108215,89.515549 118.010826,93.410866 104.850815,89.822021 
	C92.804825,86.536964 82.045586,75.674492 83.118393,61.389946 
	C83.599312,54.986404 85.192787,48.666416 86.274933,42.346210 
	C64.317680,39.394394 46.917000,47.400105 34.436417,66.109558 
	C33.013580,68.242508 32.106831,70.719734 30.964907,73.004234 
	C30.969032,72.971146 31.034758,72.959846 30.732544,72.685234 
	C30.005472,73.270134 29.580610,74.129646 28.994778,75.292847 
	C27.528772,77.168533 26.223742,78.740540 24.918711,80.312546 
z"/>
<path fill="#CD3135" opacity="1.000000" stroke="none" 
	d="
M24.774734,80.578735 
	C26.223742,78.740540 27.528772,77.168533 29.271141,75.200714 
	C30.150570,74.189888 30.592665,73.574867 31.034758,72.959846 
	C31.034758,72.959846 30.969032,72.971146 31.293932,72.903221 
	C43.823463,59.898991 65.853378,59.410679 77.776382,73.084084 
	C92.236275,89.666809 88.707458,112.467041 69.744667,120.964607 
	C64.533150,123.299988 58.815060,124.504906 53.273113,126.246246 
	C55.047077,134.208099 64.025276,146.815109 70.915833,150.998978 
	C85.149742,159.641678 100.425858,163.192017 117.205872,160.808212 
	C117.424049,160.846100 117.864960,160.887848 117.864960,160.887848 
	C113.317307,162.586990 108.883720,165.282501 104.202888,165.818375 
	C79.719711,168.621323 58.015003,161.809235 41.320354,143.503525 
	C27.836641,128.718628 20.116470,110.989944 22.059483,90.271332 
	C22.359056,87.076904 23.746447,83.984505 24.774734,80.578735 
z"/>
<path fill="#FDCC31" opacity="1.000000" stroke="none" 
	d="
M118.094467,160.600616 
	C117.864960,160.887848 117.424049,160.846100 117.001045,160.531494 
	C114.987823,159.991821 113.356010,159.924164 111.814003,159.516678 
	C99.798584,156.341583 89.578224,150.926819 85.474197,138.032837 
	C81.785706,126.444336 85.169495,116.298508 92.350792,107.276604 
	C99.204140,98.666710 108.506790,95.175194 119.337418,97.084923 
	C128.197250,98.647163 135.364456,103.276184 140.513321,110.880119 
	C141.912888,112.947014 143.440094,114.195679 145.698181,110.988976 
	C151.694489,102.473656 155.740005,93.277252 155.929993,82.826134 
	C156.169601,69.644226 151.676605,57.838020 144.229340,47.083855 
	C143.211685,45.261246 142.194031,43.438637 141.180283,41.258926 
	C143.423965,42.403183 146.107925,43.513832 147.829468,45.471031 
	C157.117599,56.030663 164.187424,67.757416 166.532700,81.966919 
	C169.953934,102.695274 164.905838,121.223923 152.535736,137.949448 
	C146.686646,145.857956 139.528992,152.387924 130.676697,156.680817 
	C126.867691,158.527969 122.459801,159.140152 118.094467,160.600616 
z"/>
<path fill="#231F20" opacity="1.000000" stroke="none" 
	d="
M283.027954,65.874496 
	C275.316620,65.931931 267.605286,65.989365 259.317902,65.751495 
	C258.484070,65.266403 258.202637,65.123085 257.897522,65.026222 
	C257.611481,66.700294 257.080078,68.373787 257.076141,70.048508 
	C257.017700,95.064354 257.028870,120.080360 256.753723,145.642700 
	C256.244446,146.356247 256.090302,146.581711 256.021423,146.865463 
	C249.314606,146.916473 242.607773,146.967484 235.353760,146.752197 
	C234.641830,146.256409 234.423721,146.102554 234.152267,146.024338 
	C234.094788,122.146317 234.040604,98.268295 233.975632,74.390297 
	C233.967514,71.407150 233.902206,68.424164 233.263397,65.324112 
	C232.333755,65.317406 232.121948,65.539879 232.027969,65.874535 
	C224.316635,65.931961 216.605286,65.989380 208.316727,65.751205 
	C207.479630,65.266914 207.196487,65.124496 206.890076,65.028358 
	C206.459061,58.548832 206.028046,52.069309 205.578506,45.311348 
	C206.991394,45.162483 207.767670,45.009628 208.544037,45.009209 
	C232.375183,44.996326 256.207001,45.088024 280.036835,44.911709 
	C284.105164,44.881603 285.321045,46.214180 285.063690,50.106148 
	C284.745483,54.917896 284.906097,59.761299 284.261444,64.899170 
	C283.333618,65.317627 283.121918,65.540016 283.027954,65.874496 
z"/>
<path fill="#231F20" opacity="1.000000" stroke="none" 
	d="
M416.018677,146.865631 
	C409.314728,146.916718 402.610809,146.967804 395.357422,146.752625 
	C394.639740,146.247681 394.414246,146.091660 394.131592,146.018265 
	C394.081635,112.980217 394.031708,79.942169 394.245422,46.355873 
	C394.734741,45.643345 394.890717,45.428471 394.977020,45.162998 
	C401.684296,45.113400 408.391541,45.063801 415.653259,45.269062 
	C416.370178,45.748299 416.584229,45.899979 416.849762,45.978966 
	C416.904175,79.017235 416.958588,112.055496 416.748840,145.644226 
	C416.248260,146.362015 416.092926,146.585648 416.018677,146.865631 
z"/>
<path fill="#231F20" opacity="1.000000" stroke="none" 
	d="
M416.019379,39.860435 
	C409.314972,39.911942 402.610565,39.963444 395.356140,39.750221 
	C394.638733,39.249050 394.415070,39.093487 394.135162,39.018806 
	C394.084198,32.980236 394.033264,26.941664 394.245697,20.355223 
	C394.734039,19.643347 394.889954,19.429064 394.976807,19.164505 
	C401.684265,19.114983 408.391693,19.065460 415.653748,19.270134 
	C416.370544,19.747925 416.583954,19.899399 416.848541,19.978752 
	C416.903076,26.017544 416.957642,32.056335 416.748657,38.645195 
	C416.251038,39.361797 416.095795,39.583523 416.019379,39.860435 
z"/>
<path fill="#201D1E" opacity="1.000000" stroke="none" 
	d="
M182.948608,193.857224 
	C182.962357,193.438416 182.976105,193.019592 183.258224,192.161087 
	C183.765976,191.485397 183.908066,191.200821 183.952881,190.867661 
	C183.969345,190.446976 183.985809,190.026276 184.252533,189.201385 
	C184.734802,188.625763 184.897507,188.403610 184.990921,188.130692 
	C186.065796,188.087936 187.140656,188.045166 188.709839,188.253922 
	C189.375992,188.736603 189.598312,188.898483 189.871094,188.991058 
	C189.915573,189.405914 189.960068,189.820770 190.096161,190.782425 
	C190.339706,191.632568 190.570648,191.853271 190.880585,191.991318 
	C190.924850,192.404083 190.969116,192.816849 191.101532,193.776886 
	C191.341522,194.630432 191.573608,194.852982 191.885956,194.991837 
	C192.260773,196.690994 192.635590,198.390137 193.099213,200.709167 
	C193.340042,201.632645 193.571198,201.853439 193.881470,201.991409 
	C193.925751,202.403900 193.970032,202.816376 194.102264,203.776306 
	C194.342270,204.630463 194.574783,204.853195 194.887741,204.991974 
	C194.887741,206.223495 194.887741,207.455032 194.887741,209.483444 
	C192.952698,208.874619 191.486618,208.413330 189.915314,207.312103 
	C189.657059,206.367020 189.424316,206.145645 189.111908,206.008026 
	C187.841095,205.800674 185.532394,205.215637 185.450424,205.440903 
	C183.059036,212.012436 177.564346,207.616745 173.599686,209.275879 
	C172.233749,206.383224 171.000885,203.772369 169.768021,201.161530 
	C169.506927,201.243851 169.245819,201.326187 168.984726,201.408524 
	C168.984726,203.335938 168.984726,205.263367 168.727203,207.697510 
	C168.229202,208.367172 168.079285,208.590836 168.019928,208.875214 
	C167.256210,208.929108 166.492493,208.982986 165.273285,208.761856 
	C164.648758,208.245453 164.420959,208.090363 164.134399,208.021561 
	C164.083084,201.980759 164.031784,195.939957 164.246368,189.352829 
	C164.737274,188.642548 164.891113,188.427643 164.973770,188.161758 
	C166.945877,188.104034 168.918076,187.994080 170.890060,187.998138 
	C177.494293,188.011734 179.698898,192.452042 177.175507,198.657059 
	C176.163879,201.144653 177.540573,204.603516 177.876984,208.107956 
	C178.693451,207.418350 178.913681,207.323273 178.926437,207.205704 
	C178.979553,206.716187 178.970184,206.219879 179.252930,205.222809 
	C179.763596,204.480377 179.905441,204.192184 179.947678,203.854965 
	C179.961426,203.436661 179.975189,203.018356 180.257538,202.160706 
	C180.765701,201.485229 180.907852,201.200439 180.952576,200.867004 
	C180.960938,200.144318 180.969299,199.421616 181.248260,198.209274 
	C181.761795,197.479462 181.904129,197.189835 181.945862,196.850754 
	C181.958008,196.433502 181.970139,196.016266 182.252518,195.159454 
	C182.763901,194.481308 182.905838,194.193741 182.948608,193.857224 
M186.430618,199.703171 
	C186.703812,199.989365 186.976990,200.275543 187.250183,200.561737 
	C187.368622,200.448471 187.596268,200.242950 187.589737,200.235199 
	C187.334793,199.933365 187.058502,199.649567 186.430618,199.703171 
M187.202881,196.610153 
	C187.207062,196.214783 187.211258,195.819412 187.215439,195.424026 
	C187.051361,195.422516 186.744690,195.410019 186.743820,195.421082 
	C186.713501,195.814514 186.711853,196.210159 187.202881,196.610153 
z"/>
<path fill="#211D1E" opacity="1.000000" stroke="none" 
	d="
M357.004272,201.855408 
	C357.004272,197.077164 357.004272,192.777908 357.004272,188.518784 
	C362.861542,187.724762 362.957489,187.792450 362.990417,193.070694 
	C363.012054,196.538177 362.994507,200.005905 362.994507,204.091675 
	C365.590057,204.091675 367.954224,204.091675 370.799713,204.091675 
	C372.037506,200.122559 373.321045,195.370346 375.077118,190.799683 
	C375.546570,189.577774 377.491180,188.156464 378.701172,188.206757 
	C379.846741,188.254364 381.480835,189.920044 381.922119,191.208939 
	C383.766571,196.595932 385.243011,202.108948 386.882904,207.672791 
	C384.416412,209.515045 382.496216,210.034637 380.915497,206.767517 
	C380.518677,205.947296 379.227692,205.203384 378.286133,205.120087 
	C377.581024,205.057709 376.796844,206.141479 376.012695,206.661880 
	C374.804840,207.463470 373.629761,208.729141 372.328583,208.889877 
	C369.546356,209.233597 366.692230,208.996002 363.867554,208.995728 
	C357.012726,208.995041 357.012726,208.994873 357.004272,201.855408 
z"/>
<path fill="#221E1F" opacity="1.000000" stroke="none" 
	d="
M215.021530,208.874893 
	C214.257263,208.929672 213.492981,208.984467 212.274414,208.762451 
	C211.650742,208.242310 211.421494,208.087845 211.132355,208.022278 
	C211.080551,201.981171 211.028748,195.940063 211.244751,189.354050 
	C211.740112,188.644409 211.893677,188.427353 211.973251,188.157959 
	C218.072876,186.770432 218.052505,192.502136 220.813904,195.895233 
	C220.813904,193.166382 220.813904,190.868607 220.813904,188.484070 
	C225.192612,187.236862 227.351624,188.104340 227.055161,192.899582 
	C226.780701,197.338608 226.985138,201.807266 226.909149,206.699692 
	C226.839615,207.136520 226.906998,207.073288 226.906998,207.073288 
	C224.683258,209.584717 222.693649,210.400208 220.828186,206.615631 
	C219.927811,204.789017 218.554489,203.195526 217.178726,201.179016 
	C217.046555,203.538116 216.931198,205.597122 216.239044,207.926880 
	C215.343567,208.323929 215.129990,208.549683 215.021530,208.874893 
z"/>
<path fill="#221E1F" opacity="1.000000" stroke="none" 
	d="
M480.863495,188.976349 
	C480.918945,195.017136 480.974365,201.057938 480.754333,207.642517 
	C480.231628,208.353683 480.079132,208.583832 480.021301,208.876740 
	C479.256714,208.930679 478.492126,208.984619 477.275879,208.765472 
	C476.655731,208.261261 476.434021,208.106369 476.159058,208.027649 
	C474.571716,205.521561 472.984406,203.015472 471.387756,200.494614 
	C469.643646,203.223404 473.848389,209.549194 466.175781,208.911362 
	C466.175781,201.947540 466.175781,195.184631 466.175781,188.386154 
	C472.257782,186.008072 471.604218,192.761658 474.971313,194.551682 
	C474.971313,192.438766 474.971313,190.403656 474.971313,188.000854 
	C476.600281,188.000854 477.881256,188.000854 479.682495,188.263336 
	C480.364624,188.761566 480.584900,188.911743 480.863495,188.976349 
z"/>
<path fill="#201D1E" opacity="1.000000" stroke="none" 
	d="
M503.978424,197.169434 
	C504.142456,197.141190 504.322815,197.053619 504.468079,197.093567 
	C507.007996,197.791901 510.872498,194.899658 511.931427,199.506683 
	C512.760132,203.112076 509.848999,207.996719 506.506226,208.738342 
	C502.565430,209.612640 499.517700,208.327042 497.793549,204.337921 
	C495.308258,198.587631 496.969879,190.777008 501.728516,187.567902 
	C500.771790,186.388763 499.823456,185.219940 498.372894,183.432159 
	C502.572113,183.432159 506.067719,183.432159 509.903564,183.432159 
	C508.836060,184.885895 507.771332,186.335876 506.985046,187.406677 
	C508.355591,188.956955 509.984680,190.799728 511.613800,192.642517 
	C511.335632,193.246277 511.057465,193.850037 510.779297,194.453796 
	C508.979645,194.017929 507.161346,193.217438 505.388550,193.307907 
	C504.565552,193.349915 503.830902,195.124390 502.787354,196.759796 
	C502.841583,199.483353 503.164642,201.560593 503.487732,203.637833 
	C504.570099,203.420898 505.652496,203.203964 506.238373,203.086533 
	C505.319580,200.680954 504.649017,198.925201 503.978424,197.169434 
z"/>
<path fill="#211D1E" opacity="1.000000" stroke="none" 
	d="
M340.979584,188.156708 
	C344.197083,187.133011 345.829010,188.881241 346.985107,191.544907 
	C347.718933,193.235535 348.535400,194.890259 349.946655,197.915619 
	C349.946655,193.770294 349.946655,191.092743 349.946655,188.211258 
	C351.716705,188.211258 353.123169,188.211258 354.770935,188.211258 
	C354.770935,194.962616 354.770935,201.689926 354.770935,208.707214 
	C353.420166,208.707214 352.026520,208.707214 350.520050,208.707214 
	C348.966309,206.052017 347.316742,203.233047 344.983032,199.244934 
	C344.983032,202.752930 344.983032,204.961533 344.728607,207.687225 
	C344.234253,208.372742 344.081024,208.599716 344.014526,208.885239 
	C343.253845,208.936234 342.493164,208.987228 341.274292,208.767395 
	C340.645569,208.255692 340.418121,208.095901 340.133667,208.017181 
	C340.087585,201.979370 340.041473,195.941559 340.255127,189.352264 
	C340.740082,188.636856 340.894989,188.422150 340.979584,188.156708 
z"/>
<path fill="#211D1E" opacity="1.000000" stroke="none" 
	d="
M305.850769,188.980667 
	C305.903656,195.017609 305.956512,201.054565 305.745667,207.644455 
	C305.238434,208.367676 305.082550,208.597412 305.014343,208.886612 
	C304.253754,208.937347 303.493164,208.988098 302.275696,208.769012 
	C301.649170,208.260727 301.423859,208.100479 301.142914,208.018417 
	C299.597168,205.510132 298.051422,203.001846 296.156128,199.926376 
	C296.156128,203.134949 296.156128,205.695221 296.156128,208.625427 
	C294.440887,208.625427 292.931793,208.625427 291.203125,208.625427 
	C291.203125,201.928833 291.203125,195.197845 291.203125,188.472214 
	C295.409607,187.904663 295.409607,187.904663 300.553497,196.273697 
	C303.242218,194.219543 297.284058,188.459244 304.678009,188.260223 
	C305.366272,188.745132 305.582581,188.899277 305.850769,188.980667 
z"/>
<path fill="#201D1D" opacity="1.000000" stroke="none" 
	d="
M395.740112,205.425949 
	C395.008148,203.832703 394.484589,202.591110 393.960999,201.349518 
	C393.694427,201.399872 393.427826,201.450226 393.161255,201.500580 
	C393.161255,203.822403 393.161255,206.144241 393.161255,208.759384 
	C391.389008,208.863678 389.969330,208.947220 388.264771,209.047531 
	C388.264771,202.112823 388.264771,195.374496 388.264771,187.989227 
	C389.731689,187.989227 391.309937,187.991898 392.888153,187.988785 
	C401.578461,187.971695 403.403473,190.741791 400.551788,199.130737 
	C400.107513,200.437546 400.746338,202.152069 401.021088,203.653046 
	C401.321808,205.295944 401.781128,206.909805 402.307007,209.101562 
	C399.241730,208.665909 396.065521,210.225098 395.740112,205.425949 
z"/>
<path fill="#201D1D" opacity="1.000000" stroke="none" 
	d="
M55.976582,188.160034 
	C59.524540,188.440445 63.437012,187.927017 66.473480,189.321320 
	C68.099640,190.068024 69.643166,194.943680 68.732864,196.480713 
	C66.526497,200.206192 67.754997,203.054611 68.969093,206.299774 
	C69.226395,206.987518 69.006569,207.853775 69.006569,208.812927 
	C67.195534,208.812927 65.764320,208.812927 64.333603,208.812927 
	C63.110981,206.197891 61.935711,203.684143 60.760437,201.170395 
	C60.503922,201.251678 60.247402,201.332962 59.990887,201.414246 
	C59.990887,203.338654 59.990887,205.263062 59.732208,207.694702 
	C59.232826,208.367935 59.080734,208.593658 59.017254,208.879105 
	C58.254978,208.931564 57.492702,208.984024 56.273499,208.763672 
	C55.646919,208.250320 55.419601,208.093170 55.134617,208.019440 
	C55.085159,201.980133 55.035702,195.940826 55.249481,189.352936 
	C55.738060,188.640503 55.892681,188.425720 55.976582,188.160034 
z"/>
<path fill="#211D1E" opacity="1.000000" stroke="none" 
	d="
M450.003357,201.906525 
	C450.003326,197.118881 450.003326,192.818481 450.003326,186.948685 
	C454.613098,188.130661 459.429810,188.153473 462.414398,190.503281 
	C464.934967,192.487808 465.173096,197.144196 460.995880,199.491791 
	C461.956024,202.381516 462.841248,205.045670 463.835541,208.038208 
	C456.661133,211.328110 458.003601,203.902985 455.361298,201.457916 
	C453.961639,204.101929 457.344727,210.083527 450.003387,208.747192 
	C450.003387,206.667847 450.003387,204.530807 450.003357,201.906525 
z"/>
<path fill="#221E1F" opacity="1.000000" stroke="none" 
	d="
M141.142563,208.382019 
	C134.333588,209.302261 131.341263,206.911438 131.036179,200.515549 
	C130.847153,196.552887 131.001114,192.573868 131.001114,188.470383 
	C135.272415,187.168762 137.375870,188.159988 137.045868,192.922409 
	C136.794662,196.547760 136.996002,200.204468 136.996002,203.847214 
	C137.768753,203.851303 138.541489,203.855392 139.314240,203.859482 
	C139.314240,198.786728 139.314240,193.713974 139.314240,188.811615 
	C145.658096,187.511597 145.945633,187.712280 145.992477,192.884628 
	C146.019562,195.874191 146.582275,199.025787 145.815506,201.804092 
	C145.173981,204.128677 142.951874,206.017059 141.142563,208.382019 
z"/>
<path fill="#201D1E" opacity="1.000000" stroke="none" 
	d="
M71.974182,188.159332 
	C73.947647,188.865082 75.921104,189.570831 77.942406,190.293686 
	C79.815926,189.531738 82.579697,188.407745 85.343475,187.283737 
	C80.361290,194.437729 82.221779,200.288391 86.017448,206.768127 
	C86.013847,207.603256 86.006035,207.790115 85.995941,208.199921 
	C85.993652,208.422882 86.015114,208.868301 86.015114,208.868317 
	C84.933907,208.924255 83.852707,208.980194 82.296242,208.762878 
	C81.653198,208.258499 81.431740,208.104599 81.156601,208.027924 
	C79.986496,205.867462 78.816399,203.707001 77.234863,200.786896 
	C77.066742,203.548843 76.941818,205.601257 76.239227,207.924942 
	C75.343529,208.324463 75.129707,208.551071 75.020111,208.876022 
	C74.256348,208.929596 73.492577,208.983154 72.273094,208.761475 
	C71.648308,208.244125 71.420059,208.089142 71.132622,208.021286 
	C71.080803,201.980835 71.028984,195.940384 71.244400,189.354431 
	C71.738495,188.644150 71.892677,188.427628 71.974182,188.159332 
z"/>
<path fill="#1F1B1C" opacity="1.000000" stroke="none" 
	d="
M263.803619,208.519226 
	C262.339081,207.262924 261.048248,206.366119 259.093018,205.007690 
	C260.609070,203.655884 261.665588,202.713837 262.279236,202.166672 
	C264.759308,202.808395 266.607330,203.286560 268.455353,203.764740 
	C268.659515,203.307968 268.863708,202.851196 269.067902,202.394409 
	C264.940552,199.401276 256.758972,198.812408 260.968140,190.703064 
	C262.969757,186.846802 268.352509,186.872284 273.563904,190.048309 
	C271.625366,193.017776 271.625366,193.017776 264.210907,193.379547 
	C269.424988,196.195480 275.901520,197.343231 273.978271,204.759628 
	C273.445801,206.812820 272.482208,208.754211 270.844971,209.883575 
	C270.667206,214.021347 270.074402,214.513260 262.930481,213.529114 
	C263.282043,211.967346 263.629700,210.423035 263.803619,208.519226 
z"/>
<path fill="#201C1D" opacity="1.000000" stroke="none" 
	d="
M162.033539,205.145691 
	C162.440613,206.516464 162.802246,207.486771 163.205368,208.568390 
	C158.268814,209.071625 158.268814,209.071625 153.827072,201.459610 
	C153.361847,204.358459 153.021835,206.477112 152.650101,208.793457 
	C151.276276,208.793457 149.854553,208.793457 148.212646,208.793457 
	C148.212646,201.964005 148.212646,195.214447 148.212646,188.228149 
	C149.697159,188.228149 151.103287,188.228149 152.849442,188.228149 
	C152.934784,189.978622 153.020599,191.738953 153.155838,194.512970 
	C155.182785,189.564697 157.630829,186.356552 163.776825,188.809418 
	C156.851364,193.574890 157.704102,199.071075 162.033539,205.145691 
z"/>
<path fill="#221E1F" opacity="1.000000" stroke="none" 
	d="
M51.773651,188.343658 
	C52.308052,193.681229 53.214127,198.820465 52.510029,203.728714 
	C51.965496,207.524628 48.329876,209.573547 44.255085,208.909958 
	C40.526302,208.302734 38.886822,205.708801 38.973076,201.906418 
	C39.071140,197.583069 38.995731,193.255783 38.995731,188.535492 
	C40.176445,188.135544 41.429848,187.710968 42.921261,187.205780 
	C46.052177,192.328552 41.613461,199.085571 46.817627,203.862183 
	C46.817627,198.323044 46.817627,192.783920 46.817627,186.647400 
	C48.778366,187.239059 50.115196,187.642456 51.773651,188.343658 
z"/>
<path fill="#221E1F" opacity="1.000000" stroke="none" 
	d="
M427.022217,208.875168 
	C424.962921,208.929993 422.903656,208.984833 420.332397,208.761871 
	C419.651306,208.240067 419.421753,208.086365 419.131744,208.022964 
	C419.079132,201.981354 419.026520,195.939743 419.243164,189.354279 
	C419.739990,188.645493 419.893280,188.428131 419.972260,188.158386 
	C432.514343,187.470001 433.051392,187.973907 432.991821,200.547165 
	C432.976624,203.755203 433.512817,207.298889 428.286499,208.106079 
	C427.342651,208.322662 427.128937,208.548248 427.022217,208.875168 
M427.539154,202.695450 
	C428.779480,194.639404 428.413483,193.352203 424.026093,192.374283 
	C424.026093,195.579819 423.864960,198.672485 424.160034,201.720993 
	C424.220154,202.341797 425.996765,202.796432 427.539154,202.695450 
z"/>
<path fill="#231F20" opacity="1.000000" stroke="none" 
	d="
M122.019867,192.829010 
	C119.921242,193.216278 117.822617,193.603531 115.723991,193.990784 
	C115.837570,194.585571 115.951149,195.180359 116.064728,195.775162 
	C117.831230,195.885544 119.597725,195.995941 121.696907,196.127121 
	C121.696907,197.610962 121.696907,199.132172 121.696907,200.321594 
	C119.676834,201.013199 117.855499,201.636749 116.034164,202.260315 
	C118.149338,203.131088 120.264503,204.001892 122.805511,205.048004 
	C122.805511,205.749283 122.805511,207.153595 122.805511,208.983536 
	C119.117584,208.983536 115.507431,208.983536 111.345612,208.730591 
	C110.627800,208.250839 110.410103,208.096924 110.140869,208.015915 
	C110.089005,201.980301 110.037140,195.944672 110.246826,189.356903 
	C110.740204,188.637405 110.898628,188.417236 110.983635,188.144226 
	C114.359924,188.095779 117.736221,188.047333 121.656403,188.256775 
	C122.365753,188.741486 122.582237,188.897552 122.849724,188.982880 
	C122.900124,189.745636 122.950523,190.508377 122.743797,191.734894 
	C122.266212,192.360748 122.110611,192.570862 122.019867,192.829010 
z"/>
<path fill="#221E1F" opacity="1.000000" stroke="none" 
	d="
M435.970825,188.156952 
	C439.757233,188.156952 443.543610,188.156952 447.670593,188.156952 
	C447.670593,189.626236 447.670593,191.127853 447.670593,192.026154 
	C445.273956,192.991043 443.152313,193.845200 441.030670,194.699356 
	C442.835938,195.341278 444.641205,195.983215 446.788391,196.746719 
	C446.788391,197.688232 446.788391,199.095398 446.788391,200.996780 
	C444.931244,200.884171 443.123413,200.774567 441.184540,200.657013 
	C441.184540,201.526886 441.184540,202.607468 441.184540,203.358749 
	C443.192780,205.580078 448.394012,201.032898 447.734467,207.681946 
	C447.227081,208.361618 447.078278,208.585495 447.023682,208.872009 
	C443.642609,208.927246 440.261536,208.982498 436.349609,208.758820 
	C435.651062,208.233887 435.421173,208.081909 435.129150,208.023972 
	C435.075134,201.981857 435.021118,195.939728 435.239746,189.356888 
	C435.741974,188.649826 435.894806,188.430099 435.970825,188.156952 
z"/>
<path fill="#231F20" opacity="1.000000" stroke="none" 
	d="
M495.020813,208.878357 
	C491.641754,208.932404 488.262695,208.986450 484.352356,208.762787 
	C483.651581,208.240662 483.421631,208.086456 483.131165,208.022461 
	C483.079163,201.981110 483.027161,195.939774 483.243835,189.353943 
	C483.740051,188.644669 483.893433,188.427505 483.972717,188.157959 
	C487.117126,188.103622 490.275330,187.868515 493.397339,188.107193 
	C494.311584,188.177078 495.774597,189.574265 495.799408,190.398758 
	C495.824554,191.236038 494.519684,192.341400 493.553284,192.925980 
	C492.165222,193.765625 490.556183,194.239883 489.041443,194.870102 
	C490.769592,195.405838 492.497711,195.941559 494.668457,196.614502 
	C494.668457,197.581039 494.668457,199.104202 494.668457,200.117523 
	C492.628632,201.052597 490.828461,201.877823 489.028320,202.703033 
	C490.741028,203.140900 492.453766,203.578781 494.690704,204.270477 
	C495.372833,204.743134 495.580658,204.892380 495.838440,204.972092 
	C495.895996,205.738373 495.953552,206.504639 495.742645,207.732391 
	C495.227936,208.359055 495.076813,208.587204 495.020813,208.878357 
z"/>
<path fill="#201C1D" opacity="1.000000" stroke="none" 
	d="
M226.809479,207.171539 
	C228.516541,201.842377 230.113205,196.425491 232.091293,191.151672 
	C232.576462,189.858154 234.280655,188.255219 235.474182,188.213348 
	C236.627655,188.172867 238.473038,189.734802 238.927002,190.987106 
	C240.982529,196.657562 242.653046,202.467590 244.601334,208.670425 
	C241.533401,208.781891 238.938065,210.334122 237.846115,206.217133 
	C237.300980,204.161850 234.085022,204.512955 233.026886,206.709167 
	C231.485565,209.908203 229.470627,209.832153 226.962982,207.464279 
	C226.906998,207.073288 226.839615,207.136520 226.809479,207.171539 
z"/>
<path fill="#201C1D" opacity="1.000000" stroke="none" 
	d="
M322.028168,205.952927 
	C323.681122,201.085022 325.165527,196.148895 327.091553,191.391541 
	C327.656036,189.997101 329.355347,188.490097 330.762695,188.218887 
	C331.636230,188.050568 333.496521,189.911987 333.952484,191.202133 
	C335.951141,196.857147 337.599030,202.636124 339.542450,208.913879 
	C336.442169,208.697174 333.731476,210.257019 332.811462,206.052811 
	C332.384338,204.100937 329.436279,204.812637 327.900482,206.783020 
	C327.069550,207.849060 325.477051,208.553711 324.105377,208.846725 
	C323.588959,208.957047 322.725861,207.444366 322.056396,206.281860 
	C322.091919,205.892120 322.028168,205.952927 322.028168,205.952927 
z"/>
<path fill="#201C1D" opacity="1.000000" stroke="none" 
	d="
M322.119812,205.858032 
	C316.065948,210.489288 312.411621,210.293228 307.616486,204.553162 
	C308.611694,203.643936 309.652100,202.693390 310.245056,202.151657 
	C312.751801,202.806335 314.597809,203.288467 316.443817,203.770584 
	C316.647186,203.316299 316.850555,202.862015 317.053925,202.407730 
	C312.966278,199.387238 304.740662,198.833008 308.957214,190.709976 
	C311.025513,186.725433 316.857025,186.835114 322.112396,191.776505 
	C319.222443,192.437927 316.332489,193.099350 313.120270,193.834534 
	C317.658691,196.200546 323.915131,197.675613 322.031036,205.535858 
	C322.028168,205.952927 322.091919,205.892120 322.119812,205.858032 
z"/>
<path fill="#1F1B1C" opacity="1.000000" stroke="none" 
	d="
M98.825424,200.614548 
	C97.033646,196.442703 95.383827,192.682114 93.502029,188.392761 
	C95.891129,188.392761 97.735443,188.392761 99.678177,188.392761 
	C100.216316,190.021820 100.809502,191.817505 101.586922,194.170929 
	C102.374611,189.868790 103.773613,186.707535 109.213989,188.469498 
	C108.151680,190.896072 106.898827,193.228409 106.105934,195.707840 
	C105.188972,198.575256 104.225403,201.554321 104.108147,204.517593 
	C103.974075,207.905991 103.107376,209.628998 98.967377,208.738342 
	C98.967377,206.261902 98.967377,203.643845 98.825424,200.614548 
z"/>
<path fill="#201C1D" opacity="1.000000" stroke="none" 
	d="
M209.841385,190.520096 
	C208.117294,195.880554 206.168823,200.781860 205.123367,205.868729 
	C204.417068,209.305389 202.726303,209.129639 201.350830,208.940826 
	C199.352280,201.745651 197.526459,195.172302 195.588791,188.196335 
	C196.896210,188.137405 198.737045,188.054413 200.528870,187.973633 
	C201.206345,190.025879 201.797195,191.815674 202.101349,192.737030 
	C203.806778,191.300430 205.731339,189.590027 207.813766,188.100342 
	C207.974442,187.985397 209.246140,189.423615 209.841385,190.520096 
z"/>
<path fill="#221E1F" opacity="1.000000" stroke="none" 
	d="
M32.024059,208.872604 
	C31.258144,208.928040 30.492231,208.983475 29.272980,208.760010 
	C28.651722,208.236893 28.422632,208.084763 28.132374,208.024734 
	C28.073298,203.946213 28.142456,199.858810 27.860706,195.795731 
	C27.794210,194.836838 26.546564,193.959839 25.334595,192.765991 
	C24.657209,192.248337 24.429991,192.095108 24.145264,192.027130 
	C24.145264,190.772156 24.145264,189.517181 24.145264,187.985168 
	C27.201897,187.985168 30.031124,187.713623 32.774567,188.081635 
	C34.571785,188.322708 36.244869,189.489227 37.973549,190.241241 
	C36.818726,191.507004 35.663906,192.772751 33.859119,194.750916 
	C33.859119,198.346725 33.859119,202.968491 33.261307,207.895721 
	C32.341980,208.321808 32.128838,208.545593 32.024059,208.872604 
z"/>
<path fill="#231F20" opacity="1.000000" stroke="none" 
	d="
M85.998230,207.976959 
	C86.006035,207.790115 86.013847,207.603256 86.037918,207.136337 
	C86.357994,201.202530 86.661797,195.548782 87.255142,189.311172 
	C87.744461,188.472015 87.884338,188.187286 87.964310,187.873138 
	C88.313438,186.920120 88.662560,185.967087 89.116562,184.727768 
	C90.246025,185.787109 91.031158,186.523499 92.007401,187.789505 
	C92.320679,188.637894 92.541771,188.856750 92.861794,188.975647 
	C92.916405,195.016525 92.971008,201.057404 92.751617,207.642990 
	C92.229568,208.354935 92.077171,208.585449 92.020439,208.879211 
	C91.255524,208.932434 90.490601,208.985641 89.223663,208.748718 
	C88.459709,208.257294 88.167755,208.119614 87.845787,208.045578 
	C87.845787,208.045578 87.505737,208.053040 87.043999,208.027679 
	C86.387581,207.993866 86.192909,207.985413 85.998230,207.976959 
z"/>
<path fill="#221E1F" opacity="1.000000" stroke="none" 
	d="
M257.023468,208.874191 
	C256.256989,208.928802 255.490540,208.983398 254.229919,208.748535 
	C253.484802,208.258469 253.204575,208.115021 252.895081,208.028748 
	C251.417084,200.366791 251.212540,192.773483 253.663193,184.547119 
	C255.145920,185.821274 255.973358,186.532318 257.000977,187.782318 
	C257.318817,188.645828 257.541107,188.863647 257.867981,188.974747 
	C257.923523,195.016647 257.979065,201.058563 257.756226,207.641159 
	C257.229797,208.349228 257.078339,208.580002 257.023468,208.874191 
z"/>
<path fill="#231F20" opacity="1.000000" stroke="none" 
	d="
M513.891785,208.030426 
	C512.423340,200.368683 512.210999,192.774750 514.663635,184.549194 
	C516.145081,185.820801 516.972412,186.530914 517.998962,187.780731 
	C518.319092,188.643631 518.542297,188.862198 518.867981,188.976135 
	C518.922302,195.017090 518.976624,201.058044 518.754639,207.642151 
	C518.230225,208.352707 518.077942,208.583420 518.021545,208.877411 
	C517.256287,208.931305 516.491028,208.985199 515.231506,208.749695 
	C514.487488,208.253937 514.205688,208.110641 513.891785,208.030426 
z"/>
<path fill="#201D1E" opacity="1.000000" stroke="none" 
	d="
M408.996521,196.049377 
	C408.996521,200.484222 408.996521,204.430069 408.996521,208.732819 
	C407.408936,208.851044 406.008026,208.955383 404.288696,209.083420 
	C404.288696,202.082901 404.288696,195.242798 404.288696,188.194717 
	C405.735443,188.194717 407.131073,188.194717 408.996521,188.194717 
	C408.996521,190.696152 408.996521,193.128281 408.996521,196.049377 
z"/>
<path fill="#221E1F" opacity="1.000000" stroke="none" 
	d="
M283.131348,208.019760 
	C283.080292,201.652176 283.029236,195.284576 283.446655,188.467285 
	C285.231476,188.007812 286.547821,187.998032 287.864136,187.988251 
	C287.907959,194.357452 287.951752,200.726654 287.734406,207.647858 
	C287.229431,208.366104 287.077515,208.593719 287.017548,208.882706 
	C286.255157,208.935165 285.492767,208.987625 284.274811,208.765259 
	C283.648895,208.247437 283.419586,208.090546 283.131348,208.019760 
z"/>
<path fill="#100E0F" opacity="1.000000" stroke="none" 
	d="
M287.931152,187.555206 
	C286.547821,187.998032 285.231476,188.007812 283.520447,188.003326 
	C283.125763,186.529037 283.125763,185.069016 283.125763,183.312927 
	C284.581757,183.312927 286.103485,183.312927 287.998138,183.312927 
	C287.998138,184.611832 287.998138,185.866989 287.931152,187.555206 
z"/>
<path fill="#050404" opacity="1.000000" stroke="none" 
	d="
M503.772766,197.090546 
	C504.649017,198.925201 505.319580,200.680954 506.238373,203.086533 
	C505.652496,203.203964 504.570099,203.420898 503.487732,203.637833 
	C503.164642,201.560593 502.841583,199.483353 502.826843,197.165375 
	C503.135193,196.924637 503.567078,197.011673 503.772766,197.090546 
z"/>
<path fill="#080707" opacity="1.000000" stroke="none" 
	d="
M28.098953,208.289459 
	C28.422632,208.084763 28.651722,208.236893 28.895958,208.677231 
	C28.670027,208.766968 28.367779,208.660583 28.098953,208.289459 
z"/>
<path fill="#201C1D" opacity="1.000000" stroke="none" 
	d="
M194.927612,204.713684 
	C194.574783,204.853195 194.342270,204.630463 194.119537,204.088593 
	C194.355087,204.047424 194.661285,204.241409 194.927612,204.713684 
z"/>
<path fill="#201C1D" opacity="1.000000" stroke="none" 
	d="
M180.685944,200.947418 
	C180.907852,201.200439 180.765701,201.485229 180.323181,201.853668 
	C180.219940,201.666580 180.319626,201.347198 180.685944,200.947418 
z"/>
<path fill="#201C1D" opacity="1.000000" stroke="none" 
	d="
M193.922653,201.714081 
	C193.571198,201.853439 193.340042,201.632645 193.116638,201.096008 
	C193.351456,201.054245 193.657639,201.245499 193.922653,201.714081 
z"/>
<path fill="#0C0B0B" opacity="1.000000" stroke="none" 
	d="
M87.942871,208.299469 
	C88.167755,208.119614 88.459709,208.257294 88.847076,208.667114 
	C88.661652,208.768204 88.350800,208.660782 87.942871,208.299469 
z"/>
<path fill="#201C1D" opacity="1.000000" stroke="none" 
	d="
M189.073273,206.285980 
	C189.424316,206.145645 189.657059,206.367020 189.881775,206.906357 
	C189.647171,206.948364 189.340912,206.756165 189.073273,206.285980 
z"/>
<path fill="#201C1D" opacity="1.000000" stroke="none" 
	d="
M181.679474,196.936722 
	C181.904129,197.189835 181.761795,197.479462 181.312836,197.853546 
	C181.208908,197.665878 181.311005,197.344284 181.679474,196.936722 
z"/>
<path fill="#080707" opacity="1.000000" stroke="none" 
	d="
M32.294533,208.900177 
	C32.128838,208.545593 32.341980,208.321808 32.885918,208.114075 
	C32.927231,208.327194 32.746120,208.627472 32.294533,208.900177 
z"/>
<path fill="#0C0B0B" opacity="1.000000" stroke="none" 
	d="
M495.875977,204.715515 
	C495.580658,204.892380 495.372833,204.743134 495.125549,204.351410 
	C495.328583,204.272003 495.621063,204.365479 495.875977,204.715515 
z"/>
<path fill="#201C1D" opacity="1.000000" stroke="none" 
	d="
M179.681747,203.940018 
	C179.905441,204.192184 179.763596,204.480377 179.317352,204.853180 
	C179.213669,204.666245 179.314743,204.345657 179.681747,203.940018 
z"/>
<path fill="#100E0F" opacity="1.000000" stroke="none" 
	d="
M283.093170,208.288971 
	C283.419586,208.090546 283.648895,208.247437 283.898956,208.686981 
	C283.670776,208.775070 283.362885,208.666626 283.093170,208.288971 
z"/>
<path fill="#0B0A0A" opacity="1.000000" stroke="none" 
	d="
M518.288330,208.908356 
	C518.077942,208.583420 518.230225,208.352707 518.674805,208.106140 
	C518.765869,208.331100 518.660522,208.635193 518.288330,208.908356 
z"/>
<path fill="#0B0A0A" opacity="1.000000" stroke="none" 
	d="
M513.967529,208.290970 
	C514.205688,208.110641 514.487488,208.253937 514.854736,208.667847 
	C514.662537,208.767441 514.352905,208.659485 513.967529,208.290970 
z"/>
<path fill="#0C0B0B" opacity="1.000000" stroke="none" 
	d="
M495.287842,208.909470 
	C495.076813,208.587204 495.227936,208.359055 495.666992,208.111298 
	C495.758179,208.332672 495.656525,208.636627 495.287842,208.909470 
z"/>
<path fill="#0C0B0B" opacity="1.000000" stroke="none" 
	d="
M483.095581,208.289459 
	C483.421631,208.086456 483.651581,208.240662 483.898193,208.682175 
	C483.670227,208.771683 483.365112,208.664078 483.095581,208.289459 
z"/>
<path fill="#0B0A0A" opacity="1.000000" stroke="none" 
	d="
M480.288177,208.908020 
	C480.079132,208.583832 480.231628,208.353683 480.674683,208.106537 
	C480.765381,208.330933 480.660217,208.635117 480.288177,208.908020 
z"/>
<path fill="#0B0A0A" opacity="1.000000" stroke="none" 
	d="
M476.111877,208.291473 
	C476.434021,208.106369 476.655731,208.261261 476.899353,208.683990 
	C476.671295,208.768845 476.368011,208.662064 476.111877,208.291473 
z"/>
<path fill="#080707" opacity="1.000000" stroke="none" 
	d="
M447.287842,208.903412 
	C447.078278,208.585495 447.227081,208.361618 447.658630,208.116913 
	C447.748749,208.333893 447.650391,208.634338 447.287842,208.903412 
z"/>
<path fill="#080707" opacity="1.000000" stroke="none" 
	d="
M435.096680,208.289215 
	C435.421173,208.081909 435.651062,208.233887 435.895447,208.676483 
	C435.669495,208.766861 435.366852,208.660660 435.096680,208.289215 
z"/>
<path fill="#0B0A0A" opacity="1.000000" stroke="none" 
	d="
M427.293579,208.903442 
	C427.128937,208.548248 427.342651,208.322662 427.887756,208.113617 
	C427.929749,208.329803 427.747345,208.630753 427.293579,208.903442 
z"/>
<path fill="#0B0A0A" opacity="1.000000" stroke="none" 
	d="
M419.096619,208.289368 
	C419.421753,208.086365 419.651306,208.240067 419.897461,208.680725 
	C419.670197,208.770187 419.365845,208.662979 419.096619,208.289368 
z"/>
<path fill="#141112" opacity="1.000000" stroke="none" 
	d="
M344.286316,208.917953 
	C344.081024,208.599716 344.234253,208.372742 344.662964,208.114136 
	C344.753876,208.332870 344.656006,208.641769 344.286316,208.917953 
z"/>
<path fill="#141112" opacity="1.000000" stroke="none" 
	d="
M340.091980,208.288330 
	C340.418121,208.095901 340.645569,208.255692 340.898956,208.691498 
	C340.671295,208.777466 340.360809,208.668472 340.091980,208.288330 
z"/>
<path fill="#141112" opacity="1.000000" stroke="none" 
	d="
M305.286652,208.919067 
	C305.082550,208.597412 305.238434,208.367676 305.674835,208.109375 
	C305.764832,208.331406 305.661896,208.641464 305.286652,208.919067 
z"/>
<path fill="#141112" opacity="1.000000" stroke="none" 
	d="
M301.096588,208.288971 
	C301.423859,208.100479 301.649170,208.260727 301.900421,208.693237 
	C301.671417,208.778030 301.360840,208.668777 301.096588,208.288971 
z"/>
<path fill="#100E0F" opacity="1.000000" stroke="none" 
	d="
M287.287079,208.914413 
	C287.077515,208.593719 287.229431,208.366104 287.664062,208.113266 
	C287.755402,208.333160 287.656006,208.639648 287.287079,208.914413 
z"/>
<path fill="#100E0E" opacity="1.000000" stroke="none" 
	d="
M55.095390,208.288269 
	C55.419601,208.093170 55.646919,208.250320 55.897694,208.685394 
	C55.671268,208.772308 55.363716,208.664703 55.095390,208.288269 
z"/>
<path fill="#080707" opacity="1.000000" stroke="none" 
	d="
M257.289185,208.905746 
	C257.078339,208.580002 257.229797,208.349228 257.675049,208.105011 
	C257.766449,208.331223 257.660675,208.634262 257.289185,208.905746 
z"/>
<path fill="#080707" opacity="1.000000" stroke="none" 
	d="
M252.970474,208.288147 
	C253.204575,208.115021 253.484802,208.258469 253.852814,208.665314 
	C253.661850,208.763565 253.353867,208.655548 252.970474,208.288147 
z"/>
<path fill="#0C0B0B" opacity="1.000000" stroke="none" 
	d="
M215.292969,208.903534 
	C215.129990,208.549683 215.343567,208.323929 215.886597,208.113251 
	C215.928757,208.329987 215.746582,208.631088 215.292969,208.903534 
z"/>
<path fill="#0C0B0B" opacity="1.000000" stroke="none" 
	d="
M211.096207,208.289307 
	C211.421494,208.087845 211.650742,208.242310 211.897827,208.682083 
	C211.670364,208.771118 211.365219,208.663727 211.096207,208.289307 
z"/>
<path fill="#0C0B0B" opacity="1.000000" stroke="none" 
	d="
M168.286789,208.907776 
	C168.079285,208.590836 168.229202,208.367172 168.656586,208.117310 
	C168.746872,208.333679 168.650269,208.637009 168.286789,208.907776 
z"/>
<path fill="#0C0B0B" opacity="1.000000" stroke="none" 
	d="
M164.097198,208.288712 
	C164.420959,208.090363 164.648758,208.245453 164.896973,208.681793 
	C164.670761,208.769791 164.365372,208.662827 164.097198,208.288712 
z"/>
<path fill="#191617" opacity="1.000000" stroke="none" 
	d="
M110.103149,208.282532 
	C110.410103,208.096924 110.627800,208.250839 110.885414,208.658661 
	C110.673065,208.742828 110.369247,208.645996 110.103149,208.282532 
z"/>
<path fill="#0C0B0B" opacity="1.000000" stroke="none" 
	d="
M92.287979,208.910202 
	C92.077171,208.585449 92.229568,208.354935 92.673454,208.107208 
	C92.764702,208.331558 92.660118,208.636368 92.287979,208.910202 
z"/>
<path fill="#141112" opacity="1.000000" stroke="none" 
	d="
M340.716156,188.114136 
	C340.894989,188.422150 340.740082,188.636856 340.333588,188.888260 
	C340.252441,188.674347 340.352600,188.372955 340.716156,188.114136 
z"/>
<path fill="#080707" opacity="1.000000" stroke="none" 
	d="
M85.995941,208.199921 
	C86.192909,207.985413 86.387581,207.993866 86.873932,208.027283 
	C86.962631,208.345825 86.759651,208.639404 86.285896,208.900650 
	C86.015114,208.868301 85.993652,208.422882 85.995941,208.199921 
z"/>
<path fill="#080707" opacity="1.000000" stroke="none" 
	d="
M81.112083,208.290894 
	C81.431740,208.104599 81.653198,208.258499 81.897064,208.680359 
	C81.671280,208.765350 81.369415,208.659607 81.112083,208.290894 
z"/>
<path fill="#0C0B0B" opacity="1.000000" stroke="none" 
	d="
M75.292282,208.905807 
	C75.129707,208.551071 75.343529,208.324463 75.886765,208.112915 
	C75.929459,208.331619 75.746956,208.633606 75.292282,208.905807 
z"/>
<path fill="#0C0B0B" opacity="1.000000" stroke="none" 
	d="
M71.096268,208.288559 
	C71.420059,208.089142 71.648308,208.244125 71.896790,208.681427 
	C71.670776,208.769684 71.365349,208.662750 71.096268,208.288559 
z"/>
<path fill="#100E0E" opacity="1.000000" stroke="none" 
	d="
M59.286423,208.911987 
	C59.080734,208.593658 59.232826,208.367935 59.662270,208.114227 
	C59.752541,208.332626 59.654064,208.638748 59.286423,208.911987 
z"/>
<path fill="#020101" opacity="1.000000" stroke="none" 
	d="
M232.297501,65.898788 
	C232.121948,65.539879 232.333755,65.317406 232.883972,65.115578 
	C232.925369,65.323708 232.746201,65.623375 232.297501,65.898788 
z"/>
<path fill="#100E0F" opacity="1.000000" stroke="none" 
	d="
M482.292664,146.915009 
	C482.126678,146.553253 482.342346,146.322754 482.895416,146.113525 
	C482.939514,146.338394 482.753357,146.642212 482.292664,146.915009 
z"/>
<path fill="#060606" opacity="1.000000" stroke="none" 
	d="
M436.098724,146.288589 
	C436.418549,146.079468 436.644501,146.228836 436.887360,146.665131 
	C436.667450,146.755157 436.367645,146.653503 436.098724,146.288589 
z"/>
<path fill="#141112" opacity="1.000000" stroke="none" 
	d="
M416.286560,146.903198 
	C416.092926,146.585648 416.248260,146.362015 416.673767,146.109039 
	C416.760071,146.329193 416.657227,146.634995 416.286560,146.903198 
z"/>
<path fill="#141112" opacity="1.000000" stroke="none" 
	d="
M394.093872,146.287201 
	C394.414246,146.091660 394.639740,146.247681 394.892792,146.677521 
	C394.670441,146.764511 394.363312,146.660339 394.093872,146.287201 
z"/>
<path fill="#100E0E" opacity="1.000000" stroke="none" 
	d="
M256.288147,146.902267 
	C256.090302,146.581711 256.244446,146.356247 256.675598,146.107208 
	C256.763214,146.329910 256.659027,146.634491 256.288147,146.902267 
z"/>
<path fill="#100E0E" opacity="1.000000" stroke="none" 
	d="
M234.111771,146.286987 
	C234.423721,146.102554 234.641830,146.256409 234.889679,146.671356 
	C234.672272,146.754440 234.371765,146.652039 234.111771,146.286987 
z"/>
<path fill="#141112" opacity="1.000000" stroke="none" 
	d="
M375.302246,116.045166 
	C375.100128,115.797379 375.242889,115.510536 375.676941,115.142456 
	C375.779785,115.335670 375.672729,115.650642 375.302246,116.045166 
z"/>
<path fill="#0B0A0A" opacity="1.000000" stroke="none" 
	d="
M294.092255,113.293625 
	C294.451385,113.124390 294.679016,113.338188 294.886505,113.889053 
	C294.668457,113.932297 294.366577,113.749138 294.092255,113.293625 
z"/>
<path fill="#020101" opacity="1.000000" stroke="none" 
	d="
M283.297485,65.898758 
	C283.121918,65.540016 283.333618,65.317627 283.883484,65.115585 
	C283.924896,65.323578 283.745941,65.623306 283.297485,65.898758 
z"/>
<path fill="#020101" opacity="1.000000" stroke="none" 
	d="
M257.972137,65.284866 
	C258.202637,65.123085 258.484070,65.266403 258.854126,65.665359 
	C258.659851,65.764198 258.353302,65.653862 257.972137,65.284866 
z"/>
<path fill="#100E0E" opacity="1.000000" stroke="none" 
	d="
M55.714424,188.116562 
	C55.892681,188.425720 55.738060,188.640503 55.330261,188.889160 
	C55.249287,188.673676 55.350777,188.373383 55.714424,188.116562 
z"/>
<path fill="#020101" opacity="1.000000" stroke="none" 
	d="
M206.968170,65.286026 
	C207.196487,65.124496 207.479630,65.266914 207.852936,65.665070 
	C207.659668,65.764252 207.352951,65.653969 206.968170,65.286026 
z"/>
<path fill="#060606" opacity="1.000000" stroke="none" 
	d="
M436.707520,45.117920 
	C436.890228,45.435120 436.737671,45.654858 436.320679,45.896515 
	C436.236359,45.671062 436.341675,45.371735 436.707520,45.117920 
z"/>
<path fill="#141112" opacity="1.000000" stroke="none" 
	d="
M416.887390,45.716763 
	C416.584229,45.899979 416.370178,45.748299 416.118042,45.345543 
	C416.327271,45.262962 416.626160,45.358761 416.887390,45.716763 
z"/>
<path fill="#141112" opacity="1.000000" stroke="none" 
	d="
M394.714233,45.117237 
	C394.890717,45.428471 394.734741,45.643345 394.325684,45.891769 
	C394.245361,45.674442 394.348419,45.372959 394.714233,45.117237 
z"/>
<path fill="#141112" opacity="1.000000" stroke="none" 
	d="
M375.887299,45.716949 
	C375.584259,45.899803 375.370422,45.748062 375.117920,45.345963 
	C375.327087,45.263424 375.626160,45.359009 375.887299,45.716949 
z"/>
<path fill="#0B0A0A" opacity="1.000000" stroke="none" 
	d="
M294.709930,45.118950 
	C294.888885,45.432789 294.735077,45.649681 294.322876,45.893684 
	C294.240662,45.672234 294.344879,45.372635 294.709930,45.118950 
z"/>
<path fill="#141112" opacity="1.000000" stroke="none" 
	d="
M416.286163,39.899239 
	C416.095795,39.583523 416.251038,39.361797 416.672668,39.109550 
	C416.757812,39.328568 416.655396,39.633301 416.286163,39.899239 
z"/>
<path fill="#141112" opacity="1.000000" stroke="none" 
	d="
M394.097107,39.286667 
	C394.415070,39.093487 394.638733,39.249050 394.891510,39.674858 
	C394.670929,39.760994 394.365021,39.657761 394.097107,39.286667 
z"/>
<path fill="#141112" opacity="1.000000" stroke="none" 
	d="
M416.886353,19.716925 
	C416.583954,19.899399 416.370544,19.747925 416.118561,19.346592 
	C416.327240,19.264267 416.625732,19.359682 416.886353,19.716925 
z"/>
<path fill="#141112" opacity="1.000000" stroke="none" 
	d="
M394.714355,19.118345 
	C394.889954,19.429064 394.734039,19.643347 394.326141,19.891497 
	C394.246094,19.674490 394.348999,19.373339 394.714355,19.118345 
z"/>
<path fill="#141112" opacity="1.000000" stroke="none" 
	d="
M305.890717,188.716248 
	C305.582581,188.899277 305.366272,188.745132 305.113281,188.336578 
	C305.326691,188.253906 305.628693,188.352859 305.890717,188.716248 
z"/>
<path fill="#201C1D" opacity="1.000000" stroke="none" 
	d="
M182.682495,193.941360 
	C182.905838,194.193741 182.763901,194.481308 182.318298,194.853302 
	C182.214676,194.666290 182.315521,194.345901 182.682495,193.941360 
z"/>
<path fill="#191617" opacity="1.000000" stroke="none" 
	d="
M122.281479,192.875748 
	C122.110611,192.570862 122.266212,192.360748 122.664513,192.110550 
	C122.742599,192.322449 122.642845,192.622467 122.281479,192.875748 
z"/>
<path fill="#080707" opacity="1.000000" stroke="none" 
	d="
M24.104607,192.291748 
	C24.429991,192.095108 24.657209,192.248337 24.900265,192.682709 
	C24.670393,192.771179 24.367170,192.663773 24.104607,192.291748 
z"/>
<path fill="#201C1D" opacity="1.000000" stroke="none" 
	d="
M190.922180,191.714035 
	C190.570648,191.853271 190.339706,191.632568 190.116409,191.096375 
	C190.351288,191.054611 190.657532,191.245682 190.922180,191.714035 
z"/>
<path fill="#201C1D" opacity="1.000000" stroke="none" 
	d="
M183.686325,190.947937 
	C183.908066,191.200821 183.765976,191.485397 183.323822,191.853622 
	C183.220612,191.666641 183.320190,191.347412 183.686325,190.947937 
z"/>
<path fill="#0B0A0A" opacity="1.000000" stroke="none" 
	d="
M518.897827,188.705658 
	C518.542297,188.862198 518.319092,188.643631 518.116577,188.093689 
	C518.332520,188.056335 518.630127,188.245773 518.897827,188.705658 
z"/>
<path fill="#0C0B0B" opacity="1.000000" stroke="none" 
	d="
M483.711823,188.116364 
	C483.893433,188.427505 483.740051,188.644669 483.327087,188.890366 
	C483.244720,188.672424 483.347809,188.373596 483.711823,188.116364 
z"/>
<path fill="#0B0A0A" opacity="1.000000" stroke="none" 
	d="
M480.896973,188.713348 
	C480.584900,188.911743 480.364624,188.761566 480.117371,188.340790 
	C480.331451,188.253952 480.630951,188.352142 480.896973,188.713348 
z"/>
<path fill="#080707" opacity="1.000000" stroke="none" 
	d="
M435.709717,188.114838 
	C435.894806,188.430099 435.741974,188.649826 435.323761,188.893387 
	C435.239624,188.671310 435.344116,188.372009 435.709717,188.114838 
z"/>
<path fill="#0B0A0A" opacity="1.000000" stroke="none" 
	d="
M419.711487,188.116516 
	C419.893280,188.428131 419.739990,188.645493 419.326660,188.890717 
	C419.244141,188.672226 419.347412,188.373428 419.711487,188.116516 
z"/>
<path fill="#201C1D" opacity="1.000000" stroke="none" 
	d="
M191.926422,194.713745 
	C191.573608,194.852982 191.341522,194.630432 191.119080,194.089340 
	C191.354599,194.048233 191.660751,194.241943 191.926422,194.713745 
z"/>
<path fill="#080707" opacity="1.000000" stroke="none" 
	d="
M257.896332,188.704895 
	C257.541107,188.863647 257.318817,188.645828 257.117126,188.096008 
	C257.330261,188.058838 257.627472,188.246933 257.896332,188.704895 
z"/>
<path fill="#0C0B0B" opacity="1.000000" stroke="none" 
	d="
M211.711945,188.115738 
	C211.893677,188.427353 211.740112,188.644409 211.327301,188.890381 
	C211.244873,188.672256 211.347748,188.372894 211.711945,188.115738 
z"/>
<path fill="#201C1D" opacity="1.000000" stroke="none" 
	d="
M189.913498,188.716095 
	C189.598312,188.898483 189.375992,188.736603 189.108856,188.319641 
	C189.327682,188.236267 189.641800,188.338699 189.913498,188.716095 
z"/>
<path fill="#201C1D" opacity="1.000000" stroke="none" 
	d="
M184.715424,188.086151 
	C184.897507,188.403610 184.734802,188.625763 184.316406,188.891998 
	C184.233337,188.671738 184.336624,188.356674 184.715424,188.086151 
z"/>
<path fill="#0C0B0B" opacity="1.000000" stroke="none" 
	d="
M164.712967,188.118561 
	C164.891113,188.427643 164.737274,188.642548 164.329102,188.889221 
	C164.248016,188.673080 164.350098,188.374222 164.712967,188.118561 
z"/>
<path fill="#191617" opacity="1.000000" stroke="none" 
	d="
M122.891098,188.717255 
	C122.582237,188.897552 122.365753,188.741486 122.110931,188.332535 
	C122.325203,188.250809 122.628838,188.351212 122.891098,188.717255 
z"/>
<path fill="#191617" opacity="1.000000" stroke="none" 
	d="
M110.715225,188.101685 
	C110.898628,188.417236 110.740204,188.637405 110.321762,188.892700 
	C110.239037,188.673477 110.342926,188.366302 110.715225,188.101685 
z"/>
<path fill="#0C0B0B" opacity="1.000000" stroke="none" 
	d="
M92.892929,188.706207 
	C92.541771,188.856750 92.320679,188.637894 92.116692,188.093964 
	C92.331268,188.058136 92.627663,188.247452 92.892929,188.706207 
z"/>
<path fill="#080707" opacity="1.000000" stroke="none" 
	d="
M87.708725,187.959290 
	C87.884338,188.187286 87.744461,188.472015 87.338303,188.847961 
	C87.238998,188.660889 87.346069,188.353149 87.708725,187.959290 
z"/>
<path fill="#0C0B0B" opacity="1.000000" stroke="none" 
	d="
M71.712502,188.116180 
	C71.892677,188.427628 71.738495,188.644150 71.326782,188.890808 
	C71.244888,188.672806 71.347855,188.372894 71.712502,188.116180 
z"/>
<path fill="#FFFFFF" opacity="1.000000" stroke="none" 
	d="
M487.112488,68.656891 
	C498.364471,77.830612 498.505402,90.146210 497.617310,102.561714 
	C497.339264,106.448944 495.748413,110.311729 494.356903,114.035667 
	C491.289124,122.245834 484.134583,124.878334 476.413757,125.854965 
	C471.203796,126.514000 465.842957,125.980598 460.307495,125.980598 
	C460.307495,105.596619 460.307495,85.537193 460.307495,65.511963 
	C469.092834,67.316742 478.412689,63.811543 487.112488,68.656891 
z"/>
<path fill="#FFFFFF" opacity="1.000000" stroke="none" 
	d="
M144.131577,47.505886 
	C151.676605,57.838020 156.169601,69.644226 155.929993,82.826134 
	C155.740005,93.277252 151.694489,102.473656 145.698181,110.988976 
	C143.440094,114.195679 141.912888,112.947014 140.513321,110.880119 
	C135.364456,103.276184 128.197250,98.647163 119.337418,97.084923 
	C108.506790,95.175194 99.204140,98.666710 92.350792,107.276604 
	C85.169495,116.298508 81.785706,126.444336 85.474197,138.032837 
	C89.578224,150.926819 99.798584,156.341583 111.814003,159.516678 
	C113.356010,159.924164 114.987823,159.991821 116.782867,160.493607 
	C100.425858,163.192017 85.149742,159.641678 70.915833,150.998978 
	C64.025276,146.815109 55.047077,134.208099 53.273113,126.246246 
	C58.815060,124.504906 64.533150,123.299988 69.744667,120.964607 
	C88.707458,112.467041 92.236275,89.666809 77.776382,73.084084 
	C65.853378,59.410679 43.823463,59.898991 31.289806,72.936310 
	C32.106831,70.719734 33.013580,68.242508 34.436417,66.109558 
	C46.917000,47.400105 64.317680,39.394394 86.274933,42.346210 
	C85.192787,48.666416 83.599312,54.986404 83.118393,61.389946 
	C82.045586,75.674492 92.804825,86.536964 104.850815,89.822021 
	C118.010826,93.410866 133.108215,89.515549 141.270859,76.183823 
	C145.844635,68.713661 145.392471,60.492996 144.642822,52.255795 
	C144.510925,50.806698 144.240341,49.370220 144.131577,47.505886 
z"/>
<path fill="#FFFFFF" opacity="1.000000" stroke="none" 
	d="
M30.732544,72.685234 
	C30.592665,73.574867 30.150570,74.189888 29.432114,74.897034 
	C29.580610,74.129646 30.005472,73.270134 30.732544,72.685234 
z"/>
<path fill="#201C1D" opacity="1.000000" stroke="none" 
	d="
M186.607819,199.533295 
	C187.058502,199.649567 187.334793,199.933365 187.589737,200.235199 
	C187.596268,200.242950 187.368622,200.448471 187.250183,200.561737 
	C186.976990,200.275543 186.703812,199.989365 186.607819,199.533295 
z"/>
<path fill="#201C1D" opacity="1.000000" stroke="none" 
	d="
M186.954529,196.607819 
	C186.711853,196.210159 186.713501,195.814514 186.743820,195.421082 
	C186.744690,195.410019 187.051361,195.422516 187.215439,195.424042 
	C187.211258,195.819412 187.207062,196.214783 186.954529,196.607819 
z"/>
<path fill="#020101" opacity="1.000000" stroke="none" 
	d="
M427.260620,203.011551 
	C425.996765,202.796432 424.220154,202.341797 424.160034,201.720993 
	C423.864960,198.672485 424.026093,195.579819 424.026093,192.374283 
	C428.413483,193.352203 428.779480,194.639404 427.260620,203.011551 
z"/>
</svg>