<svg width="375" height="255" viewBox="0 0 375 255" fill="none" xmlns="http://www.w3.org/2000/svg">
<path d="M117.5 161L116 1H251.5V30.5H149V131.5L252.5 130V159.5L117.5 161Z" stroke="#78C37E" stroke-width="2"/>
<circle cx="183" cy="80.5" r="16" stroke="#78C37E" stroke-width="2"/>
<circle cx="183" cy="80.5" r="16" stroke="#78C37E" stroke-width="2"/>
<circle cx="183" cy="80.5" r="16" stroke="#78C37E" stroke-width="2"/>
<circle cx="183" cy="80.5" r="16" stroke="#78C37E" stroke-width="2"/>
<circle cx="183" cy="80.5" r="16" stroke="#78C37E" stroke-width="2"/>
<circle cx="234" cy="80.5" r="16" stroke="#78C37E" stroke-width="2"/>
<circle cx="234" cy="80.5" r="16" stroke="#78C37E" stroke-width="2"/>
<circle cx="234" cy="80.5" r="16" stroke="#78C37E" stroke-width="2"/>
<circle cx="234" cy="80.5" r="16" stroke="#78C37E" stroke-width="2"/>
<circle cx="234" cy="80.5" r="16" stroke="#78C37E" stroke-width="2"/>
<mask id="path-4-outside-1_164_165" maskUnits="userSpaceOnUse" x="27" y="188.5" width="323" height="41" fill="black">
<rect fill="white" x="27" y="188.5" width="323" height="41"/>
<path d="M49.0894 221.643V226.5H33.9683V221.643H49.0894ZM35.4995 191.664V226.5H29.6855V191.664H35.4995ZM47.0557 206.163V210.948H33.9683V206.163H47.0557ZM48.9458 191.664V196.545H33.9683V191.664H48.9458ZM77.5563 221.643V226.5H63.0812V221.643H77.5563ZM64.6124 191.664V226.5H58.7984V191.664H64.6124ZM106.502 221.643V226.5H91.3806V221.643H106.502ZM92.9118 191.664V226.5H87.0979V191.664H92.9118ZM104.468 206.163V210.948H91.3806V206.163H104.468ZM106.358 191.664V196.545H91.3806V191.664H106.358ZM122.025 191.664V226.5H116.211V191.664H122.025ZM139.419 191.664L127.815 208.484L120.852 217.025L119.752 210.948L124.561 203.818L132.385 191.664H139.419ZM133.031 226.5L124.202 210.039L128.198 205.9L139.897 226.5H133.031ZM160.708 191.664V226.5H154.918V191.664H160.708ZM169.584 191.664V196.545H146.137V191.664H169.584ZM179.102 191.664H189.629C191.926 191.664 193.872 192.063 195.467 192.86C197.062 193.658 198.275 194.838 199.104 196.401C199.949 197.949 200.372 199.871 200.372 202.167C200.372 203.906 200.109 205.437 199.583 206.761C199.072 208.085 198.33 209.202 197.357 210.111C196.384 211.004 195.212 211.698 193.84 212.192L192.142 213.125H183.241L183.217 208.245H189.486C190.618 208.245 191.559 207.997 192.309 207.503C193.059 207.008 193.617 206.323 193.984 205.445C194.367 204.568 194.558 203.571 194.558 202.455C194.558 201.258 194.391 200.222 194.056 199.344C193.721 198.451 193.194 197.765 192.477 197.287C191.759 196.792 190.81 196.545 189.629 196.545H184.916V226.5H179.102V191.664ZM195.324 226.5L188.696 210.853L194.75 210.829L201.544 226.189V226.5H195.324ZM234.222 206.235V212.168C234.222 214.625 233.935 216.778 233.361 218.628C232.803 220.479 231.989 222.026 230.921 223.27C229.868 224.498 228.592 225.423 227.092 226.045C225.609 226.667 223.95 226.979 222.116 226.979C220.297 226.979 218.639 226.667 217.139 226.045C215.656 225.423 214.372 224.498 213.287 223.27C212.219 222.026 211.389 220.479 210.799 218.628C210.225 216.778 209.938 214.625 209.938 212.168V206.235C209.938 203.747 210.225 201.569 210.799 199.703C211.373 197.821 212.195 196.25 213.263 194.99C214.348 193.73 215.632 192.781 217.115 192.143C218.615 191.505 220.266 191.186 222.068 191.186C223.902 191.186 225.561 191.505 227.045 192.143C228.544 192.781 229.828 193.73 230.897 194.99C231.965 196.25 232.787 197.821 233.361 199.703C233.935 201.569 234.222 203.747 234.222 206.235ZM228.456 212.168V206.187C228.456 204.417 228.313 202.901 228.025 201.641C227.754 200.365 227.348 199.328 226.805 198.531C226.263 197.717 225.593 197.119 224.796 196.736C224.014 196.338 223.105 196.138 222.068 196.138C221.063 196.138 220.162 196.338 219.364 196.736C218.583 197.119 217.913 197.717 217.355 198.531C216.812 199.328 216.398 200.365 216.11 201.641C215.839 202.901 215.704 204.417 215.704 206.187V212.168C215.704 213.907 215.847 215.406 216.134 216.667C216.421 217.911 216.836 218.931 217.379 219.729C217.937 220.511 218.615 221.093 219.412 221.476C220.21 221.858 221.111 222.05 222.116 222.05C223.137 222.05 224.046 221.858 224.843 221.476C225.641 221.093 226.303 220.511 226.829 219.729C227.372 218.931 227.778 217.911 228.049 216.667C228.321 215.406 228.456 213.907 228.456 212.168ZM259.986 217.504C259.986 216.786 259.906 216.148 259.746 215.59C259.603 215.016 259.324 214.497 258.909 214.035C258.494 213.572 257.904 213.118 257.138 212.671C256.389 212.224 255.416 211.77 254.219 211.307C252.848 210.781 251.564 210.207 250.367 209.584C249.187 208.946 248.142 208.229 247.233 207.431C246.34 206.618 245.638 205.669 245.128 204.584C244.617 203.499 244.362 202.239 244.362 200.804C244.362 199.384 244.609 198.092 245.104 196.928C245.614 195.747 246.332 194.735 247.257 193.889C248.198 193.028 249.315 192.366 250.607 191.903C251.899 191.425 253.326 191.186 254.889 191.186C257.138 191.186 259.06 191.664 260.655 192.621C262.266 193.578 263.495 194.862 264.34 196.473C265.201 198.084 265.632 199.871 265.632 201.833H259.842C259.842 200.7 259.667 199.695 259.316 198.818C258.965 197.941 258.422 197.255 257.689 196.76C256.955 196.266 256.006 196.019 254.842 196.019C253.773 196.019 252.888 196.226 252.186 196.641C251.5 197.055 250.989 197.622 250.654 198.339C250.335 199.057 250.176 199.879 250.176 200.804C250.176 201.442 250.312 202.024 250.583 202.55C250.854 203.061 251.245 203.531 251.755 203.962C252.265 204.393 252.888 204.799 253.621 205.182C254.355 205.565 255.2 205.932 256.157 206.283C257.784 206.873 259.204 207.527 260.416 208.245C261.628 208.962 262.625 209.768 263.407 210.661C264.204 211.538 264.795 212.535 265.177 213.652C265.576 214.768 265.776 216.036 265.776 217.456C265.776 218.892 265.528 220.2 265.034 221.38C264.555 222.544 263.854 223.541 262.928 224.371C262.003 225.2 260.887 225.846 259.579 226.309C258.271 226.755 256.803 226.979 255.176 226.979C253.677 226.979 252.234 226.755 250.846 226.309C249.474 225.862 248.246 225.184 247.161 224.275C246.077 223.35 245.215 222.193 244.577 220.806C243.955 219.418 243.644 217.791 243.644 215.925H249.458C249.458 217.041 249.594 217.998 249.865 218.796C250.136 219.577 250.527 220.223 251.037 220.734C251.564 221.228 252.178 221.595 252.88 221.834C253.597 222.058 254.395 222.169 255.272 222.169C256.357 222.169 257.242 221.978 257.928 221.595C258.63 221.196 259.148 220.646 259.483 219.944C259.818 219.243 259.986 218.429 259.986 217.504ZM286.132 220.04L293.549 191.664H299.841L289.433 226.5H285.127L286.132 220.04ZM279.648 191.664L287.017 220.04L288.094 226.5H283.787L273.379 191.664H279.648ZM314.79 191.664V226.5H308.976V191.664H314.79ZM338.352 191.664V226.5H332.562V191.664H338.352ZM347.229 191.664V196.545H323.781V191.664H347.229Z"/>
</mask>
<path d="M49.0894 221.643H51.0894V219.643H49.0894V221.643ZM49.0894 226.5V228.5H51.0894V226.5H49.0894ZM33.9683 226.5H31.9683V228.5H33.9683V226.5ZM33.9683 221.643V219.643H31.9683V221.643H33.9683ZM35.4995 191.664H37.4995V189.664H35.4995V191.664ZM35.4995 226.5V228.5H37.4995V226.5H35.4995ZM29.6855 226.5H27.6855V228.5H29.6855V226.5ZM29.6855 191.664V189.664H27.6855V191.664H29.6855ZM47.0557 206.163H49.0557V204.163H47.0557V206.163ZM47.0557 210.948V212.948H49.0557V210.948H47.0557ZM33.9683 210.948H31.9683V212.948H33.9683V210.948ZM33.9683 206.163V204.163H31.9683V206.163H33.9683ZM48.9458 191.664H50.9458V189.664H48.9458V191.664ZM48.9458 196.545V198.545H50.9458V196.545H48.9458ZM33.9683 196.545H31.9683V198.545H33.9683V196.545ZM33.9683 191.664V189.664H31.9683V191.664H33.9683ZM49.0894 221.643H47.0894V226.5H49.0894H51.0894V221.643H49.0894ZM49.0894 226.5V224.5H33.9683V226.5V228.5H49.0894V226.5ZM33.9683 226.5H35.9683V221.643H33.9683H31.9683V226.5H33.9683ZM33.9683 221.643V223.643H49.0894V221.643V219.643H33.9683V221.643ZM35.4995 191.664H33.4995V226.5H35.4995H37.4995V191.664H35.4995ZM35.4995 226.5V224.5H29.6855V226.5V228.5H35.4995V226.5ZM29.6855 226.5H31.6855V191.664H29.6855H27.6855V226.5H29.6855ZM29.6855 191.664V193.664H35.4995V191.664V189.664H29.6855V191.664ZM47.0557 206.163H45.0557V210.948H47.0557H49.0557V206.163H47.0557ZM47.0557 210.948V208.948H33.9683V210.948V212.948H47.0557V210.948ZM33.9683 210.948H35.9683V206.163H33.9683H31.9683V210.948H33.9683ZM33.9683 206.163V208.163H47.0557V206.163V204.163H33.9683V206.163ZM48.9458 191.664H46.9458V196.545H48.9458H50.9458V191.664H48.9458ZM48.9458 196.545V194.545H33.9683V196.545V198.545H48.9458V196.545ZM33.9683 196.545H35.9683V191.664H33.9683H31.9683V196.545H33.9683ZM33.9683 191.664V193.664H48.9458V191.664V189.664H33.9683V191.664ZM77.5563 221.643H79.5563V219.643H77.5563V221.643ZM77.5563 226.5V228.5H79.5563V226.5H77.5563ZM63.0812 226.5H61.0812V228.5H63.0812V226.5ZM63.0812 221.643V219.643H61.0812V221.643H63.0812ZM64.6124 191.664H66.6124V189.664H64.6124V191.664ZM64.6124 226.5V228.5H66.6124V226.5H64.6124ZM58.7984 226.5H56.7984V228.5H58.7984V226.5ZM58.7984 191.664V189.664H56.7984V191.664H58.7984ZM77.5563 221.643H75.5563V226.5H77.5563H79.5563V221.643H77.5563ZM77.5563 226.5V224.5H63.0812V226.5V228.5H77.5563V226.5ZM63.0812 226.5H65.0812V221.643H63.0812H61.0812V226.5H63.0812ZM63.0812 221.643V223.643H77.5563V221.643V219.643H63.0812V221.643ZM64.6124 191.664H62.6124V226.5H64.6124H66.6124V191.664H64.6124ZM64.6124 226.5V224.5H58.7984V226.5V228.5H64.6124V226.5ZM58.7984 226.5H60.7984V191.664H58.7984H56.7984V226.5H58.7984ZM58.7984 191.664V193.664H64.6124V191.664V189.664H58.7984V191.664ZM106.502 221.643H108.502V219.643H106.502V221.643ZM106.502 226.5V228.5H108.502V226.5H106.502ZM91.3806 226.5H89.3806V228.5H91.3806V226.5ZM91.3806 221.643V219.643H89.3806V221.643H91.3806ZM92.9118 191.664H94.9118V189.664H92.9118V191.664ZM92.9118 226.5V228.5H94.9118V226.5H92.9118ZM87.0979 226.5H85.0979V228.5H87.0979V226.5ZM87.0979 191.664V189.664H85.0979V191.664H87.0979ZM104.468 206.163H106.468V204.163H104.468V206.163ZM104.468 210.948V212.948H106.468V210.948H104.468ZM91.3806 210.948H89.3806V212.948H91.3806V210.948ZM91.3806 206.163V204.163H89.3806V206.163H91.3806ZM106.358 191.664H108.358V189.664H106.358V191.664ZM106.358 196.545V198.545H108.358V196.545H106.358ZM91.3806 196.545H89.3806V198.545H91.3806V196.545ZM91.3806 191.664V189.664H89.3806V191.664H91.3806ZM106.502 221.643H104.502V226.5H106.502H108.502V221.643H106.502ZM106.502 226.5V224.5H91.3806V226.5V228.5H106.502V226.5ZM91.3806 226.5H93.3806V221.643H91.3806H89.3806V226.5H91.3806ZM91.3806 221.643V223.643H106.502V221.643V219.643H91.3806V221.643ZM92.9118 191.664H90.9118V226.5H92.9118H94.9118V191.664H92.9118ZM92.9118 226.5V224.5H87.0979V226.5V228.5H92.9118V226.5ZM87.0979 226.5H89.0979V191.664H87.0979H85.0979V226.5H87.0979ZM87.0979 191.664V193.664H92.9118V191.664V189.664H87.0979V191.664ZM104.468 206.163H102.468V210.948H104.468H106.468V206.163H104.468ZM104.468 210.948V208.948H91.3806V210.948V212.948H104.468V210.948ZM91.3806 210.948H93.3806V206.163H91.3806H89.3806V210.948H91.3806ZM91.3806 206.163V208.163H104.468V206.163V204.163H91.3806V206.163ZM106.358 191.664H104.358V196.545H106.358H108.358V191.664H106.358ZM106.358 196.545V194.545H91.3806V196.545V198.545H106.358V196.545ZM91.3806 196.545H93.3806V191.664H91.3806H89.3806V196.545H91.3806ZM91.3806 191.664V193.664H106.358V191.664V189.664H91.3806V191.664ZM122.025 191.664H124.025V189.664H122.025V191.664ZM122.025 226.5V228.5H124.025V226.5H122.025ZM116.211 226.5H114.211V228.5H116.211V226.5ZM116.211 191.664V189.664H114.211V191.664H116.211ZM139.419 191.664L141.065 192.8L143.228 189.664H139.419V191.664ZM127.815 208.484L129.365 209.748L129.416 209.685L129.461 209.62L127.815 208.484ZM120.852 217.025L118.884 217.382L119.658 221.656L122.403 218.289L120.852 217.025ZM119.752 210.948L118.094 209.83L117.639 210.504L117.784 211.305L119.752 210.948ZM124.561 203.818L126.219 204.937L126.231 204.919L126.243 204.901L124.561 203.818ZM132.385 191.664V189.664H131.293L130.703 190.582L132.385 191.664ZM133.031 226.5L131.268 227.445L131.834 228.5H133.031V226.5ZM124.202 210.039L122.763 208.65L121.75 209.699L122.439 210.984L124.202 210.039ZM128.198 205.9L129.937 204.912L128.616 202.587L126.759 204.511L128.198 205.9ZM139.897 226.5V228.5H143.333L141.636 225.512L139.897 226.5ZM122.025 191.664H120.025V226.5H122.025H124.025V191.664H122.025ZM122.025 226.5V224.5H116.211V226.5V228.5H122.025V226.5ZM116.211 226.5H118.211V191.664H116.211H114.211V226.5H116.211ZM116.211 191.664V193.664H122.025V191.664V189.664H116.211V191.664ZM139.419 191.664L137.773 190.528L126.169 207.348L127.815 208.484L129.461 209.62L141.065 192.8L139.419 191.664ZM127.815 208.484L126.265 207.22L119.302 215.762L120.852 217.025L122.403 218.289L129.365 209.748L127.815 208.484ZM120.852 217.025L122.82 216.669L121.72 210.592L119.752 210.948L117.784 211.305L118.884 217.382L120.852 217.025ZM119.752 210.948L121.41 212.067L126.219 204.937L124.561 203.818L122.903 202.7L118.094 209.83L119.752 210.948ZM124.561 203.818L126.243 204.901L134.066 192.747L132.385 191.664L130.703 190.582L122.879 202.736L124.561 203.818ZM132.385 191.664V193.664H139.419V191.664V189.664H132.385V191.664ZM133.031 226.5L134.793 225.555L125.964 209.094L124.202 210.039L122.439 210.984L131.268 227.445L133.031 226.5ZM124.202 210.039L125.641 211.428L129.637 207.289L128.198 205.9L126.759 204.511L122.763 208.65L124.202 210.039ZM128.198 205.9L126.458 206.888L138.158 227.488L139.897 226.5L141.636 225.512L129.937 204.912L128.198 205.9ZM139.897 226.5V224.5H133.031V226.5V228.5H139.897V226.5ZM160.708 191.664H162.708V189.664H160.708V191.664ZM160.708 226.5V228.5H162.708V226.5H160.708ZM154.918 226.5H152.918V228.5H154.918V226.5ZM154.918 191.664V189.664H152.918V191.664H154.918ZM169.584 191.664H171.584V189.664H169.584V191.664ZM169.584 196.545V198.545H171.584V196.545H169.584ZM146.137 196.545H144.137V198.545H146.137V196.545ZM146.137 191.664V189.664H144.137V191.664H146.137ZM160.708 191.664H158.708V226.5H160.708H162.708V191.664H160.708ZM160.708 226.5V224.5H154.918V226.5V228.5H160.708V226.5ZM154.918 226.5H156.918V191.664H154.918H152.918V226.5H154.918ZM154.918 191.664V193.664H160.708V191.664V189.664H154.918V191.664ZM169.584 191.664H167.584V196.545H169.584H171.584V191.664H169.584ZM169.584 196.545V194.545H146.137V196.545V198.545H169.584V196.545ZM146.137 196.545H148.137V191.664H146.137H144.137V196.545H146.137ZM146.137 191.664V193.664H169.584V191.664V189.664H146.137V191.664ZM179.102 191.664V189.664H177.102V191.664H179.102ZM199.104 196.401L197.337 197.339L197.343 197.35L197.349 197.36L199.104 196.401ZM199.583 206.761L197.724 206.022L197.72 206.032L197.716 206.042L199.583 206.761ZM197.357 210.111L198.71 211.584L198.716 211.578L198.723 211.572L197.357 210.111ZM193.84 212.192L193.162 210.311L193.015 210.364L192.877 210.439L193.84 212.192ZM192.142 213.125V215.125H192.655L193.104 214.878L192.142 213.125ZM183.241 213.125L181.241 213.135L181.251 215.125H183.241V213.125ZM183.217 208.245V206.245H181.207L181.217 208.254L183.217 208.245ZM193.984 205.445L192.151 204.645L192.145 204.66L192.139 204.674L193.984 205.445ZM194.056 199.344L192.183 200.046L192.187 200.058L194.056 199.344ZM192.477 197.287L191.342 198.934L191.354 198.942L191.367 198.951L192.477 197.287ZM184.916 196.545V194.545H182.916V196.545H184.916ZM184.916 226.5V228.5H186.916V226.5H184.916ZM179.102 226.5H177.102V228.5H179.102V226.5ZM195.324 226.5L193.482 227.28L193.999 228.5H195.324V226.5ZM188.696 210.853L188.688 208.853L185.682 208.864L186.855 211.633L188.696 210.853ZM194.75 210.829L196.579 210.02L196.049 208.823L194.742 208.829L194.75 210.829ZM201.544 226.189H203.544V225.766L203.373 225.38L201.544 226.189ZM201.544 226.5V228.5H203.544V226.5H201.544ZM179.102 191.664V193.664H189.629V191.664V189.664H179.102V191.664ZM189.629 191.664V193.664C191.702 193.664 193.324 194.025 194.573 194.649L195.467 192.86L196.362 191.071C194.421 190.101 192.15 189.664 189.629 189.664V191.664ZM195.467 192.86L194.573 194.649C195.799 195.262 196.705 196.146 197.337 197.339L199.104 196.401L200.871 195.464C199.845 193.53 198.326 192.054 196.362 191.071L195.467 192.86ZM199.104 196.401L197.349 197.36C197.992 198.538 198.372 200.107 198.372 202.167H200.372H202.372C202.372 199.634 201.907 197.359 200.859 195.442L199.104 196.401ZM200.372 202.167H198.372C198.372 203.707 198.139 204.979 197.724 206.022L199.583 206.761L201.441 207.5C202.079 205.896 202.372 204.105 202.372 202.167H200.372ZM199.583 206.761L197.716 206.042C197.307 207.103 196.73 207.96 195.992 208.65L197.357 210.111L198.723 211.572C199.931 210.443 200.837 209.068 201.449 207.481L199.583 206.761ZM197.357 210.111L196.005 208.638C195.247 209.333 194.31 209.897 193.162 210.311L193.84 212.192L194.519 214.074C196.114 213.499 197.522 212.675 198.71 211.584L197.357 210.111ZM193.84 212.192L192.877 210.439L191.179 211.373L192.142 213.125L193.104 214.878L194.803 213.945L193.84 212.192ZM192.142 213.125V211.125H183.241V213.125V215.125H192.142V213.125ZM183.241 213.125L185.241 213.116L185.217 208.235L183.217 208.245L181.217 208.254L181.241 213.135L183.241 213.125ZM183.217 208.245V210.245H189.486V208.245V206.245H183.217V208.245ZM189.486 208.245V210.245C190.908 210.245 192.258 209.933 193.41 209.172L192.309 207.503L191.208 205.833C190.861 206.062 190.329 206.245 189.486 206.245V208.245ZM192.309 207.503L193.41 209.172C194.512 208.446 195.318 207.438 195.829 206.217L193.984 205.445L192.139 204.674C191.916 205.207 191.606 205.571 191.208 205.833L192.309 207.503ZM193.984 205.445L195.817 206.245C196.327 205.077 196.558 203.801 196.558 202.455H194.558H192.558C192.558 203.341 192.407 204.059 192.151 204.645L193.984 205.445ZM194.558 202.455H196.558C196.558 201.078 196.366 199.789 195.924 198.631L194.056 199.344L192.187 200.058C192.415 200.654 192.558 201.438 192.558 202.455H194.558ZM194.056 199.344L195.928 198.642C195.462 197.4 194.69 196.358 193.586 195.623L192.477 197.287L191.367 198.951C191.699 199.172 191.979 199.502 192.183 200.046L194.056 199.344ZM192.477 197.287L193.611 195.64C192.46 194.847 191.075 194.545 189.629 194.545V196.545V198.545C190.545 198.545 191.057 198.738 191.342 198.934L192.477 197.287ZM189.629 196.545V194.545H184.916V196.545V198.545H189.629V196.545ZM184.916 196.545H182.916V226.5H184.916H186.916V196.545H184.916ZM184.916 226.5V224.5H179.102V226.5V228.5H184.916V226.5ZM179.102 226.5H181.102V191.664H179.102H177.102V226.5H179.102ZM195.324 226.5L197.165 225.72L190.538 210.073L188.696 210.853L186.855 211.633L193.482 227.28L195.324 226.5ZM188.696 210.853L188.704 212.853L194.757 212.829L194.75 210.829L194.742 208.829L188.688 208.853L188.696 210.853ZM194.75 210.829L192.92 211.638L199.715 226.998L201.544 226.189L203.373 225.38L196.579 210.02L194.75 210.829ZM201.544 226.189H199.544V226.5H201.544H203.544V226.189H201.544ZM201.544 226.5V224.5H195.324V226.5V228.5H201.544V226.5ZM233.361 218.628L231.451 218.036L231.448 218.043L231.446 218.051L233.361 218.628ZM230.921 223.27L229.403 221.967L229.402 221.968L230.921 223.27ZM227.092 226.045L226.326 224.198L226.319 224.201L227.092 226.045ZM217.139 226.045L216.366 227.89L216.373 227.893L217.139 226.045ZM213.287 223.27L211.77 224.573L211.779 224.584L211.788 224.594L213.287 223.27ZM210.799 218.628L208.889 219.221L208.891 219.229L208.893 219.236L210.799 218.628ZM210.799 199.703L212.71 200.291L212.712 200.287L210.799 199.703ZM213.263 194.99L211.747 193.685L211.743 193.691L211.738 193.696L213.263 194.99ZM217.115 192.143L216.332 190.302L216.325 190.305L217.115 192.143ZM227.045 192.143L226.254 193.98L226.261 193.983L227.045 192.143ZM230.897 194.99L229.371 196.283L230.897 194.99ZM233.361 199.703L231.448 200.287L231.449 200.291L233.361 199.703ZM228.025 201.641L226.069 202.057L226.072 202.071L226.075 202.085L228.025 201.641ZM226.805 198.531L225.141 199.64L225.146 199.648L225.151 199.655L226.805 198.531ZM224.796 196.736L223.887 198.518L223.908 198.529L223.93 198.539L224.796 196.736ZM219.364 196.736L220.244 198.532L220.251 198.529L220.259 198.525L219.364 196.736ZM217.355 198.531L215.706 197.399L215.701 197.406L217.355 198.531ZM216.11 201.641L214.159 201.202L214.157 201.211L214.155 201.22L216.11 201.641ZM216.134 216.667L214.184 217.111L214.186 217.116L216.134 216.667ZM217.379 219.729L215.725 220.854L215.738 220.873L215.751 220.891L217.379 219.729ZM219.412 221.476L218.547 223.279L219.412 221.476ZM226.829 219.729L225.175 218.604L225.17 218.612L226.829 219.729ZM228.049 216.667L230.004 217.092L230.005 217.087L228.049 216.667ZM234.222 206.235H232.222V212.168H234.222H236.222V206.235H234.222ZM234.222 212.168H232.222C232.222 214.475 231.952 216.421 231.451 218.036L233.361 218.628L235.271 219.221C235.918 217.136 236.222 214.775 236.222 212.168H234.222ZM233.361 218.628L231.446 218.051C230.954 219.681 230.261 220.968 229.403 221.967L230.921 223.27L232.438 224.573C233.717 223.083 234.651 221.276 235.276 219.206L233.361 218.628ZM230.921 223.27L229.402 221.968C228.554 222.957 227.536 223.696 226.326 224.198L227.092 226.045L227.859 227.893C229.647 227.151 231.181 226.039 232.439 224.572L230.921 223.27ZM227.092 226.045L226.319 224.201C225.112 224.707 223.722 224.979 222.116 224.979V226.979V228.979C224.179 228.979 226.105 228.628 227.866 227.89L227.092 226.045ZM222.116 226.979V224.979C220.529 224.979 219.135 224.708 217.906 224.198L217.139 226.045L216.373 227.893C218.143 228.627 220.066 228.979 222.116 228.979V226.979ZM217.139 226.045L217.913 224.201C216.713 223.698 215.675 222.953 214.786 221.946L213.287 223.27L211.788 224.594C213.068 226.044 214.599 227.149 216.366 227.89L217.139 226.045ZM213.287 223.27L214.804 221.967C213.939 220.96 213.228 219.662 212.704 218.021L210.799 218.628L208.893 219.236C209.55 221.296 210.498 223.092 211.77 224.573L213.287 223.27ZM210.799 218.628L212.709 218.036C212.208 216.421 211.938 214.475 211.938 212.168H209.938H207.938C207.938 214.775 208.242 217.136 208.889 219.221L210.799 218.628ZM209.938 212.168H211.938V206.235H209.938H207.938V212.168H209.938ZM209.938 206.235H211.938C211.938 203.894 212.208 201.923 212.71 200.291L210.799 199.703L208.887 199.115C208.241 201.216 207.938 203.599 207.938 206.235H209.938ZM210.799 199.703L212.712 200.287C213.222 198.616 213.926 197.3 214.789 196.283L213.263 194.99L211.738 193.696C210.463 195.2 209.525 197.026 208.886 199.12L210.799 199.703ZM213.263 194.99L214.779 196.294C215.672 195.258 216.71 194.494 217.906 193.98L217.115 192.143L216.325 190.305C214.554 191.067 213.024 192.202 211.747 193.685L213.263 194.99ZM217.115 192.143L217.898 193.983C219.125 193.461 220.506 193.186 222.068 193.186V191.186V189.186C220.025 189.186 218.104 189.548 216.332 190.302L217.115 192.143ZM222.068 191.186V193.186C223.667 193.186 225.052 193.463 226.254 193.98L227.045 192.143L227.835 190.305C226.07 189.546 224.137 189.186 222.068 189.186V191.186ZM227.045 192.143L226.261 193.983C227.47 194.497 228.501 195.257 229.371 196.283L230.897 194.99L232.422 193.696C231.155 192.202 229.618 191.064 227.828 190.302L227.045 192.143ZM230.897 194.99L229.371 196.283C230.233 197.3 230.938 198.616 231.448 200.287L233.361 199.703L235.274 199.12C234.635 197.026 233.697 195.2 232.422 193.696L230.897 194.99ZM233.361 199.703L231.449 200.291C231.951 201.923 232.222 203.894 232.222 206.235H234.222H236.222C236.222 203.599 235.919 201.216 235.272 199.115L233.361 199.703ZM228.456 212.168H230.456V206.187H228.456H226.456V212.168H228.456ZM228.456 206.187H230.456C230.456 204.318 230.305 202.645 229.976 201.197L228.025 201.641L226.075 202.085C226.32 203.157 226.456 204.515 226.456 206.187H228.456ZM228.025 201.641L229.982 201.225C229.675 199.78 229.189 198.479 228.459 197.406L226.805 198.531L225.151 199.655C225.506 200.177 225.834 200.95 226.069 202.057L228.025 201.641ZM226.805 198.531L228.469 197.421C227.749 196.341 226.815 195.487 225.661 194.933L224.796 196.736L223.93 198.539C224.371 198.751 224.776 199.093 225.141 199.64L226.805 198.531ZM224.796 196.736L225.704 194.955C224.595 194.389 223.364 194.138 222.068 194.138V196.138V198.138C222.846 198.138 223.433 198.287 223.887 198.518L224.796 196.736ZM222.068 196.138V194.138C220.792 194.138 219.579 194.393 218.47 194.947L219.364 196.736L220.259 198.525C220.745 198.282 221.334 198.138 222.068 198.138V196.138ZM219.364 196.736L218.485 194.94C217.354 195.494 216.432 196.34 215.706 197.399L217.355 198.531L219.004 199.662C219.393 199.094 219.811 198.744 220.244 198.532L219.364 196.736ZM217.355 198.531L215.701 197.406C214.977 198.471 214.483 199.763 214.159 201.202L216.11 201.641L218.062 202.08C218.312 200.967 218.648 200.185 219.008 199.655L217.355 198.531ZM216.11 201.641L214.155 201.22C213.846 202.659 213.704 204.323 213.704 206.187H215.704H217.704C217.704 204.51 217.833 203.143 218.066 202.062L216.11 201.641ZM215.704 206.187H213.704V212.168H215.704H217.704V206.187H215.704ZM215.704 212.168H213.704C213.704 214.009 213.855 215.665 214.184 217.111L216.134 216.667L218.084 216.222C217.84 215.148 217.704 213.805 217.704 212.168H215.704ZM216.134 216.667L214.186 217.116C214.511 218.528 215.006 219.797 215.725 220.854L217.379 219.729L219.032 218.604C218.666 218.066 218.332 217.293 218.083 216.217L216.134 216.667ZM217.379 219.729L215.751 220.891C216.488 221.923 217.42 222.738 218.547 223.279L219.412 221.476L220.278 219.673C219.81 219.448 219.386 219.098 219.006 218.567L217.379 219.729ZM219.412 221.476L218.547 223.279C219.649 223.808 220.852 224.05 222.116 224.05V222.05V220.05C221.37 220.05 220.771 219.909 220.278 219.673L219.412 221.476ZM222.116 222.05V224.05C223.39 224.05 224.603 223.81 225.709 223.279L224.843 221.476L223.978 219.673C223.489 219.907 222.883 220.05 222.116 220.05V222.05ZM224.843 221.476L225.709 223.279C226.848 222.732 227.776 221.903 228.488 220.846L226.829 219.729L225.17 218.612C224.829 219.118 224.434 219.454 223.978 219.673L224.843 221.476ZM226.829 219.729L228.483 220.854C229.207 219.789 229.694 218.511 230.004 217.092L228.049 216.667L226.095 216.241C225.862 217.311 225.536 218.074 225.175 218.604L226.829 219.729ZM228.049 216.667L230.005 217.087C230.314 215.651 230.456 214.003 230.456 212.168H228.456H226.456C226.456 213.811 226.327 215.162 226.094 216.246L228.049 216.667ZM259.746 215.59L257.806 216.075L257.814 216.107L257.823 216.139L259.746 215.59ZM258.909 214.035L257.42 215.37L258.909 214.035ZM257.138 212.671L256.115 214.389L256.123 214.394L256.131 214.398L257.138 212.671ZM254.219 211.307L254.941 209.442L254.936 209.44L254.219 211.307ZM250.367 209.584L249.416 211.344L249.43 211.352L249.445 211.359L250.367 209.584ZM247.233 207.431L245.886 208.91L245.9 208.922L245.914 208.935L247.233 207.431ZM245.104 196.928L243.268 196.134L243.263 196.146L245.104 196.928ZM247.257 193.889L248.606 195.366L248.607 195.365L247.257 193.889ZM250.607 191.903L251.281 193.786L251.291 193.783L251.301 193.779L250.607 191.903ZM260.655 192.621L259.626 194.336L259.634 194.341L260.655 192.621ZM264.34 196.473L262.569 197.402L262.573 197.409L262.576 197.416L264.34 196.473ZM265.632 201.833V203.833H267.632V201.833H265.632ZM259.842 201.833H257.842V203.833H259.842V201.833ZM252.186 196.641L251.168 194.919L251.16 194.924L251.151 194.929L252.186 196.641ZM250.654 198.339L248.842 197.494L248.834 197.51L248.827 197.527L250.654 198.339ZM250.583 202.55L248.805 203.466L248.811 203.477L248.816 203.489L250.583 202.55ZM253.621 205.182L254.546 203.409L253.621 205.182ZM256.157 206.283L255.469 208.16L255.475 208.163L256.157 206.283ZM263.407 210.661L261.902 211.978L261.914 211.992L261.927 212.006L263.407 210.661ZM265.177 213.652L263.286 214.301L263.29 214.313L263.294 214.325L265.177 213.652ZM265.034 221.38L263.189 220.607L263.184 220.62L265.034 221.38ZM259.579 226.309L260.225 228.201L260.235 228.198L260.246 228.194L259.579 226.309ZM250.846 226.309L250.227 228.21L250.233 228.212L250.846 226.309ZM247.161 224.275L245.863 225.797L245.87 225.802L245.877 225.808L247.161 224.275ZM244.577 220.806L242.752 221.624L242.756 221.632L242.76 221.641L244.577 220.806ZM243.644 215.925V213.925H241.644V215.925H243.644ZM249.458 215.925H251.458V213.925H249.458V215.925ZM249.865 218.796L247.971 219.44L247.975 219.451L249.865 218.796ZM251.037 220.734L249.623 222.148L249.645 222.17L249.668 222.192L251.037 220.734ZM252.88 221.834L252.234 223.727L252.26 223.736L252.285 223.744L252.88 221.834ZM257.928 221.595L258.903 223.342L258.909 223.338L258.916 223.334L257.928 221.595ZM259.483 219.944L257.678 219.083L259.483 219.944ZM259.986 217.504H261.986C261.986 216.642 261.89 215.814 261.669 215.04L259.746 215.59L257.823 216.139C257.921 216.483 257.986 216.93 257.986 217.504H259.986ZM259.746 215.59L261.687 215.105C261.46 214.199 261.019 213.392 260.398 212.7L258.909 214.035L257.42 215.37C257.628 215.602 257.745 215.832 257.806 216.075L259.746 215.59ZM258.909 214.035L260.398 212.7C259.799 212.031 259.022 211.454 258.146 210.943L257.138 212.671L256.131 214.398C256.786 214.781 257.189 215.113 257.42 215.37L258.909 214.035ZM257.138 212.671L258.162 210.953C257.282 210.429 256.198 209.928 254.941 209.442L254.219 211.307L253.498 213.173C254.634 213.612 255.495 214.02 256.115 214.389L257.138 212.671ZM254.219 211.307L254.936 209.44C253.628 208.938 252.414 208.394 251.29 207.81L250.367 209.584L249.445 211.359C250.714 212.019 252.067 212.623 253.503 213.174L254.219 211.307ZM250.367 209.584L251.318 207.825C250.256 207.251 249.337 206.616 248.552 205.928L247.233 207.431L245.914 208.935C246.948 209.841 248.118 210.642 249.416 211.344L250.367 209.584ZM247.233 207.431L248.58 205.952C247.879 205.314 247.335 204.578 246.937 203.732L245.128 204.584L243.318 205.436C243.941 206.759 244.801 207.921 245.886 208.91L247.233 207.431ZM245.128 204.584L246.937 203.732C246.575 202.962 246.362 202.002 246.362 200.804H244.362H242.362C242.362 202.476 242.66 204.037 243.318 205.436L245.128 204.584ZM244.362 200.804H246.362C246.362 199.62 246.567 198.598 246.945 197.709L245.104 196.928L243.263 196.146C242.651 197.586 242.362 199.148 242.362 200.804H244.362ZM245.104 196.928L246.939 197.722C247.341 196.794 247.895 196.015 248.606 195.366L247.257 193.889L245.908 192.413C244.769 193.454 243.888 194.701 243.268 196.134L245.104 196.928ZM247.257 193.889L248.607 195.365C249.338 194.696 250.22 194.166 251.281 193.786L250.607 191.903L249.932 190.02C248.409 190.566 247.058 191.36 245.907 192.414L247.257 193.889ZM250.607 191.903L251.301 193.779C252.343 193.393 253.532 193.186 254.889 193.186V191.186V189.186C253.121 189.186 251.454 189.457 249.912 190.028L250.607 191.903ZM254.889 191.186V193.186C256.852 193.186 258.401 193.601 259.626 194.336L260.655 192.621L261.684 190.906C259.719 189.727 257.425 189.186 254.889 189.186V191.186ZM260.655 192.621L259.634 194.341C260.937 195.115 261.901 196.129 262.569 197.402L264.34 196.473L266.111 195.544C265.088 193.595 263.596 192.042 261.677 190.902L260.655 192.621ZM264.34 196.473L262.576 197.416C263.271 198.716 263.632 200.175 263.632 201.833H265.632H267.632C267.632 199.567 267.132 197.453 266.104 195.53L264.34 196.473ZM265.632 201.833V199.833H259.842V201.833V203.833H265.632V201.833ZM259.842 201.833H261.842C261.842 200.495 261.635 199.23 261.173 198.075L259.316 198.818L257.459 199.561C257.698 200.16 257.842 200.905 257.842 201.833H259.842ZM259.316 198.818L261.173 198.075C260.683 196.852 259.896 195.836 258.806 195.102L257.689 196.76L256.571 198.419C256.949 198.674 257.246 199.029 257.459 199.561L259.316 198.818ZM257.689 196.76L258.806 195.102C257.653 194.324 256.28 194.019 254.842 194.019V196.019V198.019C255.732 198.019 256.257 198.207 256.571 198.419L257.689 196.76ZM254.842 196.019V194.019C253.523 194.019 252.26 194.274 251.168 194.919L252.186 196.641L253.203 198.362C253.515 198.178 254.022 198.019 254.842 198.019V196.019ZM252.186 196.641L251.151 194.929C250.13 195.546 249.347 196.412 248.842 197.494L250.654 198.339L252.467 199.185C252.632 198.831 252.87 198.564 253.221 198.352L252.186 196.641ZM250.654 198.339L248.827 197.527C248.376 198.542 248.176 199.648 248.176 200.804H250.176H252.176C252.176 200.109 252.295 199.572 252.482 199.152L250.654 198.339ZM250.176 200.804H248.176C248.176 201.735 248.377 202.635 248.805 203.466L250.583 202.55L252.361 201.634C252.247 201.413 252.176 201.148 252.176 200.804H250.176ZM250.583 202.55L248.816 203.489C249.224 204.257 249.79 204.921 250.465 205.49L251.755 203.962L253.045 202.433C252.699 202.142 252.483 201.865 252.349 201.612L250.583 202.55ZM251.755 203.962L250.465 205.49C251.111 206.035 251.862 206.52 252.696 206.955L253.621 205.182L254.546 203.409C253.913 203.079 253.42 202.75 253.045 202.433L251.755 203.962ZM253.621 205.182L252.696 206.955C253.522 207.386 254.449 207.786 255.469 208.16L256.157 206.283L256.846 204.405C255.952 204.077 255.188 203.744 254.546 203.409L253.621 205.182ZM256.157 206.283L255.475 208.163C257.011 208.72 258.313 209.324 259.397 209.966L260.416 208.245L261.435 206.524C260.095 205.73 258.558 205.026 256.839 204.403L256.157 206.283ZM260.416 208.245L259.397 209.966C260.46 210.595 261.283 211.271 261.902 211.978L263.407 210.661L264.912 209.344C263.968 208.265 262.797 207.33 261.435 206.524L260.416 208.245ZM263.407 210.661L261.927 212.006C262.542 212.683 262.992 213.443 263.286 214.301L265.177 213.652L267.069 213.003C266.598 211.628 265.867 210.394 264.887 209.316L263.407 210.661ZM265.177 213.652L263.294 214.325C263.602 215.187 263.776 216.222 263.776 217.456H265.776H267.776C267.776 215.851 267.55 214.349 267.061 212.979L265.177 213.652ZM265.776 217.456H263.776C263.776 218.659 263.569 219.7 263.189 220.607L265.034 221.38L266.879 222.153C267.487 220.699 267.776 219.125 267.776 217.456H265.776ZM265.034 221.38L263.184 220.62C262.818 221.509 262.291 222.256 261.593 222.881L262.928 224.371L264.264 225.86C265.416 224.826 266.292 223.579 266.884 222.14L265.034 221.38ZM262.928 224.371L261.593 222.881C260.884 223.517 260.002 224.038 258.912 224.423L259.579 226.309L260.246 228.194C261.771 227.655 263.122 226.883 264.264 225.86L262.928 224.371ZM259.579 226.309L258.933 224.416C257.866 224.78 256.622 224.979 255.176 224.979V226.979V228.979C256.985 228.979 258.676 228.73 260.225 228.201L259.579 226.309ZM255.176 226.979V224.979C253.879 224.979 252.643 224.786 251.459 224.405L250.846 226.309L250.233 228.212C251.824 228.725 253.475 228.979 255.176 228.979V226.979ZM250.846 226.309L251.465 224.407C250.332 224.038 249.331 223.484 248.446 222.742L247.161 224.275L245.877 225.808C247.161 226.885 248.616 227.686 250.227 228.21L250.846 226.309ZM247.161 224.275L248.459 222.753C247.611 222.03 246.92 221.113 246.394 219.97L244.577 220.806L242.76 221.641C243.511 223.273 244.542 224.67 245.863 225.797L247.161 224.275ZM244.577 220.806L246.402 219.988C245.919 218.909 245.644 217.572 245.644 215.925H243.644H241.644C241.644 218.01 241.992 219.927 242.752 221.624L244.577 220.806ZM243.644 215.925V217.925H249.458V215.925V213.925H243.644V215.925ZM249.458 215.925H247.458C247.458 217.193 247.611 218.38 247.971 219.44L249.865 218.796L251.758 218.152C251.577 217.617 251.458 216.889 251.458 215.925H249.458ZM249.865 218.796L247.975 219.451C248.331 220.477 248.87 221.395 249.623 222.148L251.037 220.734L252.452 219.32C252.184 219.052 251.941 218.678 251.754 218.14L249.865 218.796ZM251.037 220.734L249.668 222.192C250.408 222.886 251.27 223.399 252.234 223.727L252.88 221.834L253.525 219.941C253.085 219.792 252.72 219.57 252.407 219.276L251.037 220.734ZM252.88 221.834L252.285 223.744C253.225 224.036 254.226 224.169 255.272 224.169V222.169V220.169C254.564 220.169 253.97 220.079 253.474 219.925L252.88 221.834ZM255.272 222.169V224.169C256.574 224.169 257.827 223.942 258.903 223.342L257.928 221.595L256.953 219.849C256.657 220.014 256.139 220.169 255.272 220.169V222.169ZM257.928 221.595L258.916 223.334C259.959 222.741 260.77 221.891 261.288 220.806L259.483 219.944L257.678 219.083C257.526 219.401 257.3 219.651 256.94 219.856L257.928 221.595ZM259.483 219.944L261.288 220.806C261.774 219.789 261.986 218.671 261.986 217.504H259.986H257.986C257.986 218.187 257.863 218.696 257.678 219.083L259.483 219.944ZM286.132 220.04L284.197 219.534L284.171 219.632L284.155 219.733L286.132 220.04ZM293.549 191.664V189.664H292.004L291.614 191.158L293.549 191.664ZM299.841 191.664L301.757 192.237L302.526 189.664H299.841V191.664ZM289.433 226.5V228.5H290.923L291.35 227.073L289.433 226.5ZM285.127 226.5L283.151 226.193L282.792 228.5H285.127V226.5ZM279.648 191.664L281.584 191.161L281.195 189.664H279.648V191.664ZM287.017 220.04L288.99 219.711L288.975 219.623L288.953 219.537L287.017 220.04ZM288.094 226.5V228.5H290.454L290.066 226.171L288.094 226.5ZM283.787 226.5L281.871 227.073L282.297 228.5H283.787V226.5ZM273.379 191.664V189.664H270.694L271.463 192.237L273.379 191.664ZM286.132 220.04L288.067 220.546L295.484 192.17L293.549 191.664L291.614 191.158L284.197 219.534L286.132 220.04ZM293.549 191.664V193.664H299.841V191.664V189.664H293.549V191.664ZM299.841 191.664L297.925 191.092L287.517 225.927L289.433 226.5L291.35 227.073L301.757 192.237L299.841 191.664ZM289.433 226.5V224.5H285.127V226.5V228.5H289.433V226.5ZM285.127 226.5L287.103 226.807L288.108 220.347L286.132 220.04L284.155 219.733L283.151 226.193L285.127 226.5ZM279.648 191.664L277.712 192.167L285.081 220.543L287.017 220.04L288.953 219.537L281.584 191.161L279.648 191.664ZM287.017 220.04L285.044 220.369L286.121 226.829L288.094 226.5L290.066 226.171L288.99 219.711L287.017 220.04ZM288.094 226.5V224.5H283.787V226.5V228.5H288.094V226.5ZM283.787 226.5L285.703 225.927L275.296 191.092L273.379 191.664L271.463 192.237L281.871 227.073L283.787 226.5ZM273.379 191.664V193.664H279.648V191.664V189.664H273.379V191.664ZM314.79 191.664H316.79V189.664H314.79V191.664ZM314.79 226.5V228.5H316.79V226.5H314.79ZM308.976 226.5H306.976V228.5H308.976V226.5ZM308.976 191.664V189.664H306.976V191.664H308.976ZM314.79 191.664H312.79V226.5H314.79H316.79V191.664H314.79ZM314.79 226.5V224.5H308.976V226.5V228.5H314.79V226.5ZM308.976 226.5H310.976V191.664H308.976H306.976V226.5H308.976ZM308.976 191.664V193.664H314.79V191.664V189.664H308.976V191.664ZM338.352 191.664H340.352V189.664H338.352V191.664ZM338.352 226.5V228.5H340.352V226.5H338.352ZM332.562 226.5H330.562V228.5H332.562V226.5ZM332.562 191.664V189.664H330.562V191.664H332.562ZM347.229 191.664H349.229V189.664H347.229V191.664ZM347.229 196.545V198.545H349.229V196.545H347.229ZM323.781 196.545H321.781V198.545H323.781V196.545ZM323.781 191.664V189.664H321.781V191.664H323.781ZM338.352 191.664H336.352V226.5H338.352H340.352V191.664H338.352ZM338.352 226.5V224.5H332.562V226.5V228.5H338.352V226.5ZM332.562 226.5H334.562V191.664H332.562H330.562V226.5H332.562ZM332.562 191.664V193.664H338.352V191.664V189.664H332.562V191.664ZM347.229 191.664H345.229V196.545H347.229H349.229V191.664H347.229ZM347.229 196.545V194.545H323.781V196.545V198.545H347.229V196.545ZM323.781 196.545H325.781V191.664H323.781H321.781V196.545H323.781ZM323.781 191.664V193.664H347.229V191.664V189.664H323.781V191.664Z" fill="#78C37E" mask="url(#path-4-outside-1_164_165)"/>
</svg>
