<svg width="604" height="64" viewBox="0 0 604 64" fill="none" xmlns="http://www.w3.org/2000/svg">
<path d="M440.509 0.00354004C445.97 -0.083947 451.344 1.58013 456.101 4.90686V17.2506C452.577 13.136 446.146 10.5095 439.628 10.5094C433.198 10.5969 429.497 12.8731 429.497 16.6373C429.497 21.4524 433.021 22.9414 441.125 26.2682C453.193 31.1708 459.536 35.4608 459.536 46.2291C459.536 56.7345 449.934 64.0006 436.368 64.0006C426.15 64.0006 419.102 60.5862 415.667 57.5221V45.8785C421.129 50.606 429.057 53.5826 436.368 53.5826C444.296 53.5826 448.261 51.1313 448.261 46.1412C448.261 42.0265 444.384 40.0129 436.28 36.6862C424.388 31.7835 418.222 27.4056 418.222 16.6373C418.222 6.91986 427.472 0.00354004 440.509 0.00354004ZM377.02 0.354126C395.166 0.091483 409.437 14.2739 409.173 32.1334C409.437 49.993 395.166 64.1754 377.02 63.9127C358.961 64.1752 344.691 49.9929 344.955 32.1334C344.691 14.274 358.961 0.0916144 377.02 0.354126ZM45.1025 12.0856H11.0117V25.0426H38.1426V35.3727H11.0117V52.2692H45.6309V62.6002H0V1.75452H45.1025V12.0856ZM67.4414 52.2692H103.735V62.6002H56.5186V1.75452H67.4414V52.2692ZM158.741 12.0856H124.65V25.0426H151.782V35.3727H124.65V52.2692H159.27V62.6002H113.639V1.75452H158.741V12.0856ZM181.081 27.8434L209.005 1.75452H223.628L196.32 26.6178L223.188 62.6002H209.445L188.305 34.1471L181.081 40.8883V62.6002H170.157V1.75452H181.081V27.8434ZM278.998 12.0856H258.032V62.6002H247.109V12.0856H226.144V1.75452H278.998V12.0856ZM316.089 1.75452C329.302 1.75462 337.934 9.19626 337.935 20.6647C337.935 29.4194 332.826 35.9862 324.017 38.525L342.075 62.6002H328.333L311.244 39.5748H300.057V62.6002H289.045V1.75452H316.089ZM440.509 1.40491C428.265 1.40491 419.631 7.70779 419.631 16.6373C419.631 26.7052 425.093 30.558 436.809 35.4606C444.913 38.7874 449.67 41.1511 449.67 46.1412C449.67 51.9193 445.089 54.983 436.368 54.983C429.673 54.983 422.538 52.6192 417.076 48.7672V56.8219C421.393 60.4988 428.528 62.6002 436.368 62.6002C449.229 62.6002 458.127 55.8591 458.127 46.2291C458.127 36.1612 452.489 32.3964 440.597 27.4938C432.492 24.167 428.088 22.3279 428.088 16.6373C428.088 11.9976 432.405 9.19655 439.628 9.10901C445.177 9.10908 450.727 10.9473 454.691 14.0114V5.60706C450.287 2.71804 445.442 1.31741 440.509 1.40491ZM491.668 47.0162L508.669 1.75452H521.178L497.834 62.6002H486.03L462.687 1.75452H475.195L491.668 47.0162ZM541.1 62.6002H530.088V1.75452H541.1V62.6002ZM604 12.0856H583.035V62.6002H572.112V12.0856H551.146V1.75452H604V12.0856ZM377.02 1.75452C359.666 1.492 346.1 14.9744 346.364 32.1334C346.1 49.2926 359.666 62.7748 377.02 62.5123C394.373 62.775 408.027 49.2051 407.763 32.1334C408.027 15.0619 394.373 1.49187 377.02 1.75452ZM1.40918 61.1989H44.2217V53.6705H9.60156V33.9723H36.7334V26.443H9.60156V10.6842H43.6924V3.15588H1.40918V61.1989ZM57.9277 61.1989H102.325V53.6705H66.0322V3.15588H57.9277V61.1989ZM115.049 61.1989H157.86V53.6705H123.241V33.9723H150.372V26.443H123.241V10.6842H157.332V3.15588H115.049V61.1989ZM171.567 61.1989H179.672V40.3629L188.48 32.0465L210.15 61.1989H220.369L194.383 26.443L219.929 3.15588H209.534L179.672 31.1705V3.15588H171.567V61.1989ZM227.554 10.6842H248.519V61.1989H256.623V10.6842H277.588V3.15588H227.554V10.6842ZM290.454 61.1989H298.646V38.1744H311.948L329.038 61.1989H339.256L321.639 37.649C331.064 35.7229 336.525 29.5068 336.525 20.6647C336.525 10.0717 328.509 3.15599 316.089 3.15588H290.454V61.1989ZM487.087 61.1989H496.777L519.063 3.15588H509.727L491.668 51.0436L474.138 3.15588H464.801L487.087 61.1989ZM531.497 61.1989H539.689V3.15588H531.497V61.1989ZM552.556 10.6842H573.521V61.1989H581.626V10.6842H602.591V3.15588H552.556V10.6842ZM377.02 9.28381C390.057 9.28381 399.219 18.7388 399.219 32.1334C399.219 45.5281 390.145 54.8961 377.02 54.8961C363.982 54.896 354.821 45.4405 354.821 32.1334C354.821 18.8265 364.071 9.28393 377.02 9.28381ZM377.02 10.6842C364.863 10.6843 356.231 19.6144 356.23 32.1334C356.23 44.7401 364.775 53.4946 377.02 53.4948C389.352 53.4948 397.809 44.8277 397.809 32.1334C397.809 19.5268 389.264 10.6842 377.02 10.6842ZM315.384 10.6842C323.136 10.6842 328.068 14.6246 328.068 20.8405C328.068 26.9685 323.136 30.8199 315.384 30.8199H298.646V10.6842H315.384ZM300.057 29.4196H315.384C322.431 29.4196 326.659 26.1806 326.659 20.8405C326.659 15.4125 322.431 12.0856 315.384 12.0856H300.057V29.4196Z" fill="#2FA837"/>
</svg>
