<svg width="24" height="24" viewBox="0 0 24 24" fill="none" xmlns="http://www.w3.org/2000/svg">
<path d="M3 11C3 7.229 3 5.343 4.172 4.172C5.344 3.001 7.229 3 11 3H13C16.771 3 18.657 3 19.828 4.172C20.999 5.344 21 7.229 21 11V13C21 16.771 21 18.657 19.828 19.828C18.656 20.999 16.771 21 13 21H11C7.229 21 5.343 21 4.172 19.828C3.001 18.656 3 16.771 3 13V11Z" stroke="#282828" stroke-width="2"/>
<path d="M16.5 9C17.3284 9 18 8.32843 18 7.5C18 6.67157 17.3284 6 16.5 6C15.6716 6 15 6.67157 15 7.5C15 8.32843 15.6716 9 16.5 9Z" fill="#282828"/>
<path d="M12 15C13.6569 15 15 13.6569 15 12C15 10.3431 13.6569 9 12 9C10.3431 9 9 10.3431 9 12C9 13.6569 10.3431 15 12 15Z" stroke="#282828" stroke-width="2"/>
</svg>
