<svg width="25" height="24" viewBox="0 0 25 24" fill="none" xmlns="http://www.w3.org/2000/svg">
<path fill-rule="evenodd" clip-rule="evenodd" d="M19.3288 17.9477C18.5313 17.4529 17.6807 17.0493 16.793 16.7448C17.2161 15.3218 17.4439 13.8481 17.4699 12.3639H21.6667C21.5607 14.4405 20.734 16.4152 19.3288 17.9477ZM12.7647 2H12.6492C10.0286 2.01516 7.52091 3.06894 5.67611 4.93021C3.83116 6.79135 2.79945 9.30807 2.80717 11.9289C2.81475 14.5495 3.86121 17.0602 5.71694 18.9106C7.57267 20.761 10.0865 21.8 12.7072 21.8C15.328 21.8 17.8416 20.761 19.6972 18.9106C21.553 17.0602 22.5994 14.5495 22.6071 11.9289C22.6147 9.3081 21.5829 6.79146 19.738 4.93021C17.893 3.06894 15.3855 2.01519 12.7647 2ZM3.7471 12.3639H7.94428C7.97066 13.8482 8.19853 15.322 8.62173 16.7448C7.73404 17.0493 6.88352 17.4529 6.08607 17.9477C4.68055 16.4152 3.8534 14.4405 3.7471 12.3639ZM6.08611 5.85199C6.88356 6.3471 7.73408 6.75062 8.62177 7.05518C8.19855 8.47807 7.9707 9.95183 7.94431 11.436H3.74714C3.85342 9.35912 4.68059 7.38442 6.08611 5.85199ZM10.0829 5.85593C10.805 4.37253 11.761 3.52171 12.707 3.52171C13.653 3.52171 14.6091 4.37253 15.3312 5.85578C15.4234 6.04487 15.5104 6.24108 15.5926 6.44446C14.6494 6.68427 13.6802 6.80528 12.707 6.80499C11.734 6.80528 10.7647 6.68413 9.82172 6.44417C9.90395 6.24108 9.99102 6.0453 10.0829 5.85593ZM8.92881 6.18031C8.17641 5.92241 7.45271 5.58782 6.76884 5.18194C8.01604 4.07498 9.54782 3.33873 11.1914 3.05621C10.4558 3.52303 9.79127 4.33403 9.24865 5.44873C9.13509 5.68227 9.02851 5.92543 8.92895 6.17855L8.92881 6.18031ZM16.1658 5.45048C15.6234 4.33579 14.9587 3.52474 14.2231 3.05796C15.8664 3.33991 17.3979 4.07558 18.6451 5.18194C17.9613 5.58782 17.2377 5.92241 16.4855 6.18031C16.3858 5.9278 16.2794 5.68449 16.1658 5.45048ZM8.87283 11.4358C8.89849 10.0423 9.11323 8.65882 9.51081 7.32292C10.5544 7.59569 11.6286 7.73331 12.7072 7.73285C13.7861 7.73373 14.8607 7.5964 15.9047 7.32407C16.3023 8.65979 16.5169 10.0433 16.5427 11.437L8.87283 11.4358ZM12.7072 16.0667C11.6284 16.0661 10.5538 16.2038 9.50998 16.4763C9.11243 15.1407 8.89784 13.7571 8.87201 12.3635H16.5419C16.5162 13.757 16.3015 15.1405 15.904 16.4763C14.8602 16.2038 13.7859 16.0661 12.7072 16.0667ZM15.3314 17.9444C14.6092 19.4275 13.6532 20.2782 12.7072 20.2782C11.7612 20.2782 10.8052 19.4274 10.0831 17.9444C9.9911 17.7551 9.90406 17.5589 9.82199 17.3555C11.7155 16.8748 13.6993 16.8748 15.5926 17.3555C15.5104 17.5584 15.4234 17.7548 15.3314 17.9444ZM16.4857 17.6211C16.386 17.8736 16.2796 18.1173 16.1659 18.3506C15.6234 19.4653 14.9589 20.2763 14.2232 20.7432C15.8664 20.4611 17.3978 19.7255 18.6451 18.6191C17.9614 18.2131 17.2378 17.8791 16.4857 17.6211ZM9.24762 18.3506C9.79038 19.4653 10.4547 20.2763 11.1904 20.7432C9.54722 20.4611 8.01574 19.7253 6.76868 18.6191C7.45256 18.2131 8.17656 17.8784 8.92911 17.6203C9.02883 17.8728 9.13525 18.1165 9.24881 18.3498L9.24762 18.3506ZM17.4703 11.4359C17.4439 9.95168 17.2159 8.47791 16.7925 7.05513C17.6805 6.75042 18.5314 6.34687 19.3292 5.85195C20.7344 7.3846 21.5612 9.35934 21.6672 11.436L17.4703 11.4359Z" fill="#2FA837"/>
</svg>
