<svg width="193" height="193" viewBox="0 0 193 193" fill="none" xmlns="http://www.w3.org/2000/svg">
<path fill-rule="evenodd" clip-rule="evenodd" d="M67.9722 5.46423C78.4505 4.71636 93.7779 4.02075 114.594 4.02075C135.41 4.02075 150.741 4.71636 161.215 5.46423C175.489 6.4815 186.518 17.5147 187.536 31.7846C188.288 42.2629 188.979 57.5903 188.979 78.4062C188.979 99.222 188.288 114.553 187.536 125.028C186.518 139.302 175.485 150.331 161.215 151.348C158.457 151.549 155.358 151.739 151.919 151.919C151.737 155.361 151.547 158.46 151.348 161.215C150.331 175.489 139.298 186.518 125.028 187.536C114.55 188.283 99.2221 188.979 78.4063 188.979C57.5904 188.979 42.259 188.283 31.7847 187.536C17.5108 186.518 6.48162 175.485 5.46435 161.215C4.71648 150.737 4.02087 135.41 4.02087 114.594C4.02087 93.7778 4.71648 78.4464 5.46435 67.9721C6.48162 53.6981 17.5148 42.669 31.7847 41.6517C34.5403 41.4507 37.6391 41.2604 41.0809 41.0808C41.2632 37.6416 41.4535 34.5429 41.6519 31.7846C42.6691 17.5106 53.7023 6.4815 67.9722 5.46423ZM132.334 167.387C126.93 155.671 117.083 142.169 99.4031 136.025C105.65 131.574 110.321 125.253 112.742 117.974C115.163 110.695 115.209 102.836 112.872 95.5296C110.535 88.2236 105.938 81.8489 99.7424 77.3259C93.5471 72.8029 86.0749 70.3654 78.4043 70.3654C70.7336 70.3654 63.2614 72.8029 57.0662 77.3259C50.8709 81.8489 46.2732 88.2236 43.9366 95.5296C41.6 102.836 41.6454 110.695 44.0663 117.974C46.4872 125.253 51.1584 131.574 57.4055 136.025C39.7339 142.173 29.8869 155.675 24.4829 167.391C22.718 165.341 21.673 162.769 21.5075 160.069C20.7837 149.997 20.1042 135.056 20.1042 114.594C20.1042 94.1316 20.7877 79.1902 21.5075 69.118C21.9538 62.8254 26.6381 58.1412 32.9307 57.6908C43.0028 56.9751 57.9443 56.2916 78.4063 56.2916C98.8683 56.2916 113.81 56.9751 123.882 57.6949C130.175 58.1412 134.859 62.8254 135.309 69.118C136.025 79.1902 136.708 94.1316 136.708 114.594C136.708 135.056 136.025 149.997 135.309 160.069C135.143 162.768 134.098 165.338 132.334 167.387Z" fill="#6E6F6E"/>
</svg>
